<?xml version="1.0" encoding="UTF-8"?>
<!DOCTYPE svg PUBLIC "-//W3C//DTD SVG 1.1//EN" "http://www.w3.org/Graphics/SVG/1.1/DTD/svg11.dtd">
<svg xmlns="http://www.w3.org/2000/svg" version="1.1" width="376px" height="265px" style="shape-rendering:geometricPrecision; text-rendering:geometricPrecision; image-rendering:optimizeQuality; fill-rule:evenodd; clip-rule:evenodd" xmlns:xlink="http://www.w3.org/1999/xlink">
<g><path style="opacity:0.997" fill="#a32928" d="M 260.5,147.5 C 256.751,144.112 252.751,140.945 248.5,138C 246.945,136.354 245.279,136.021 243.5,137C 244.061,135.434 243.394,134.101 241.5,133C 219.415,117.284 198.082,102.118 177.5,87.5C 176.261,87.9424 175.261,88.6091 174.5,89.5C 173.833,89.5 173.5,89.8333 173.5,90.5C 172.508,90.3284 171.842,90.6618 171.5,91.5C 170.833,91.5 170.5,91.8333 170.5,92.5C 169.167,92.8333 169.167,93.1667 170.5,93.5C 170.027,94.9063 169.027,95.573 167.5,95.5C 167.167,94.1667 166.833,94.1667 166.5,95.5C 165.508,95.3284 164.842,95.6618 164.5,96.5C 163.833,96.5 163.5,96.8333 163.5,97.5C 162.508,97.3284 161.842,97.6618 161.5,98.5C 160.833,98.5 160.5,98.8333 160.5,99.5C 159.167,99.8333 159.167,100.167 160.5,100.5C 160.158,101.338 159.492,101.672 158.5,101.5C 158.167,100.167 157.833,100.167 157.5,101.5C 156.833,101.5 156.5,101.833 156.5,102.5C 155.508,102.328 154.842,102.662 154.5,103.5C 153.833,103.5 153.5,103.833 153.5,104.5C 152.508,104.328 151.842,104.662 151.5,105.5C 150.833,105.5 150.5,105.833 150.5,106.5C 149.167,106.833 149.167,107.167 150.5,107.5C 150.158,108.338 149.492,108.672 148.5,108.5C 148.167,107.167 147.833,107.167 147.5,108.5C 146.833,108.5 146.5,108.833 146.5,109.5C 145.508,109.328 144.842,109.662 144.5,110.5C 143.833,110.5 143.5,110.833 143.5,111.5C 142.508,111.328 141.842,111.662 141.5,112.5C 140.833,112.5 140.5,112.833 140.5,113.5C 139.508,113.328 138.842,113.662 138.5,114.5C 137.833,114.5 137.5,114.833 137.5,115.5C 136.833,115.5 136.5,115.833 136.5,116.5C 135.508,116.328 134.842,116.662 134.5,117.5C 133.833,117.5 133.5,117.833 133.5,118.5C 132.508,118.328 131.842,118.662 131.5,119.5C 130.833,119.5 130.5,119.833 130.5,120.5C 129.508,120.328 128.842,120.662 128.5,121.5C 127.833,121.5 127.5,121.833 127.5,122.5C 126.833,122.5 126.5,122.833 126.5,123.5C 125.508,123.328 124.842,123.662 124.5,124.5C 123.833,124.5 123.5,124.833 123.5,125.5C 122.508,125.328 121.842,125.662 121.5,126.5C 120.833,126.5 120.5,126.833 120.5,127.5C 119.508,127.328 118.842,127.662 118.5,128.5C 117.833,128.5 117.5,128.833 117.5,129.5C 116.167,129.833 116.167,130.167 117.5,130.5C 117.027,131.906 116.027,132.573 114.5,132.5C 114.167,131.167 113.833,131.167 113.5,132.5C 112.508,132.328 111.842,132.662 111.5,133.5C 110.833,133.5 110.5,133.833 110.5,134.5C 109.508,134.328 108.842,134.662 108.5,135.5C 107.833,135.5 107.5,135.833 107.5,136.5C 106.167,136.833 106.167,137.167 107.5,137.5C 107.158,138.338 106.492,138.672 105.5,138.5C 105.167,137.167 104.833,137.167 104.5,138.5C 103.833,138.5 103.5,138.833 103.5,139.5C 102.508,139.328 101.842,139.662 101.5,140.5C 100.833,140.5 100.5,140.833 100.5,141.5C 99.5084,141.328 98.8417,141.662 98.5,142.5C 97.8333,142.5 97.5,142.833 97.5,143.5C 96.1667,143.833 96.1667,144.167 97.5,144.5C 97.1583,145.338 96.4916,145.672 95.5,145.5C 95.1667,144.167 94.8333,144.167 94.5,145.5C 93.8333,145.5 93.5,145.833 93.5,146.5C 92.5084,146.328 91.8417,146.662 91.5,147.5C 74.8333,147.5 58.1667,147.5 41.5,147.5C 41.5,121.167 41.5,94.8333 41.5,68.5C 58.1667,68.5 74.8333,68.5 91.5,68.5C 91.0474,74.6828 91.5474,80.6828 93,86.5C 108.921,75.4563 124.754,64.2896 140.5,53C 151.26,45.7346 163.427,37.2346 177,27.5C 220.922,58.8774 264.755,90.3774 308.5,122C 319.446,129.279 330.112,136.946 340.5,145C 342.095,144.383 343.428,144.716 344.5,146C 316.588,147.483 288.588,147.983 260.5,147.5 Z"/></g>
<g><path style="opacity:0.008" fill="#7e0100" d="M 41.5,67.5 C 57.9949,66.3384 74.6616,66.1717 91.5,67C 74.8367,67.4999 58.17,67.6666 41.5,67.5 Z"/></g>
<g><path style="opacity:0.016" fill="#7e3f3e" d="M 39.5,69.5 C 40.6634,94.9967 40.8301,120.663 40,146.5C 39.5,120.835 39.3334,95.1688 39.5,69.5 Z"/></g>
<g><path style="opacity:0.004" fill="#e10000" d="M 174.5,90.5 C 174.5,90.1667 174.5,89.8333 174.5,89.5C 177.167,89.8333 177.167,90.1667 174.5,90.5 Z"/></g>
<g><path style="opacity:0.012" fill="#a95554" d="M 173.5,90.5 C 173.833,90.5 174.167,90.5 174.5,90.5C 174.315,91.1701 173.981,91.1701 173.5,90.5 Z"/></g>
<g><path style="opacity:0.008" fill="#a70003" d="M 171.5,92.5 C 171.5,92.1667 171.5,91.8333 171.5,91.5C 172.167,91.5 172.833,91.5 173.5,91.5C 173.158,92.3382 172.492,92.6716 171.5,92.5 Z"/></g>
<g><path style="opacity:0.016" fill="#7e3f3e" d="M 170.5,92.5 C 170.833,92.5 171.167,92.5 171.5,92.5C 171.315,93.1701 170.981,93.1701 170.5,92.5 Z"/></g>
<g><path style="opacity:0.012" fill="#a90000" d="M 166.5,95.5 C 166.833,95.5 167.167,95.5 167.5,95.5C 167.315,96.1701 166.981,96.1701 166.5,95.5 Z"/></g>
<g><path style="opacity:0.004" fill="#d42d1f" d="M 164.5,97.5 C 164.5,97.1667 164.5,96.8333 164.5,96.5C 165.167,96.5 165.833,96.5 166.5,96.5C 166.158,97.3382 165.492,97.6716 164.5,97.5 Z"/></g>
<g><path style="opacity:0.012" fill="#a95554" d="M 163.5,97.5 C 163.833,97.5 164.167,97.5 164.5,97.5C 164.315,98.1701 163.981,98.1701 163.5,97.5 Z"/></g>
<g><path style="opacity:0.004" fill="#ff4433" d="M 161.5,99.5 C 161.5,99.1667 161.5,98.8333 161.5,98.5C 162.167,98.5 162.833,98.5 163.5,98.5C 163.158,99.3382 162.492,99.6716 161.5,99.5 Z"/></g>
<g><path style="opacity:0.016" fill="#7e3f3e" d="M 160.5,99.5 C 160.833,99.5 161.167,99.5 161.5,99.5C 161.315,100.17 160.981,100.17 160.5,99.5 Z"/></g>
<g><path style="opacity:0.016" fill="#7e3f3e" d="M 157.5,101.5 C 157.833,101.5 158.167,101.5 158.5,101.5C 158.315,102.17 157.981,102.17 157.5,101.5 Z"/></g>
<g><path style="opacity:0.012" fill="#a90000" d="M 156.5,102.5 C 156.833,102.5 157.167,102.5 157.5,102.5C 157.315,103.17 156.981,103.17 156.5,102.5 Z"/></g>
<g><path style="opacity:0.004" fill="#d42d1f" d="M 154.5,104.5 C 154.5,104.167 154.5,103.833 154.5,103.5C 155.167,103.5 155.833,103.5 156.5,103.5C 156.158,104.338 155.492,104.672 154.5,104.5 Z"/></g>
<g><path style="opacity:0.012" fill="#a95500" d="M 153.5,104.5 C 153.833,104.5 154.167,104.5 154.5,104.5C 154.315,105.17 153.981,105.17 153.5,104.5 Z"/></g>
<g><path style="opacity:0.004" fill="#e10000" d="M 151.5,106.5 C 151.5,106.167 151.5,105.833 151.5,105.5C 152.167,105.5 152.833,105.5 153.5,105.5C 153.158,106.338 152.492,106.672 151.5,106.5 Z"/></g>
<g><path style="opacity:0.016" fill="#7e3f3e" d="M 150.5,106.5 C 150.833,106.5 151.167,106.5 151.5,106.5C 151.315,107.17 150.981,107.17 150.5,106.5 Z"/></g>
<g><path style="opacity:0.016" fill="#7e3f3e" d="M 147.5,108.5 C 147.833,108.5 148.167,108.5 148.5,108.5C 148.315,109.17 147.981,109.17 147.5,108.5 Z"/></g>
<g><path style="opacity:0.012" fill="#a90000" d="M 146.5,109.5 C 146.833,109.5 147.167,109.5 147.5,109.5C 147.315,110.17 146.981,110.17 146.5,109.5 Z"/></g>
<g><path style="opacity:0.004" fill="#d42d1f" d="M 144.5,111.5 C 144.5,111.167 144.5,110.833 144.5,110.5C 145.167,110.5 145.833,110.5 146.5,110.5C 146.158,111.338 145.492,111.672 144.5,111.5 Z"/></g>
<g><path style="opacity:0.012" fill="#a90000" d="M 143.5,111.5 C 143.833,111.5 144.167,111.5 144.5,111.5C 144.315,112.17 143.981,112.17 143.5,111.5 Z"/></g>
<g><path style="opacity:0.004" fill="#e10000" d="M 141.5,113.5 C 141.5,113.167 141.5,112.833 141.5,112.5C 142.167,112.5 142.833,112.5 143.5,112.5C 143.158,113.338 142.492,113.672 141.5,113.5 Z"/></g>
<g><path style="opacity:0.016" fill="#7e3f3e" d="M 140.5,113.5 C 140.833,113.5 141.167,113.5 141.5,113.5C 141.315,114.17 140.981,114.17 140.5,113.5 Z"/></g>
<g><path style="opacity:0.008" fill="#7e0000" d="M 138.5,115.5 C 138.5,115.167 138.5,114.833 138.5,114.5C 139.167,114.5 139.833,114.5 140.5,114.5C 140.158,115.338 139.492,115.672 138.5,115.5 Z"/></g>
<g><path style="opacity:0.016" fill="#be3f3e" d="M 137.5,115.5 C 137.833,115.5 138.167,115.5 138.5,115.5C 138.315,116.17 137.981,116.17 137.5,115.5 Z"/></g>
<g><path style="opacity:0.008" fill="#fe0000" d="M 136.5,116.5 C 136.833,116.5 137.167,116.5 137.5,116.5C 137.315,117.17 136.981,117.17 136.5,116.5 Z"/></g>
<g><path style="opacity:0.004" fill="#2c1919" d="M 134.5,118.5 C 134.5,118.167 134.5,117.833 134.5,117.5C 135.167,117.5 135.833,117.5 136.5,117.5C 136.158,118.338 135.492,118.672 134.5,118.5 Z"/></g>
<g><path style="opacity:0.012" fill="#a90000" d="M 133.5,118.5 C 133.833,118.5 134.167,118.5 134.5,118.5C 134.315,119.17 133.981,119.17 133.5,118.5 Z"/></g>
<g><path style="opacity:0.004" fill="#e10000" d="M 131.5,120.5 C 131.5,120.167 131.5,119.833 131.5,119.5C 132.167,119.5 132.833,119.5 133.5,119.5C 133.158,120.338 132.492,120.672 131.5,120.5 Z"/></g>
<g><path style="opacity:0.016" fill="#7e3f3e" d="M 130.5,120.5 C 130.833,120.5 131.167,120.5 131.5,120.5C 131.315,121.17 130.981,121.17 130.5,120.5 Z"/></g>
<g><path style="opacity:0.008" fill="#7e0000" d="M 128.5,122.5 C 128.5,122.167 128.5,121.833 128.5,121.5C 129.167,121.5 129.833,121.5 130.5,121.5C 130.158,122.338 129.492,122.672 128.5,122.5 Z"/></g>
<g><path style="opacity:0.016" fill="#be3f3e" d="M 127.5,122.5 C 127.833,122.5 128.167,122.5 128.5,122.5C 128.315,123.17 127.981,123.17 127.5,122.5 Z"/></g>
<g><path style="opacity:0.008" fill="#fe0000" d="M 126.5,123.5 C 126.833,123.5 127.167,123.5 127.5,123.5C 127.315,124.17 126.981,124.17 126.5,123.5 Z"/></g>
<g><path style="opacity:0.004" fill="#2c1919" d="M 124.5,125.5 C 124.5,125.167 124.5,124.833 124.5,124.5C 125.167,124.5 125.833,124.5 126.5,124.5C 126.158,125.338 125.492,125.672 124.5,125.5 Z"/></g>
<g><path style="opacity:0.012" fill="#a90000" d="M 123.5,125.5 C 123.833,125.5 124.167,125.5 124.5,125.5C 124.315,126.17 123.981,126.17 123.5,125.5 Z"/></g>
<g><path style="opacity:0.004" fill="#e237ff" d="M 121.5,127.5 C 121.5,127.167 121.5,126.833 121.5,126.5C 122.167,126.5 122.833,126.5 123.5,126.5C 123.158,127.338 122.492,127.672 121.5,127.5 Z"/></g>
<g><path style="opacity:0.012" fill="#a95554" d="M 120.5,127.5 C 120.833,127.5 121.167,127.5 121.5,127.5C 121.315,128.17 120.981,128.17 120.5,127.5 Z"/></g>
<g><path style="opacity:0.008" fill="#a70003" d="M 118.5,129.5 C 118.5,129.167 118.5,128.833 118.5,128.5C 119.167,128.5 119.833,128.5 120.5,128.5C 120.158,129.338 119.492,129.672 118.5,129.5 Z"/></g>
<g><path style="opacity:0.016" fill="#7e3f3e" d="M 117.5,129.5 C 117.833,129.5 118.167,129.5 118.5,129.5C 118.315,130.17 117.981,130.17 117.5,129.5 Z"/></g>
<g><path style="opacity:0.012" fill="#a90000" d="M 113.5,132.5 C 113.833,132.5 114.167,132.5 114.5,132.5C 114.315,133.17 113.981,133.17 113.5,132.5 Z"/></g>
<g><path style="opacity:0.004" fill="#e43526" d="M 111.5,134.5 C 111.5,134.167 111.5,133.833 111.5,133.5C 112.167,133.5 112.833,133.5 113.5,133.5C 113.158,134.338 112.492,134.672 111.5,134.5 Z"/></g>
<g><path style="opacity:0.012" fill="#a95554" d="M 110.5,134.5 C 110.833,134.5 111.167,134.5 111.5,134.5C 111.315,135.17 110.981,135.17 110.5,134.5 Z"/></g>
<g><path style="opacity:0.008" fill="#7e0000" d="M 108.5,136.5 C 108.5,136.167 108.5,135.833 108.5,135.5C 109.167,135.5 109.833,135.5 110.5,135.5C 110.158,136.338 109.492,136.672 108.5,136.5 Z"/></g>
<g><path style="opacity:0.016" fill="#7e3f3e" d="M 107.5,136.5 C 107.833,136.5 108.167,136.5 108.5,136.5C 108.315,137.17 107.981,137.17 107.5,136.5 Z"/></g>
<g><path style="opacity:0.016" fill="#be3f3e" d="M 104.5,138.5 C 104.833,138.5 105.167,138.5 105.5,138.5C 105.315,139.17 104.981,139.17 104.5,138.5 Z"/></g>
<g><path style="opacity:0.012" fill="#a90000" d="M 103.5,139.5 C 103.833,139.5 104.167,139.5 104.5,139.5C 104.315,140.17 103.981,140.17 103.5,139.5 Z"/></g>
<g><path style="opacity:0.004" fill="#e43526" d="M 101.5,141.5 C 101.5,141.167 101.5,140.833 101.5,140.5C 102.167,140.5 102.833,140.5 103.5,140.5C 103.158,141.338 102.492,141.672 101.5,141.5 Z"/></g>
<g><path style="opacity:0.012" fill="#a95554" d="M 100.5,141.5 C 100.833,141.5 101.167,141.5 101.5,141.5C 101.315,142.17 100.981,142.17 100.5,141.5 Z"/></g>
<g><path style="opacity:0.004" fill="#e10000" d="M 98.5,143.5 C 98.5,143.167 98.5,142.833 98.5,142.5C 99.1667,142.5 99.8333,142.5 100.5,142.5C 100.158,143.338 99.4916,143.672 98.5,143.5 Z"/></g>
<g><path style="opacity:0.016" fill="#7e3f3e" d="M 97.5,143.5 C 97.8333,143.5 98.1667,143.5 98.5,143.5C 98.3147,144.17 97.9813,144.17 97.5,143.5 Z"/></g>
<g><path style="opacity:0.016" fill="#7e3f3e" d="M 94.5,145.5 C 94.8333,145.5 95.1667,145.5 95.5,145.5C 95.3147,146.17 94.9813,146.17 94.5,145.5 Z"/></g>
<g><path style="opacity:0.012" fill="#a90000" d="M 93.5,146.5 C 93.8333,146.5 94.1667,146.5 94.5,146.5C 94.3147,147.17 93.9813,147.17 93.5,146.5 Z"/></g>
<g><path style="opacity:0.006" fill="#fe0000" d="M 91.5,148.5 C 91.5,148.167 91.5,147.833 91.5,147.5C 92.1667,147.5 92.8333,147.5 93.5,147.5C 93.1583,148.338 92.4916,148.672 91.5,148.5 Z"/></g>
<g><path style="opacity:0.012" fill="#a90000" d="M 260.5,147.5 C 260.5,147.833 260.5,148.167 260.5,148.5C 259.83,148.019 259.83,147.685 260.5,147.5 Z"/></g>
<g><path style="opacity:0.004" fill="#fe0000" d="M 91.5,148.5 C 75.3385,149.662 59.0052,149.828 42.5,149C 58.8299,148.5 75.1633,148.333 91.5,148.5 Z"/></g>
<g><path style="opacity:0.004" fill="#fb0200" d="M 260.5,148.5 C 287.502,148.333 314.502,148.5 341.5,149C 314.33,149.83 287.33,149.664 260.5,148.5 Z"/></g>
<g><path style="opacity:0.006" fill="#000000" d="M 111.5,163.5 C 113.966,162.366 116.633,162.199 119.5,163C 116.854,163.497 114.187,163.664 111.5,163.5 Z"/></g>
<g><path style="opacity:0.016" fill="#070000" d="M 41.5,164.5 C 53.9933,163.34 66.6599,163.173 79.5,164C 66.8377,164.5 54.1711,164.667 41.5,164.5 Z"/></g>
<g><path style="opacity:0.008" fill="#150200" d="M 106.5,164.5 C 107.601,163.402 108.934,163.235 110.5,164C 109.207,164.49 107.873,164.657 106.5,164.5 Z"/></g>
<g><path style="opacity:0.016" fill="#0b0000" d="M 154.5,164.5 C 158.646,163.353 162.98,163.186 167.5,164C 163.179,164.499 158.846,164.666 154.5,164.5 Z"/></g>
<g><path style="opacity:0.016" fill="#0b0000" d="M 186.5,164.5 C 190.646,163.353 194.98,163.186 199.5,164C 195.179,164.499 190.846,164.666 186.5,164.5 Z"/></g>
<g><path style="opacity:0.015" fill="#0a0000" d="M 214.5,164.5 C 218.981,163.352 223.648,163.185 228.5,164C 223.845,164.499 219.179,164.666 214.5,164.5 Z"/></g>
<g><path style="opacity:0.016" fill="#060000" d="M 238.5,164.5 C 252.994,163.339 267.661,163.172 282.5,164C 267.837,164.5 253.17,164.667 238.5,164.5 Z"/></g>
<g><path style="opacity:0.016" fill="#100100" d="M 286.5,164.5 C 291.65,163.349 296.984,163.183 302.5,164C 297.177,164.499 291.844,164.666 286.5,164.5 Z"/></g>
<g><path style="opacity:0.015" fill="#090000" d="M 325.5,164.5 C 330.65,163.349 335.984,163.183 341.5,164C 336.177,164.499 330.844,164.666 325.5,164.5 Z"/></g>
<g><path style="opacity:0.969" fill="#211d1d" d="M 145.5,200.5 C 144.822,205.028 143.155,209.195 140.5,213C 142,214.5 143.5,216 145,217.5C 145.333,217.167 145.667,216.833 146,216.5C 147.878,218.043 149.378,219.876 150.5,222C 144.012,223.458 137.345,223.958 130.5,223.5C 130.167,222.167 129.833,222.167 129.5,223.5C 128.833,223.167 128.167,222.833 127.5,222.5C 126.833,221.167 126.167,221.167 125.5,222.5C 119.87,223.521 114.204,223.687 108.5,223C 104.205,222.102 100.372,220.269 97,217.5C 96.586,217.957 96.086,218.291 95.5,218.5C 92.4349,217.024 91.1015,214.857 91.5,212C 90.4479,210.881 89.2812,210.381 88,210.5C 86.5886,208.35 85.7553,206.016 85.5,203.5C 86.8333,202.5 86.8333,201.5 85.5,200.5C 85.5,196.5 85.5,192.5 85.5,188.5C 87.1565,185.346 87.9898,182.012 88,178.5C 89.093,176.651 90.4263,174.984 92,173.5C 92.3333,173.833 92.6667,174.167 93,174.5C 103.171,164.101 115.671,162.267 130.5,169C 133.63,171.128 136.463,173.628 139,176.5C 139.667,175.167 140.333,175.167 141,176.5C 143.806,179.243 144.64,182.41 143.5,186C 144.093,190.98 144.76,195.814 145.5,200.5 Z M 118.5,179.5 C 116.473,179.338 114.473,179.505 112.5,180C 116.798,180.267 120.798,181.434 124.5,183.5C 124.833,184.5 125.5,185.167 126.5,185.5C 126.66,187.153 127.326,188.486 128.5,189.5C 128.802,192.059 128.468,194.393 127.5,196.5C 124.814,192.627 121.481,189.794 117.5,188C 116.619,188.708 115.953,189.542 115.5,190.5C 113.596,190.738 112.262,191.738 111.5,193.5C 110.167,194.167 109.167,195.167 108.5,196.5C 105.833,197.833 105.833,199.167 108.5,200.5C 108.833,201.5 109.5,202.167 110.5,202.5C 111.5,204.167 112.833,205.5 114.5,206.5C 113.081,207.451 111.415,207.784 109.5,207.5C 108.035,206.263 106.368,205.263 104.5,204.5C 104.573,202.973 103.906,201.973 102.5,201.5C 102.737,200.209 102.404,199.209 101.5,198.5C 101.5,195.833 101.5,193.167 101.5,190.5C 102.537,189.07 103.204,187.403 103.5,185.5C 105.685,183.238 108.352,181.738 111.5,181C 110.552,180.517 109.552,180.351 108.5,180.5C 111.708,178.469 115.041,178.135 118.5,179.5 Z M 116.5,207.5 C 117.289,207.783 117.956,208.283 118.5,209C 115.304,209.805 112.304,209.638 109.5,208.5C 112.059,208.802 114.393,208.468 116.5,207.5 Z"/></g>
<g><path style="opacity:0.015" fill="#000000" d="M 39.5,165.5 C 40.6623,184.662 40.829,203.996 40,223.5C 39.5,204.17 39.3334,184.836 39.5,165.5 Z"/></g>
<g><path style="opacity:0.004" fill="#000000" d="M 81.5,165.5 C 82.647,169.646 82.8136,173.98 82,178.5C 81.501,174.179 81.3343,169.846 81.5,165.5 Z"/></g>
<g><path style="opacity:0.015" fill="#050202" d="M 152.5,165.5 C 153.661,178.994 153.827,192.66 153,206.5C 152.5,192.837 152.333,179.171 152.5,165.5 Z"/></g>
<g><path style="opacity:0.981" fill="#211e1e" d="M 170.5,206.5 C 170.5,207.167 170.833,207.5 171.5,207.5C 175.589,210.325 179.589,210.158 183.5,207C 182.724,205.23 182.89,203.397 184,201.5C 184.333,202.5 184.667,203.5 185,204.5C 186.443,191.574 186.943,178.574 186.5,165.5C 191.167,165.5 195.833,165.5 200.5,165.5C 200.5,178.5 200.5,191.5 200.5,204.5C 199.167,205.833 199.167,207.167 200.5,208.5C 199.424,214.001 196.424,218.001 191.5,220.5C 191.167,219.167 190.833,219.167 190.5,220.5C 189.508,220.328 188.842,220.662 188.5,221.5C 187.508,221.328 186.842,221.662 186.5,222.5C 181.213,223.342 175.88,223.676 170.5,223.5C 165.466,221.882 161.299,218.882 158,214.5C 157.667,214.833 157.333,215.167 157,215.5C 155.445,213.557 154.278,211.39 153.5,209C 154.475,194.536 154.809,180.036 154.5,165.5C 159.167,165.5 163.833,165.5 168.5,165.5C 168.333,178.504 168.5,191.504 169,204.5C 169.278,205.416 169.778,206.082 170.5,206.5 Z"/></g>
<g><path style="opacity:0.004" fill="#000000" d="M 201.5,204.5 C 201.333,191.496 201.5,178.496 202,165.5C 202.827,178.673 202.66,191.673 201.5,204.5 Z"/></g>
<g><path style="opacity:0.008" fill="#000000" d="M 229.5,165.5 C 230.662,184.662 230.829,203.996 230,223.5C 229.5,204.17 229.333,184.836 229.5,165.5 Z"/></g>
<g><path style="opacity:0.008" fill="#000000" d="M 343.5,165.5 C 344.833,166.167 344.833,166.167 343.5,165.5 Z"/></g>
<g><path style="opacity:0.016" fill="#3c3c3c" d="M 212.5,165.5 C 213.662,184.662 213.829,203.996 213,223.5C 212.5,204.17 212.333,184.836 212.5,165.5 Z"/></g>
<g><path style="opacity:0.925" fill="#221e1e" d="M 214.5,165.5 C 219.167,165.5 223.833,165.5 228.5,165.5C 228.5,184.833 228.5,204.167 228.5,223.5C 223.833,223.5 219.167,223.5 214.5,223.5C 214.5,204.167 214.5,184.833 214.5,165.5 Z"/></g>
<g><path style="opacity:0.016" fill="#3b0100" d="M 236.5,165.5 C 237.647,169.646 237.814,173.98 237,178.5C 236.501,174.179 236.334,169.846 236.5,165.5 Z"/></g>
<g><path style="opacity:0.95" fill="#221f1f" d="M 56.5,180.5 C 56.5,180.833 56.5,181.167 56.5,181.5C 55.5655,182.568 55.2322,183.901 55.5,185.5C 55.5,185.833 55.5,186.167 55.5,186.5C 61.31,187.49 67.31,187.823 73.5,187.5C 73.5,192.167 73.5,196.833 73.5,201.5C 67.0698,201.167 61.4032,201.5 56.5,202.5C 56.5,202.833 56.5,203.167 56.5,203.5C 55.5655,204.568 55.2322,205.901 55.5,207.5C 55.5,207.833 55.5,208.167 55.5,208.5C 63.6499,209.493 71.9832,209.826 80.5,209.5C 80.5,214.167 80.5,218.833 80.5,223.5C 67.5,223.5 54.5,223.5 41.5,223.5C 41.5,204.167 41.5,184.833 41.5,165.5C 54.5,165.5 67.5,165.5 80.5,165.5C 80.5,170.167 80.5,174.833 80.5,179.5C 71.7454,179.168 63.7454,179.501 56.5,180.5 Z"/></g>
<g><path style="opacity:0.971" fill="#211e1e" d="M 268.5,180.5 C 268.5,180.833 268.5,181.167 268.5,181.5C 267.504,195.323 267.171,209.323 267.5,223.5C 262.833,223.5 258.167,223.5 253.5,223.5C 253.333,167.504 252.833,167.504 252,223.5C 251.5,209.504 251.333,195.504 251.5,181.5C 247.154,181.666 242.821,181.499 238.5,181C 258.489,180.168 258.489,179.668 238.5,179.5C 238.5,174.833 238.5,170.167 238.5,165.5C 253.167,165.5 267.833,165.5 282.5,165.5C 282.5,170.167 282.5,174.833 282.5,179.5C 277.063,179.166 272.396,179.499 268.5,180.5 Z"/></g>
<g><path style="opacity:0.983" fill="#1f1c1c" d="M 343.5,166.5 C 343.672,167.492 343.338,168.158 342.5,168.5C 342.167,167.167 341.833,167.167 341.5,168.5C 340.833,168.5 340.5,168.833 340.5,169.5C 339.167,169.833 339.167,170.167 340.5,170.5C 339.66,172.853 338.326,174.853 336.5,176.5C 336.167,175.167 335.833,175.167 335.5,176.5C 334.167,176.833 334.167,177.167 335.5,177.5C 333.938,181.392 331.605,184.725 328.5,187.5C 328.167,186.167 327.833,186.167 327.5,187.5C 326.167,187.833 326.167,188.167 327.5,188.5C 327.573,190.027 326.906,191.027 325.5,191.5C 325.167,190.167 324.833,190.167 324.5,191.5C 323.167,191.833 323.167,192.167 324.5,192.5C 323.715,202.454 323.215,212.454 323,222.5C 322.667,213.833 322.333,205.167 322,196.5C 321.5,205.494 321.334,214.494 321.5,223.5C 316.833,223.5 312.167,223.5 307.5,223.5C 307.445,214.124 307.445,204.957 307.5,196C 306.747,194.513 305.914,194.346 305,195.5C 303.383,194.464 303.216,193.297 304.5,192C 300.988,189.975 297.988,186.808 295.5,182.5C 296.855,181.325 296.688,180.325 295,179.5C 294.667,179.833 294.333,180.167 294,180.5C 291.911,178.543 291.077,176.376 291.5,174C 290.448,172.881 289.281,172.381 288,172.5C 288.979,170.721 288.646,169.055 287,167.5C 286.683,169.301 286.016,169.634 285,168.5C 284.667,171.833 284.333,175.167 284,178.5C 283.333,174.167 283.333,169.833 284,165.5C 289.964,165.422 296.131,165.589 302.5,166C 303.253,167.487 304.086,167.654 305,166.5C 306.617,167.536 306.784,168.703 305.5,170C 306.552,171.119 307.719,171.619 309,171.5C 310.978,173.746 311.978,176.079 312,178.5C 313.566,179.061 314.899,178.394 316,176.5C 317.944,172.89 320.277,169.557 323,166.5C 329.556,165.257 336.39,165.257 343.5,166.5 Z"/></g>
<g><path style="opacity:0.012" fill="#000000" d="M 341.5,168.5 C 341.833,168.5 342.167,168.5 342.5,168.5C 342.315,169.17 341.981,169.17 341.5,168.5 Z"/></g>
<g><path style="opacity:0.016" fill="#3e0000" d="M 340.5,169.5 C 340.833,169.5 341.167,169.5 341.5,169.5C 341.315,170.17 340.981,170.17 340.5,169.5 Z"/></g>
<g><path style="opacity:0.012" fill="#000000" d="M 335.5,176.5 C 335.833,176.5 336.167,176.5 336.5,176.5C 336.315,177.17 335.981,177.17 335.5,176.5 Z"/></g>
<g><path style="opacity:0.016" fill="#2b0601" d="M 56.5,180.5 C 64.1739,180.334 71.8406,180.5 79.5,181C 72.1742,181.5 64.8409,181.666 57.5,181.5C 57.5,182.833 57.5,184.167 57.5,185.5C 62.8437,185.334 68.1771,185.501 73.5,186C 67.5092,186.499 61.5092,186.666 55.5,186.5C 55.5,186.167 55.5,185.833 55.5,185.5C 56.4345,184.432 56.7678,183.099 56.5,181.5C 56.5,181.167 56.5,180.833 56.5,180.5 Z"/></g>
<g><path style="opacity:0.016" fill="#330400" d="M 268.5,180.5 C 273.179,180.334 277.845,180.501 282.5,181C 278.179,181.499 273.846,181.666 269.5,181.5C 269.167,237.5 268.833,237.5 268.5,181.5C 268.5,181.167 268.5,180.833 268.5,180.5 Z"/></g>
<g><path style="opacity:0.016" fill="#260500" d="M 85.5,188.5 C 85.1667,188.5 84.8333,188.5 84.5,188.5C 84.8333,184.5 85.1667,184.5 85.5,188.5 Z"/></g>
<g><path style="opacity:0.014" fill="#000000" d="M 74.5,187.5 C 75.6484,191.981 75.8151,196.648 75,201.5C 74.5008,196.845 74.3342,192.179 74.5,187.5 Z"/></g>
<g><path style="opacity:0.016" fill="#000000" d="M 327.5,187.5 C 327.833,187.5 328.167,187.5 328.5,187.5C 328.315,188.17 327.981,188.17 327.5,187.5 Z"/></g>
<g><path style="opacity:0.016" fill="#2e0500" d="M 145.5,200.5 C 145.334,196.154 145.501,191.821 146,187.5C 146.814,192.02 146.647,196.354 145.5,200.5 Z"/></g>
<g><path style="opacity:0.016" fill="#000000" d="M 324.5,191.5 C 324.833,191.5 325.167,191.5 325.5,191.5C 325.315,192.17 324.981,192.17 324.5,191.5 Z"/></g>
<g><path style="opacity:0.01" fill="#0b0000" d="M 84.5,188.5 C 84.6653,192.182 84.4986,195.848 84,199.5C 83.1901,195.642 83.3567,191.976 84.5,188.5 Z"/></g>
<g><path style="opacity:0.016" fill="#260500" d="M 85.5,200.5 C 85.5,201.5 85.5,202.5 85.5,203.5C 84.1667,202.5 84.1667,201.5 85.5,200.5 Z"/></g>
<g><path style="opacity:0.016" fill="#2f0601" d="M 56.5,202.5 C 62.1764,202.334 67.8431,202.501 73.5,203C 68.1771,203.499 62.8437,203.666 57.5,203.5C 57.5,204.833 57.5,206.167 57.5,207.5C 64.8409,207.334 72.1742,207.5 79.5,208C 71.5069,208.5 63.5069,208.666 55.5,208.5C 55.5,208.167 55.5,207.833 55.5,207.5C 56.4345,206.432 56.7678,205.099 56.5,203.5C 56.5,203.167 56.5,202.833 56.5,202.5 Z"/></g>
<g><path style="opacity:0.016" fill="#240300" d="M 171.5,207.5 C 170.833,207.5 170.5,207.167 170.5,206.5C 171.053,204.343 172.053,204.51 173.5,207C 172.906,207.464 172.239,207.631 171.5,207.5 Z"/></g>
<g><path style="opacity:0.01" fill="#170200" d="M 200.5,204.5 C 200.833,204.5 201.167,204.5 201.5,204.5C 201.768,206.099 201.434,207.432 200.5,208.5C 200.5,207.167 200.5,205.833 200.5,204.5 Z"/></g>
<g><path style="opacity:0.007" fill="#1c0200" d="M 114.5,206.5 C 114.833,206.5 115.167,206.5 115.5,206.5C 115.5,207.167 115.833,207.5 116.5,207.5C 114.393,208.468 112.059,208.802 109.5,208.5C 109.5,208.167 109.5,207.833 109.5,207.5C 111.415,207.784 113.081,207.451 114.5,206.5 Z"/></g>
<g><path style="opacity:0.004" fill="#000000" d="M 81.5,209.5 C 82.647,213.646 82.8136,217.98 82,222.5C 81.501,218.179 81.3343,213.846 81.5,209.5 Z"/></g>
<g><path style="opacity:0.012" fill="#000000" d="M 190.5,220.5 C 190.833,220.5 191.167,220.5 191.5,220.5C 191.315,221.17 190.981,221.17 190.5,220.5 Z"/></g>
<g><path style="opacity:0.008" fill="#000000" d="M 188.5,222.5 C 188.5,222.167 188.5,221.833 188.5,221.5C 189.167,221.5 189.833,221.5 190.5,221.5C 190.158,222.338 189.492,222.672 188.5,222.5 Z"/></g>
<g><path style="opacity:0.012" fill="#000000" d="M 125.5,222.5 C 126.167,222.5 126.833,222.5 127.5,222.5C 126.833,223.833 126.167,223.833 125.5,222.5 Z"/></g>
<g><path style="opacity:0.008" fill="#000000" d="M 186.5,223.5 C 186.5,223.167 186.5,222.833 186.5,222.5C 187.167,222.5 187.833,222.5 188.5,222.5C 188.158,223.338 187.492,223.672 186.5,223.5 Z"/></g>
<g><path style="opacity:0.004" fill="#000000" d="M 129.5,223.5 C 129.833,223.5 130.167,223.5 130.5,223.5C 130.5,223.833 130.5,224.167 130.5,224.5C 130.167,224.167 129.833,223.833 129.5,223.5 Z"/></g>
<g><path style="opacity:0.016" fill="#260500" d="M 170.5,223.5 C 170.5,223.833 170.5,224.167 170.5,224.5C 166.5,224.167 166.5,223.833 170.5,223.5 Z"/></g>
<g><path style="opacity:0.008" fill="#1e0300" d="M 186.5,223.5 C 186.103,224.525 185.437,224.692 184.5,224C 185.094,223.536 185.761,223.369 186.5,223.5 Z"/></g>
<g><path style="opacity:0.011" fill="#000000" d="M 41.5,225.5 C 53.9933,224.34 66.6599,224.173 79.5,225C 66.8377,225.5 54.1711,225.667 41.5,225.5 Z"/></g>
<g><path style="opacity:0.011" fill="#000000" d="M 130.5,224.5 C 136.509,224.334 142.509,224.501 148.5,225C 142.319,225.819 136.319,225.653 130.5,224.5 Z"/></g>
<g><path style="opacity:0.01" fill="#180200" d="M 170.5,224.5 C 174.846,224.334 179.179,224.501 183.5,225C 178.98,225.814 174.646,225.647 170.5,224.5 Z"/></g>
<g><path style="opacity:0.011" fill="#000000" d="M 214.5,225.5 C 218.646,224.353 222.98,224.186 227.5,225C 223.179,225.499 218.846,225.666 214.5,225.5 Z"/></g>
<g><path style="opacity:0.01" fill="#000000" d="M 253.5,225.5 C 257.981,224.352 262.648,224.185 267.5,225C 262.845,225.499 258.179,225.666 253.5,225.5 Z"/></g>
<g><path style="opacity:0.011" fill="#000000" d="M 307.5,225.5 C 311.646,224.353 315.98,224.186 320.5,225C 316.179,225.499 311.846,225.666 307.5,225.5 Z"/></g>
</svg>
