<svg width="129" height="49" viewBox="0 0 129 49" fill="none" xmlns="http://www.w3.org/2000/svg">
<path d="M14.4375 5.20945L19.3353 0V19.8916H14.4375V5.20945Z" fill="#004F9F"/>
<path d="M11.533 6.43359H5.86719V19.8947H11.533V6.43359Z" fill="#004F9F"/>
<path d="M0 22.7412H19.3351V42.1876L14.4373 37.2898V27.5722H5.22058L0 22.7412Z" fill="#004F9F"/>
<path d="M11.9114 30.0879H7.01367V34.9834H11.9114V30.0879Z" fill="#004F9F"/>
<path d="M26.4368 37.4345L21.5391 42.6217V22.7412H26.4368V37.4345Z" fill="#EF7D00"/>
<path d="M40.8964 19.8913H21.5391V0.456055L26.4368 5.35383V15.0715H35.6536L40.8964 19.8913Z" fill="#EF7D00"/>
<path d="M34.0404 7.6582H29.1426V12.5538H34.0404V7.6582Z" fill="#EF7D00"/>
<path d="M33.6614 27.8391H40.1064V21.9951H42.3772V36.9445H40.1064V29.9651H33.6614V36.9445H31.3906V21.9951H33.6614V27.8391Z" fill="#004F9F"/>
<path d="M53.0291 24.1212H47.7973V27.7166H52.8398V29.8316H47.7973V36.9445H45.5488V21.9951H53.0291V24.1212Z" fill="#004F9F"/>
<path d="M68.647 29.1642H74.8472V29.6539C74.8594 30.6589 74.7244 31.6602 74.4465 32.626C74.1713 33.4618 73.7196 34.2287 73.1218 34.8745C71.7415 36.4552 69.9828 37.2343 67.8233 37.2343C65.6639 37.2343 63.9496 36.4663 62.458 34.9747C61.7357 34.2623 61.1659 33.4104 60.7831 32.4708C60.4004 31.5312 60.2128 30.5236 60.2318 29.5092C60.2318 27.3275 60.9776 25.4908 62.4914 23.9881C63.2089 23.2501 64.0699 22.6669 65.0213 22.2744C65.9728 21.882 66.9946 21.6886 68.0237 21.7062C69.1612 21.6964 70.2867 21.9397 71.3186 22.4186C72.287 22.8972 73.2331 23.6764 74.1682 24.7339L72.5653 26.2923C71.3408 24.6448 69.8381 23.8434 68.0793 23.8434C66.3206 23.8434 65.1629 24.3777 64.1055 25.4686C63.048 26.5594 62.4914 27.8841 62.4914 29.5092C62.4914 31.1344 63.0814 32.5369 64.2836 33.6167C65.4858 34.6964 66.5989 35.1194 67.9235 35.1194C69.0166 35.1219 70.0731 34.7262 70.8956 34.0063C71.7972 33.2382 72.287 32.3366 72.376 31.2791H68.647V29.1642Z" fill="#004F9F"/>
<path d="M82.3382 30.5885L86.9799 36.9445H84.2194L79.945 30.8222H79.5442V36.9445H77.2734V21.9951H79.9227C81.8929 21.9951 83.3177 22.3625 84.1971 23.1082C84.6634 23.5157 85.036 24.019 85.2896 24.5839C85.5433 25.1487 85.6718 25.7617 85.6664 26.3809C85.6793 27.3722 85.3534 28.3383 84.7425 29.1192C84.1394 29.8771 83.2878 30.3975 82.3382 30.5885ZM79.5442 28.8631H80.2566C82.3938 28.8631 83.4513 28.0394 83.4513 26.4142C83.4513 24.7891 82.4272 24.1212 80.3457 24.1212H79.5442V28.8631Z" fill="#004F9F"/>
<path d="M87.749 29.3975C87.7329 28.3858 87.9286 27.3819 88.3235 26.4502C88.7184 25.5186 89.3038 24.6798 90.042 23.9877C90.7705 23.256 91.6385 22.678 92.5945 22.2879C93.5506 21.8979 94.5752 21.7037 95.6077 21.7169C97.6628 21.7315 99.6294 22.5552 101.082 24.0094C102.534 25.4637 103.355 27.4315 103.366 29.4866C103.386 30.5113 103.191 31.5288 102.794 32.4738C102.397 33.4189 101.807 34.2705 101.062 34.9743C99.6302 36.3719 97.7209 37.1735 95.7206 37.2169C93.7202 37.2603 91.778 36.5423 90.2869 35.2081C88.5838 33.7499 87.749 31.813 87.749 29.3975ZM90.0086 29.4309C90.0086 31.0784 90.5763 32.4475 91.6894 33.505C92.1851 34.0163 92.7785 34.4227 93.4344 34.7C94.0904 34.9773 94.7954 35.1198 95.5075 35.119C96.2452 35.1298 96.9774 34.9914 97.6603 34.7121C98.3432 34.4328 98.9626 34.0185 99.4814 33.4939C100.007 32.964 100.421 32.3347 100.7 31.6428C100.979 30.9509 101.117 30.2103 101.107 29.4643C101.107 27.8837 100.572 26.5479 99.4925 25.4682C98.4473 24.4275 97.0325 23.8432 95.5576 23.8432C94.0827 23.8432 92.6678 24.4275 91.6227 25.4682C91.0988 25.9847 90.6856 26.6023 90.4081 27.2836C90.1306 27.9648 89.9947 28.6955 90.0086 29.4309Z" fill="#004F9F"/>
<path d="M108.085 21.9951V31.0003C108.085 32.2804 108.286 33.2377 108.709 33.8166C109.321 34.6737 110.222 35.1189 111.358 35.1189C112.493 35.1189 113.384 34.6737 114.007 33.8166C114.419 33.2489 114.619 32.3027 114.619 31.0003V21.9951H116.89V31.6237C116.89 33.1932 116.4 34.4956 115.41 35.5197C114.354 36.5945 112.914 37.2064 111.407 37.221C109.901 37.2356 108.45 36.6518 107.373 35.5976L107.295 35.5197C106.304 34.4956 105.814 33.1932 105.814 31.6237V21.9951H108.085Z" fill="#004F9F"/>
<path d="M122.334 30.8779V36.9445H120.074V21.9951H122.623C123.892 21.9951 124.838 22.0842 125.473 22.2511C126.115 22.4318 126.701 22.7727 127.176 23.2418C128.033 24.0767 128.456 25.1341 128.456 26.4142C128.456 27.6943 128 28.8631 127.087 29.6757C126.174 30.4883 124.927 30.8779 123.38 30.8779H122.334ZM122.334 28.7963H123.18C125.239 28.7963 126.285 27.9949 126.285 26.4031C126.285 24.8113 125.217 24.0767 123.08 24.0767H122.334V28.7963Z" fill="#004F9F"/>
<path d="M31.8809 48.7441V43.1561H33.0608C33.5082 43.1451 33.9547 43.2014 34.3854 43.3231C34.7392 43.4358 35.0653 43.6217 35.3427 43.8686C35.6238 44.1358 35.8454 44.4593 35.9931 44.818C36.1407 45.1767 36.2112 45.5624 36.1998 45.9501C36.2154 46.3425 36.1424 46.7334 35.9864 47.0937C35.8303 47.4541 35.5951 47.7746 35.2982 48.0317C35.021 48.2756 34.6999 48.4645 34.352 48.5882C33.9258 48.7124 33.4819 48.765 33.0385 48.7441H31.8809ZM32.7268 47.9426H33.1053C33.421 47.9564 33.7367 47.9188 34.0403 47.8313C34.2968 47.7421 34.5345 47.6062 34.7416 47.4306C35.1352 47.0362 35.3562 46.5017 35.3562 45.9445C35.3562 45.3874 35.1352 44.8529 34.7416 44.4585C34.3743 44.1246 33.8177 43.9465 33.1053 43.9465H32.7268V47.9426Z" fill="#004F9F"/>
<path d="M38.0254 45.2263H38.8491V45.5268C38.9648 45.4075 39.0915 45.2995 39.2276 45.204C39.3621 45.1505 39.5058 45.124 39.6506 45.1261C39.891 45.1295 40.1258 45.1988 40.3296 45.3265L39.9622 46.0834C39.8297 45.9843 39.671 45.9262 39.5059 45.9164C39.0717 45.9164 38.8491 46.2392 38.8491 46.9182V48.7438H38.0254V45.2263Z" fill="#004F9F"/>
<path d="M44.8813 47.1745H42.3545C42.3558 47.4283 42.4555 47.6718 42.6328 47.8535C42.7153 47.9375 42.8142 48.0035 42.9234 48.0476C43.0325 48.0916 43.1496 48.1127 43.2673 48.1095C43.4499 48.1259 43.6322 48.0744 43.7793 47.9648C43.9543 47.8106 44.1045 47.6304 44.2246 47.4305L44.9147 47.8201C44.8124 47.9849 44.697 48.1413 44.5696 48.2876C44.4606 48.4063 44.3372 48.511 44.2023 48.5993C44.0612 48.6784 43.9119 48.7418 43.757 48.7885C43.5923 48.8235 43.4245 48.8422 43.2561 48.8442C43.0202 48.8555 42.7846 48.8156 42.5656 48.7272C42.3465 48.6388 42.1492 48.504 41.9872 48.3321C41.6644 47.9982 41.5197 47.5418 41.5197 46.9741C41.4872 46.4824 41.6514 45.998 41.976 45.6272C42.3074 45.3108 42.7479 45.1343 43.206 45.1343C43.6642 45.1343 44.1047 45.3108 44.4361 45.6272C44.7255 45.95 44.8813 46.3953 44.8813 46.9741V47.1745ZM44.0353 46.4955C44.0002 46.3069 43.8968 46.1378 43.7448 46.0208C43.5928 45.9037 43.4029 45.8468 43.2116 45.861L42.9445 45.8944L42.6996 46.028C42.6289 46.0838 42.5686 46.1516 42.5215 46.2283C42.4796 46.3153 42.4425 46.4045 42.4102 46.4955H44.0353Z" fill="#004F9F"/>
<path d="M49.2788 45.2262H50.1025V48.7437H49.2788V48.3652C49.1401 48.5133 48.9731 48.632 48.7876 48.7142C48.6021 48.7964 48.402 48.8405 48.1991 48.8439C47.9724 48.8442 47.7482 48.7968 47.5411 48.7048C47.334 48.6127 47.1485 48.4781 46.9969 48.3096C46.6761 47.9398 46.5053 47.4632 46.5183 46.9738C46.5116 46.4854 46.6816 46.0111 46.9969 45.6381C47.1466 45.4716 47.3306 45.3397 47.5362 45.2513C47.7419 45.1629 47.9642 45.1201 48.188 45.126C48.3942 45.1314 48.5972 45.1785 48.7848 45.2646C48.9723 45.3507 49.1403 45.474 49.2788 45.6269V45.2262ZM47.3642 46.9738C47.3549 47.2711 47.4494 47.5623 47.6314 47.7975C47.7231 47.8963 47.8342 47.9751 47.9577 48.029C48.0813 48.0829 48.2146 48.1107 48.3494 48.1107C48.4841 48.1107 48.6175 48.0829 48.741 48.029C48.8646 47.9751 48.9756 47.8963 49.0673 47.7975C49.2532 47.573 49.3485 47.2872 49.3345 46.9961C49.3438 46.6988 49.2494 46.4076 49.0673 46.1724C48.977 46.0675 48.8638 45.9849 48.7364 45.9308C48.609 45.8768 48.4708 45.8528 48.3327 45.8607C48.1997 45.8554 48.0673 45.8808 47.9457 45.9348C47.8241 45.9889 47.7166 46.0702 47.6314 46.1724C47.4501 46.3994 47.3554 46.6834 47.3642 46.9738Z" fill="#004F9F"/>
<path d="M52.0605 45.2265H52.862V45.5493C52.9851 45.4226 53.1192 45.3071 53.2627 45.2042C53.4088 45.1505 53.5635 45.1241 53.7191 45.1263C53.9061 45.1223 54.091 45.1675 54.255 45.2574C54.4191 45.3473 54.5567 45.4786 54.6541 45.6383C54.7706 45.4737 54.9262 45.3407 55.1069 45.2513C55.2877 45.1619 55.4878 45.1189 55.6893 45.1263C56.5019 45.1263 56.8804 45.6049 56.8804 46.5511V48.744H56.0567V46.796C56.076 46.5458 56.0379 46.2946 55.9454 46.0613C55.9005 45.9946 55.8387 45.9409 55.7664 45.9057C55.6941 45.8706 55.6137 45.8551 55.5335 45.861C55.435 45.8565 55.337 45.8777 55.2491 45.9226C55.1613 45.9675 55.0867 46.0345 55.0326 46.117C54.9239 46.3696 54.8744 46.6438 54.8879 46.9184V48.744H54.0642V46.796C54.0642 46.1726 53.8861 45.861 53.5187 45.861C53.4215 45.855 53.3245 45.8756 53.2382 45.9207C53.1519 45.9659 53.0795 46.0337 53.029 46.117C52.8967 46.3623 52.8387 46.6408 52.862 46.9184V48.744H52.0605V45.2265Z" fill="#004F9F"/>
<path d="M60.8887 45.8274L60.2097 46.1724C60.0984 45.9498 59.976 45.8385 59.8201 45.8385C59.7448 45.8509 59.6749 45.8858 59.6198 45.9387C59.5955 45.9611 59.5768 45.9889 59.5652 46.0198C59.5536 46.0507 59.5494 46.0839 59.553 46.1168C59.553 46.2392 59.6977 46.3951 60.0094 46.5175C60.3325 46.6305 60.631 46.8043 60.8887 47.0295C61.0341 47.2082 61.1093 47.4338 61.1002 47.664C61.1061 47.8235 61.0761 47.9823 61.0125 48.1287C60.949 48.2751 60.8534 48.4054 60.7329 48.51C60.5986 48.6258 60.4427 48.714 60.2742 48.7695C60.1058 48.8249 59.928 48.8465 59.7511 48.8331C59.5743 48.8196 59.4018 48.7714 59.2436 48.6911C59.0855 48.6108 58.9447 48.5001 58.8295 48.3653C58.7285 48.2507 58.6493 48.1187 58.5957 47.9757L59.297 47.6529C59.357 47.767 59.4278 47.8751 59.5085 47.9757C59.6062 48.0633 59.7334 48.111 59.8647 48.1093C60.1318 48.1093 60.2765 47.9757 60.2765 47.7419C60.2696 47.6535 60.2377 47.5689 60.1844 47.4979C60.1312 47.427 60.0589 47.3726 59.976 47.3412L59.72 47.2076L59.4639 47.1075C59.2799 47.0147 59.111 46.8946 58.963 46.7513C58.8379 46.585 58.7749 46.3803 58.7849 46.1724C58.7842 46.0336 58.8114 45.896 58.865 45.7679C58.9185 45.6397 58.9973 45.5237 59.0966 45.4266C59.1997 45.3268 59.3218 45.2487 59.4556 45.1971C59.5895 45.1455 59.7324 45.1213 59.8758 45.1261C60.3322 45.1261 60.6661 45.3487 60.8887 45.8274Z" fill="#004F9F"/>
<path d="M65.9414 48.7438L67.1102 42.7329L69.0359 47.0853L71.0061 42.7329L72.0636 48.7438H71.2065L70.6611 45.371L69.0136 48.9998L67.4107 45.371L66.7985 48.7438H65.9414Z" fill="#004F9F"/>
<path d="M76.6164 45.2264H77.4401V48.7439H76.6164V48.3655C76.4777 48.5135 76.3106 48.6322 76.1251 48.7144C75.9396 48.7967 75.7395 48.8408 75.5366 48.8441C75.3094 48.8481 75.0841 48.8023 74.8764 48.71C74.6687 48.6177 74.4838 48.4811 74.3345 48.3098C74.1706 48.1297 74.044 47.9189 73.9618 47.6897C73.8797 47.4605 73.8437 47.2173 73.8558 46.9741C73.8373 46.4838 74.0087 46.0052 74.3345 45.6383C74.4715 45.4872 74.6371 45.3646 74.8217 45.2777C75.0063 45.1908 75.2063 45.1413 75.4101 45.132C75.6139 45.1227 75.8175 45.1538 76.0093 45.2235C76.201 45.2932 76.3771 45.4001 76.5273 45.5381L76.6164 45.6272V45.2264ZM74.6795 46.9741C74.6694 47.2733 74.7683 47.566 74.9578 47.7978C75.0485 47.8963 75.1587 47.9749 75.2813 48.0287C75.4039 48.0824 75.5363 48.1102 75.6702 48.1102C75.8041 48.1102 75.9366 48.0824 76.0592 48.0287C76.1818 47.9749 76.2919 47.8963 76.3826 47.7978C76.5795 47.5783 76.6833 47.2909 76.672 46.9963C76.6856 46.6947 76.5819 46.3995 76.3826 46.1726C76.2952 46.0702 76.1856 45.9889 76.0622 45.9349C75.9388 45.8809 75.8048 45.8556 75.6702 45.8609C75.5354 45.8539 75.4009 45.8784 75.2772 45.9325C75.1535 45.9867 75.0442 46.0688 74.9578 46.1726C74.7689 46.396 74.6697 46.6816 74.6795 46.9741Z" fill="#004F9F"/>
<path d="M81.9702 42.6216H82.794V48.7438H81.9702V48.3653C81.8327 48.5149 81.6659 48.6347 81.4802 48.717C81.2944 48.7993 81.0937 48.8426 80.8905 48.844C80.6636 48.8457 80.439 48.799 80.2316 48.7068C80.0243 48.6147 79.8391 48.4793 79.6883 48.3097C79.3675 47.9399 79.1967 47.4633 79.2097 46.9739C79.1968 46.4912 79.3679 46.0217 79.6883 45.6604C79.8194 45.5077 79.9795 45.3825 80.1592 45.2919C80.339 45.2014 80.5349 45.1473 80.7356 45.1328C80.9364 45.1183 81.138 45.1437 81.3289 45.2075C81.5198 45.2713 81.6961 45.3723 81.8478 45.5046C81.8913 45.5426 81.9323 45.5835 81.9702 45.627V42.6216ZM80.0557 46.9739C80.0414 47.2719 80.1364 47.5648 80.3228 47.7976C80.411 47.8962 80.5191 47.975 80.64 48.0287C80.7609 48.0825 80.8918 48.1099 81.0241 48.1093C81.1605 48.1163 81.2967 48.0919 81.4222 48.0378C81.5477 47.9838 81.659 47.9016 81.7476 47.7976C81.9365 47.5742 82.0357 47.2886 82.0259 46.9962C82.036 46.697 81.9371 46.4043 81.7476 46.1725C81.6569 46.074 81.5468 45.9954 81.4242 45.9416C81.3015 45.8878 81.1691 45.86 81.0352 45.86C80.9013 45.86 80.7689 45.8878 80.6463 45.9416C80.5236 45.9954 80.4135 46.074 80.3228 46.1725C80.1369 46.397 80.0417 46.6828 80.0557 46.9739Z" fill="#004F9F"/>
<path d="M87.9484 47.1742H85.4216C85.4422 47.4258 85.5437 47.6641 85.711 47.8532C85.7935 47.9403 85.894 48.0083 86.0055 48.0526C86.117 48.0968 86.2369 48.1161 86.3566 48.1092C86.5318 48.1201 86.7053 48.0689 86.8464 47.9645C87.0247 47.8105 87.1786 47.6304 87.3028 47.4302L87.9818 47.8198C87.8806 47.9826 87.7691 48.1388 87.6479 48.2873C87.5349 48.4062 87.4078 48.5109 87.2694 48.599C87.1345 48.6825 86.9883 48.7462 86.8353 48.7882C86.6667 48.8226 86.4953 48.8413 86.3232 48.8439C86.0873 48.8552 85.8517 48.8153 85.6327 48.7269C85.4136 48.6385 85.2163 48.5037 85.0543 48.3318C84.7539 47.9455 84.5899 47.4706 84.5879 46.9813C84.5859 46.4919 84.746 46.0157 85.0431 45.6269C85.2036 45.463 85.3962 45.334 85.6088 45.2478C85.8214 45.1616 86.0494 45.1202 86.2787 45.126C86.5072 45.113 86.7358 45.1512 86.9476 45.2379C87.1595 45.3246 87.3493 45.4575 87.5032 45.6269C87.8226 46.0006 87.986 46.4829 87.9596 46.9738L87.9484 47.1742ZM87.1247 46.4952C86.9911 46.0833 86.7351 45.8607 86.301 45.8607L86.0227 45.8941C85.939 45.9276 85.8603 45.9726 85.7889 46.0277C85.7155 46.0805 85.6547 46.1489 85.6108 46.228C85.5575 46.3124 85.5127 46.4019 85.4773 46.4952H87.1247Z" fill="#004F9F"/>
<path d="M93.9696 46.4843V48.744H93.1348V43.1561H94.0809C94.4356 43.1464 94.7903 43.1763 95.1384 43.2451C95.4699 43.3506 95.7585 43.5604 95.9611 43.8432C96.1637 44.1261 96.2694 44.4668 96.2627 44.8146C96.2711 45.042 96.2296 45.2684 96.1411 45.478C96.0526 45.6876 95.9194 45.8753 95.7506 46.0279C95.356 46.3409 94.8626 46.5027 94.3592 46.4843H93.9696ZM93.9696 45.694H94.2813C95.0493 45.694 95.4501 45.3823 95.4501 44.8035C95.4501 44.2247 95.0494 43.9464 94.2479 43.9464H93.9696V45.694Z" fill="#004F9F"/>
<path d="M97.522 46.9515C97.5168 46.71 97.5627 46.4701 97.6567 46.2476C97.7507 46.0251 97.8907 45.8249 98.0675 45.6603C98.4276 45.3173 98.9059 45.126 99.4032 45.126C99.9006 45.126 100.379 45.3173 100.739 45.6603C101.086 46.014 101.28 46.4896 101.28 46.9849C101.28 47.4802 101.086 47.9558 100.739 48.3095C100.371 48.6549 99.8853 48.8461 99.381 48.8438C99.1336 48.8454 98.8884 48.7973 98.66 48.7023C98.4315 48.6073 98.2245 48.4675 98.0511 48.291C97.8777 48.1145 97.7416 47.905 97.6507 47.6749C97.5598 47.4448 97.5161 47.1988 97.522 46.9515ZM98.3457 46.9738C98.3322 47.2754 98.4359 47.5706 98.6352 47.7975C98.7295 47.9064 98.8483 47.9914 98.9818 48.0455C99.1153 48.0997 99.2597 48.1215 99.4032 48.1092C99.5432 48.1188 99.6835 48.0957 99.813 48.0416C99.9425 47.9875 100.058 47.9039 100.149 47.7975C100.349 47.5792 100.457 47.292 100.45 46.996C100.457 46.8457 100.434 46.6954 100.382 46.554C100.33 46.4126 100.251 46.2828 100.149 46.1723C100.058 46.0659 99.9425 45.9823 99.813 45.9282C99.6835 45.8741 99.5432 45.851 99.4032 45.8606C99.2604 45.8548 99.1179 45.8796 98.9854 45.9333C98.853 45.9871 98.7335 46.0686 98.6352 46.1723C98.4383 46.3918 98.3345 46.6792 98.3457 46.9738Z" fill="#004F9F"/>
<path d="M105.102 45.8278L104.423 46.1728C104.334 45.9502 104.189 45.8389 104.045 45.8389C103.969 45.8491 103.898 45.8843 103.844 45.9391C103.819 45.9609 103.798 45.9883 103.785 46.0192C103.771 46.05 103.765 46.0835 103.766 46.1172C103.766 46.2396 103.933 46.3955 104.245 46.5179C104.561 46.6312 104.853 46.8051 105.102 47.0299C105.185 47.1123 105.249 47.2117 105.289 47.3213C105.33 47.4309 105.346 47.548 105.336 47.6644C105.341 47.8249 105.31 47.9845 105.244 48.1311C105.179 48.2777 105.081 48.4074 104.958 48.5104C104.717 48.7293 104.403 48.8487 104.078 48.8443C103.499 48.8443 103.076 48.5438 102.82 47.9761L103.51 47.6533C103.574 47.7677 103.649 47.8757 103.733 47.9761C103.835 48.0636 103.966 48.111 104.1 48.1097C104.368 48.1097 104.501 47.9761 104.501 47.7423C104.49 47.6538 104.455 47.57 104.4 47.4996C104.345 47.4291 104.272 47.3746 104.189 47.3416L103.933 47.208L103.7 47.1079C103.514 47.0125 103.342 46.8927 103.188 46.7517C103.064 46.5841 102.998 46.3811 102.998 46.1728C102.998 46.034 103.025 45.8964 103.078 45.7683C103.132 45.6401 103.211 45.5241 103.31 45.427C103.416 45.3274 103.54 45.2495 103.675 45.1979C103.811 45.1464 103.955 45.1221 104.1 45.1265C104.557 45.1265 104.88 45.3491 105.102 45.8278Z" fill="#004F9F"/>
<path d="M109.032 45.8275L108.353 46.1725C108.264 45.9499 108.119 45.8386 107.974 45.8386C107.898 45.846 107.826 45.8817 107.774 45.9388C107.748 45.9606 107.728 45.988 107.715 46.0189C107.701 46.0497 107.695 46.0832 107.696 46.1169C107.696 46.2393 107.863 46.3952 108.175 46.5176C108.491 46.6309 108.782 46.8048 109.032 47.0296C109.115 47.112 109.179 47.2114 109.219 47.321C109.259 47.4306 109.275 47.5477 109.266 47.6641C109.271 47.8246 109.24 47.9842 109.174 48.1308C109.108 48.2774 109.01 48.4071 108.887 48.5101C108.647 48.729 108.333 48.8484 108.008 48.844C107.429 48.844 107.006 48.5435 106.75 47.9758L107.44 47.653C107.504 47.7674 107.579 47.8754 107.663 47.9758C107.765 48.0633 107.896 48.1107 108.03 48.1094C108.297 48.1094 108.431 47.9758 108.431 47.742C108.419 47.6535 108.384 47.5697 108.33 47.4993C108.275 47.4288 108.202 47.3743 108.119 47.3413L107.863 47.2077L107.629 47.1076C107.442 47.0149 107.269 46.8949 107.117 46.7514C106.994 46.5838 106.927 46.3808 106.928 46.1725C106.928 46.0316 106.957 45.8922 107.015 45.7636C107.072 45.635 107.157 45.5201 107.262 45.4267C107.363 45.3267 107.483 45.2484 107.615 45.1967C107.747 45.145 107.888 45.121 108.03 45.1262C108.486 45.1262 108.809 45.3488 109.032 45.8275Z" fill="#004F9F"/>
<path d="M110.802 43.7571C110.798 43.689 110.808 43.6208 110.833 43.5574C110.858 43.4939 110.897 43.4367 110.946 43.3897C111.043 43.2913 111.175 43.2353 111.314 43.2339C111.459 43.233 111.599 43.289 111.703 43.3897C111.755 43.4357 111.795 43.4924 111.822 43.5559C111.849 43.6194 111.862 43.6881 111.859 43.7571C111.86 43.9023 111.804 44.0421 111.703 44.1467C111.602 44.2373 111.472 44.2886 111.336 44.2914C111.193 44.2891 111.056 44.238 110.946 44.1467C110.851 44.0398 110.799 43.9006 110.802 43.7571ZM111.737 45.2264V48.7439H110.913V45.2264H111.737Z" fill="#004F9F"/>
<path d="M114.497 42.6216V45.627C114.639 45.4734 114.811 45.35 115.003 45.2639C115.194 45.1779 115.4 45.131 115.61 45.1261C115.835 45.1223 116.059 45.1681 116.265 45.2605C116.471 45.3528 116.654 45.4894 116.801 45.6604C117.118 46.0228 117.285 46.4926 117.268 46.9739C117.286 47.462 117.119 47.9388 116.801 48.3097C116.648 48.4796 116.461 48.615 116.252 48.7072C116.043 48.7993 115.816 48.8459 115.588 48.844C115.383 48.8428 115.18 48.7997 114.993 48.7174C114.805 48.6351 114.636 48.5153 114.497 48.3653V48.7438H113.695V42.6216H114.497ZM116.434 47.0073C116.444 46.7046 116.346 46.4082 116.155 46.1725C116.069 46.0742 115.963 45.9955 115.844 45.9417C115.725 45.8879 115.596 45.8603 115.465 45.8608C115.327 45.8553 115.19 45.8804 115.063 45.9343C114.936 45.9882 114.822 46.0695 114.731 46.1725C114.54 46.3941 114.444 46.682 114.463 46.9739C114.444 47.2726 114.539 47.5674 114.731 47.7976C114.817 47.8913 114.921 47.967 115.036 48.0204C115.152 48.0739 115.276 48.1041 115.404 48.1092C115.531 48.1144 115.658 48.0945 115.777 48.0505C115.897 48.0066 116.006 47.9396 116.1 47.8533C116.122 47.831 116.144 47.8199 116.155 47.7976C116.344 47.5787 116.444 47.2964 116.434 47.0073Z" fill="#004F9F"/>
<path d="M119.861 42.6216V48.7438H119.049V42.6216H119.861Z" fill="#004F9F"/>
<path d="M125.016 47.1744H122.5C122.509 47.4288 122.612 47.6709 122.79 47.8534C122.872 47.9405 122.973 48.0086 123.084 48.0528C123.196 48.097 123.316 48.1163 123.435 48.1094C123.61 48.1167 123.782 48.0658 123.925 47.9647C124.103 47.8107 124.257 47.6306 124.381 47.4304L125.06 47.82C124.959 47.9828 124.848 48.139 124.727 48.2875C124.611 48.4038 124.484 48.5082 124.348 48.5992C124.209 48.6829 124.059 48.7466 123.903 48.7884C123.734 48.8241 123.563 48.8427 123.391 48.8441C123.157 48.8538 122.923 48.8131 122.706 48.7247C122.489 48.6364 122.294 48.5025 122.133 48.332C121.799 47.9981 121.654 47.5417 121.654 46.974C121.632 46.4838 121.795 46.0031 122.111 45.6271C122.273 45.4629 122.468 45.3338 122.682 45.2476C122.897 45.1615 123.126 45.1202 123.357 45.1262C123.586 45.114 123.814 45.1526 124.026 45.2392C124.238 45.3258 124.427 45.4583 124.582 45.6271C124.897 46.0031 125.06 46.4838 125.038 46.974L125.016 47.1744ZM124.203 46.4954C124.162 46.31 124.057 46.1451 123.906 46.0291C123.756 45.9132 123.569 45.8537 123.38 45.8609L123.101 45.8943C123.016 45.9253 122.937 45.9705 122.868 46.0279C122.791 46.0803 122.726 46.1486 122.678 46.2282C122.633 46.3151 122.592 46.4043 122.556 46.4954H124.203Z" fill="#004F9F"/>
</svg>
