<svg width="27" height="27" viewBox="0 0 27 27" fill="none" xmlns="http://www.w3.org/2000/svg">
<path fill-rule="evenodd" clip-rule="evenodd" d="M13.4932 25.0892C19.8805 25.0892 25.0587 19.911 25.0587 13.5237C25.0587 7.13629 19.8805 1.95815 13.4932 1.95815C7.10577 1.95815 1.92764 7.13629 1.92764 13.5237C1.92764 19.911 7.10577 25.0892 13.4932 25.0892ZM13.4932 26.3742C20.5905 26.3742 26.3437 20.621 26.3437 13.5237C26.3437 6.4263 20.5905 0.673096 13.4932 0.673096C6.39578 0.673096 0.642578 6.4263 0.642578 13.5237C0.642578 20.621 6.39578 26.3742 13.4932 26.3742Z" fill="#36c2d7"/>
<path d="M5.7832 20.9963C5.7832 20.3326 6.27924 19.7717 6.93975 19.6984C11.8969 19.1497 15.1127 19.1992 20.0589 19.7106C20.3059 19.7366 20.54 19.8339 20.7326 19.9907C20.9252 20.1475 21.068 20.357 21.1435 20.5936C21.219 20.8302 21.224 21.0836 21.1578 21.323C21.0916 21.5624 20.9571 21.7773 20.7708 21.9415C14.9335 27.0297 11.5974 26.9597 6.19442 21.9466C5.93098 21.7025 5.7832 21.3555 5.7832 20.997V20.9963Z" fill="#36c2d7"/>
<path fill-rule="evenodd" clip-rule="evenodd" d="M19.9927 20.3493C15.0857 19.8417 11.9161 19.7942 7.00975 20.3371C6.67949 20.3738 6.42569 20.6558 6.42569 20.997C6.42569 21.1808 6.50215 21.3549 6.6313 21.4757C9.30935 23.9597 11.3385 25.0822 13.3219 25.0893C15.3125 25.0963 17.4508 23.9828 20.3486 21.4577C20.4407 21.3758 20.507 21.2688 20.5394 21.1499C20.5718 21.031 20.569 20.9053 20.5313 20.7879C20.4936 20.6706 20.4226 20.5668 20.327 20.489C20.2314 20.4113 20.1152 20.363 19.9927 20.35V20.3493ZM6.86903 19.0598C11.8782 18.5053 15.1409 18.5554 20.1257 19.0714C20.4973 19.1101 20.8495 19.2564 21.1392 19.4923C21.4289 19.7282 21.6436 20.0434 21.7569 20.3994C21.8702 20.7554 21.8773 21.1367 21.7772 21.4966C21.6772 21.8566 21.4743 22.1795 21.1936 22.426C18.254 24.9884 15.806 26.384 13.3181 26.3743C10.8232 26.3653 8.48306 24.946 5.7581 22.4176C5.563 22.2359 5.40747 22.0159 5.30122 21.7714C5.19498 21.5268 5.14031 21.263 5.14063 20.9964C5.13969 20.5173 5.31553 20.0548 5.63445 19.6973C5.95338 19.3398 6.39297 19.1126 6.86903 19.0591V19.0598Z" fill="#36c2d7"/>
<path d="M18.632 10.9535C18.632 12.3167 18.0905 13.6242 17.1265 14.5882C16.1625 15.5521 14.8551 16.0937 13.4918 16.0937C12.1285 16.0937 10.8211 15.5521 9.8571 14.5882C8.89312 13.6242 8.35156 12.3167 8.35156 10.9535C8.35156 9.59019 8.89312 8.28275 9.8571 7.31877C10.8211 6.35479 12.1285 5.81323 13.4918 5.81323C14.8551 5.81323 16.1625 6.35479 17.1265 7.31877C18.0905 8.28275 18.632 9.59019 18.632 10.9535Z" fill="#36c2d7"/>
<path fill-rule="evenodd" clip-rule="evenodd" d="M13.4918 14.8086C14.5142 14.8086 15.4948 14.4025 16.2178 13.6795C16.9408 12.9565 17.347 11.9759 17.347 10.9535C17.347 9.93101 16.9408 8.95043 16.2178 8.22744C15.4948 7.50446 14.5142 7.09829 13.4918 7.09829C12.4693 7.09829 11.4888 7.50446 10.7658 8.22744C10.0428 8.95043 9.63662 9.93101 9.63662 10.9535C9.63662 11.9759 10.0428 12.9565 10.7658 13.6795C11.4888 14.4025 12.4693 14.8086 13.4918 14.8086ZM13.4918 16.0937C14.8551 16.0937 16.1625 15.5521 17.1265 14.5882C18.0905 13.6242 18.632 12.3167 18.632 10.9535C18.632 9.59019 18.0905 8.28275 17.1265 7.31877C16.1625 6.35479 14.8551 5.81323 13.4918 5.81323C12.1285 5.81323 10.8211 6.35479 9.8571 7.31877C8.89312 8.28275 8.35156 9.59019 8.35156 10.9535C8.35156 12.3167 8.89312 13.6242 9.8571 14.5882C10.8211 15.5521 12.1285 16.0937 13.4918 16.0937Z" fill="#36c2d7"/>
</svg>
