<svg width="22" height="22" viewBox="0 0 22 22" fill="none" xmlns="http://www.w3.org/2000/svg">
<path fill-rule="evenodd" clip-rule="evenodd" d="M11 20.9C16.4676 20.9 20.9 16.4676 20.9 11C20.9 5.53245 16.4676 1.1 11 1.1C5.53245 1.1 1.1 5.53245 1.1 11C1.1 16.4676 5.53245 20.9 11 20.9ZM11 22C17.0753 22 22 17.0753 22 11C22 4.9247 17.0753 0 11 0C4.9247 0 0 4.9247 0 11C0 17.0753 4.9247 22 11 22Z" fill="#FFCC00"/>
<path d="M4.3999 17.3966C4.3999 16.8284 4.8245 16.3483 5.3899 16.2856C9.63315 15.8159 12.3859 15.8582 16.6198 16.296C16.8312 16.3182 17.0316 16.4015 17.1965 16.5357C17.3613 16.6699 17.4836 16.8493 17.5482 17.0518C17.6128 17.2543 17.6171 17.4713 17.5604 17.6762C17.5038 17.8811 17.3887 18.0651 17.2292 18.2056C12.2325 22.5611 9.37685 22.5011 4.7519 18.21C4.5264 18.001 4.3999 17.704 4.3999 17.3971V17.3966Z" fill="#FFCC00"/>
<path fill-rule="evenodd" clip-rule="evenodd" d="M16.5634 16.8427C12.363 16.4082 9.64985 16.3675 5.45005 16.8322C5.16735 16.8636 4.9501 17.1051 4.9501 17.3971C4.9501 17.5544 5.01555 17.7034 5.1261 17.8068C7.4185 19.9331 9.1554 20.894 10.8533 20.9C12.5572 20.9061 14.3876 19.9529 16.8681 17.7914C16.9469 17.7213 17.0036 17.6298 17.0313 17.528C17.0591 17.4262 17.0567 17.3186 17.0244 17.2181C16.9922 17.1177 16.9314 17.0288 16.8495 16.9623C16.7677 16.8957 16.6683 16.8544 16.5634 16.8433V16.8427ZM5.3296 15.7389C9.6174 15.2642 12.4103 15.3071 16.6772 15.7487C16.9953 15.7819 17.2968 15.9072 17.5447 16.1091C17.7927 16.311 17.9765 16.5808 18.0735 16.8855C18.1705 17.1903 18.1766 17.5167 18.0909 17.8248C18.0053 18.1329 17.8316 18.4093 17.5913 18.6203C15.0751 20.8137 12.9796 22.0083 10.85 22.0001C8.7143 21.9924 6.7112 20.7774 4.37865 18.6131C4.21164 18.4576 4.07851 18.2693 3.98757 18.0599C3.89663 17.8506 3.84983 17.6248 3.8501 17.3966C3.8493 16.9865 3.99981 16.5905 4.27281 16.2846C4.54581 15.9786 4.9221 15.7841 5.3296 15.7383V15.7389Z" fill="#FFCC00"/>
<path d="M15.4001 8.7999C15.4001 9.96686 14.9365 11.086 14.1114 11.9112C13.2862 12.7363 12.1671 13.1999 11.0001 13.1999C9.83315 13.1999 8.71399 12.7363 7.88883 11.9112C7.06367 11.086 6.6001 9.96686 6.6001 8.7999C6.6001 7.63295 7.06367 6.51379 7.88883 5.68863C8.71399 4.86347 9.83315 4.3999 11.0001 4.3999C12.1671 4.3999 13.2862 4.86347 14.1114 5.68863C14.9365 6.51379 15.4001 7.63295 15.4001 8.7999Z" fill="#FFCC00"/>
<path fill-rule="evenodd" clip-rule="evenodd" d="M11.0001 12.0999C11.8753 12.0999 12.7147 11.7522 13.3336 11.1334C13.9524 10.5145 14.3001 9.67512 14.3001 8.7999C14.3001 7.92469 13.9524 7.08532 13.3336 6.46645C12.7147 5.84758 11.8753 5.4999 11.0001 5.4999C10.1249 5.4999 9.28552 5.84758 8.66664 6.46645C8.04777 7.08532 7.7001 7.92469 7.7001 8.7999C7.7001 9.67512 8.04777 10.5145 8.66664 11.1334C9.28552 11.7522 10.1249 12.0999 11.0001 12.0999ZM11.0001 13.1999C12.1671 13.1999 13.2862 12.7363 14.1114 11.9112C14.9365 11.086 15.4001 9.96686 15.4001 8.7999C15.4001 7.63295 14.9365 6.51379 14.1114 5.68863C13.2862 4.86347 12.1671 4.3999 11.0001 4.3999C9.83315 4.3999 8.71399 4.86347 7.88883 5.68863C7.06367 6.51379 6.6001 7.63295 6.6001 8.7999C6.6001 9.96686 7.06367 11.086 7.88883 11.9112C8.71399 12.7363 9.83315 13.1999 11.0001 13.1999Z" fill="#FFCC00"/>
</svg>
