<svg width="204" height="54" viewBox="0 0 204 54" fill="none" xmlns="http://www.w3.org/2000/svg">
<path d="M27.7003 0V22.294L0 0V30.8388L27.7003 53.1262V30.8388L55.4007 53.1262V22.294" fill="#FFCC00"/>
<path d="M76.2836 21.6881H73.6568L70.1901 15.2128H70.1748L70.2054 21.6881H67.9604V11.5017H70.5872L74.0539 17.9617H74.0692L74.0386 11.5017H76.2836V21.6881ZM85.9304 18.6337C85.9304 20.5121 84.9377 21.6881 81.9444 21.6881H78.3555V11.5017H82.0971C84.0214 11.5017 85.6707 11.9446 85.6707 14.0521C85.6707 15.6556 84.2046 16.2054 84.0061 16.2665V16.2971C84.2046 16.3276 85.9304 16.6789 85.9304 18.6337ZM83.4258 18.5726C83.4258 17.6563 82.876 17.3356 81.9138 17.3356H80.8295V19.7944H81.7611C82.9065 19.7944 83.4258 19.3362 83.4258 18.5726ZM83.1661 14.327C83.1661 13.6397 82.7233 13.3496 81.868 13.3496H80.8295V15.4877H81.8069C82.7691 15.4877 83.1661 15.0448 83.1661 14.327ZM96.0934 21.6881H92.9932C91.7409 20.0387 90.0915 17.4883 90.0915 17.4883H90.0762V21.6881H87.6022V11.5017H90.0762V15.6709H90.0915L92.8405 11.5017H95.6963L92.2296 16.404C92.2296 16.404 93.879 18.8169 96.0934 21.6881ZM108.063 18.6337C108.063 20.5121 107.07 21.6881 104.077 21.6881H100.488V11.5017H104.23C106.154 11.5017 107.803 11.9446 107.803 14.0521C107.803 15.6556 106.337 16.2054 106.139 16.2665V16.2971C106.337 16.3276 108.063 16.6789 108.063 18.6337ZM105.558 18.5726C105.558 17.6563 105.008 17.3356 104.046 17.3356H102.962V19.7944H103.894C105.039 19.7944 105.558 19.3362 105.558 18.5726ZM105.299 14.327C105.299 13.6397 104.856 13.3496 104 13.3496H102.962V15.4877H103.939C104.902 15.4877 105.299 15.0448 105.299 14.327ZM116.561 21.6881H114.393L114.27 20.8176C113.889 21.3979 113.247 21.9172 112.117 21.9172C110.025 21.9172 109.246 20.3441 109.246 17.8701C109.246 15.5029 110.101 13.823 112.224 13.823C113.4 13.823 113.98 14.3423 114.255 14.9073H114.27L114.377 14.0521H116.561V21.6881ZM114.148 18.4199V17.3356C114.148 16.3734 113.629 15.7473 112.957 15.7473C112.071 15.7473 111.72 16.4498 111.72 17.3967V18.3588C111.72 19.4431 112.163 19.9929 112.896 19.9929C113.705 19.9929 114.148 19.3057 114.148 18.4199ZM125.757 21.6881H123.329V17.137C123.329 16.4803 123.115 15.9305 122.229 15.9305C121.512 15.9305 120.916 16.4803 120.916 17.0912V21.6881H118.488V14.0521H120.794V14.9073H120.824C120.824 14.9073 121.649 13.823 123.253 13.823C124.627 13.823 125.757 14.495 125.757 16.3887V21.6881ZM132.883 21.459C132.227 21.7644 131.494 21.9172 130.547 21.9172C127.889 21.9172 127.172 20.3441 127.172 17.8548C127.172 15.3655 128.073 13.823 130.776 13.823C131.845 13.823 132.715 14.2048 132.776 14.2354L132.669 16.1291C132.593 16.0833 131.86 15.732 131.112 15.732C130.211 15.732 129.646 16.3276 129.646 17.4883V18.2213C129.646 19.5042 130.287 19.9929 131.081 19.9929C131.738 19.9929 132.288 19.8249 132.776 19.5958L132.883 21.459ZM141.095 21.6881H138.926L138.804 20.8176C138.422 21.3979 137.781 21.9172 136.651 21.9172C134.558 21.9172 133.78 20.3441 133.78 17.8701C133.78 15.5029 134.635 13.823 136.758 13.823C137.934 13.823 138.514 14.3423 138.789 14.9073H138.804L138.911 14.0521H141.095V21.6881ZM138.682 18.4199V17.3356C138.682 16.3734 138.163 15.7473 137.491 15.7473C136.605 15.7473 136.254 16.4498 136.254 17.3967V18.3588C136.254 19.4431 136.697 19.9929 137.43 19.9929C138.239 19.9929 138.682 19.3057 138.682 18.4199ZM148.489 19.3973C148.489 21.0008 147.359 21.9172 145.266 21.9172C144.319 21.9172 143.464 21.7492 142.624 21.3826L142.746 19.55C143.418 19.9165 144.228 20.1762 144.976 20.1762C145.877 20.1762 146.045 19.8554 146.045 19.5347C146.045 19.1835 145.816 19.0155 145.159 18.7864L144.64 18.6184C143.571 18.2519 142.64 17.641 142.64 16.1596C142.64 14.5408 143.968 13.823 145.801 13.823C146.641 13.823 147.542 14.0521 148.076 14.2964L147.969 16.1291C147.298 15.7778 146.458 15.5487 145.969 15.5487C145.327 15.5487 145.098 15.7626 145.098 16.068C145.098 16.3887 145.358 16.5872 146.045 16.8163L146.564 16.9843C147.588 17.3356 148.489 17.9159 148.489 19.3973ZM155.483 19.3973C155.483 21.0008 154.353 21.9172 152.261 21.9172C151.314 21.9172 150.459 21.7492 149.619 21.3826L149.741 19.55C150.413 19.9165 151.223 20.1762 151.971 20.1762C152.872 20.1762 153.04 19.8554 153.04 19.5347C153.04 19.1835 152.811 19.0155 152.154 18.7864L151.635 18.6184C150.566 18.2519 149.634 17.641 149.634 16.1596C149.634 14.5408 150.963 13.823 152.796 13.823C153.636 13.823 154.537 14.0521 155.071 14.2964L154.964 16.1291C154.292 15.7778 153.452 15.5487 152.964 15.5487C152.322 15.5487 152.093 15.7626 152.093 16.068C152.093 16.3887 152.353 16.5872 153.04 16.8163L153.559 16.9843C154.582 17.3356 155.483 17.9159 155.483 19.3973ZM164.127 18.7711C164.127 20.8787 163.058 21.9324 160.493 21.9324C158.187 21.9324 157.011 21.0314 157.011 18.7711V14.0521H159.439V18.6031C159.439 19.4736 159.806 19.9929 160.6 19.9929C161.394 19.9929 161.699 19.4889 161.699 18.6031V14.0521H164.127V18.7711ZM170.92 13.8536L170.813 16.1138C170.813 16.1138 170.614 16.0527 170.187 16.0527C169.163 16.0527 168.461 16.7705 168.461 17.6563V21.6881H166.048V14.0521H168.339V15.1364H168.354C168.598 14.6477 169.24 13.823 170.507 13.823C170.767 13.823 170.92 13.8536 170.92 13.8536ZM178.962 21.6881H176.793L176.671 20.8176C176.289 21.3979 175.648 21.9172 174.517 21.9172C172.425 21.9172 171.646 20.3441 171.646 17.8701C171.646 15.5029 172.502 13.823 174.624 13.823C175.8 13.823 176.381 14.3423 176.656 14.9073H176.671L176.778 14.0521H178.962V21.6881ZM176.549 18.4199V17.3356C176.549 16.3734 176.029 15.7473 175.357 15.7473C174.472 15.7473 174.12 16.4498 174.12 17.3967V18.3588C174.12 19.4431 174.563 19.9929 175.296 19.9929C176.106 19.9929 176.549 19.3057 176.549 18.4199ZM188.158 21.6881H185.729V17.137C185.729 16.4803 185.516 15.9305 184.63 15.9305C183.912 15.9305 183.316 16.4803 183.316 17.0912V21.6881H180.888V14.0521H183.194V14.9073H183.225C183.225 14.9073 184.049 13.823 185.653 13.823C187.027 13.823 188.158 14.495 188.158 16.3887V21.6881ZM195.284 21.459C194.627 21.7644 193.894 21.9172 192.947 21.9172C190.29 21.9172 189.572 20.3441 189.572 17.8548C189.572 15.3655 190.473 13.823 193.176 13.823C194.245 13.823 195.116 14.2048 195.177 14.2354L195.07 16.1291C194.994 16.0833 194.26 15.732 193.512 15.732C192.611 15.732 192.046 16.3276 192.046 17.4883V18.2213C192.046 19.5042 192.687 19.9929 193.482 19.9929C194.138 19.9929 194.688 19.8249 195.177 19.5958L195.284 21.459ZM203.083 17.6105C203.083 17.8243 203.052 18.5115 203.052 18.5115H198.501V18.6031C198.501 19.3057 198.898 20.0387 200.181 20.0387C201.052 20.0387 201.876 19.8096 202.564 19.5042L202.671 21.3368C202.09 21.6575 201.128 21.9172 199.891 21.9172C196.898 21.9172 196.134 20.4205 196.134 17.9006C196.134 15.4571 197.096 13.823 199.86 13.823C202.319 13.823 203.083 15.2738 203.083 17.6105ZM200.853 16.9843C200.853 16.2818 200.716 15.396 199.754 15.396C198.837 15.396 198.455 16.2054 198.455 16.9843H200.853Z" fill="#441F15"/>
<path d="M70.4497 40.0141H67.9604V29.8277H70.4497V40.0141ZM79.7474 40.0141H77.3191V35.463C77.3191 34.8063 77.1053 34.2566 76.2195 34.2566C75.5018 34.2566 74.9061 34.8063 74.9061 35.4172V40.0141H72.4779V32.3781H74.784V33.2333H74.8145C74.8145 33.2333 75.6392 32.149 77.2428 32.149C78.6172 32.149 79.7474 32.821 79.7474 34.7147V40.0141ZM86.4305 39.9072C86.4305 39.9072 85.5753 40.2585 84.4604 40.2585C82.918 40.2585 82.2002 39.4643 82.2155 37.9218L82.2307 34.3024H80.6883V32.3781H82.2307L82.246 30.4996L84.659 30.24L84.6437 32.3781H86.4305V34.3024H84.6437L84.6284 37.4484C84.6284 38.1356 84.8728 38.3342 85.4226 38.3342C85.8349 38.3342 86.3236 38.1815 86.3236 38.1815L86.4305 39.9072ZM94.3744 35.9365C94.3744 36.1503 94.3438 36.8375 94.3438 36.8375H89.7928V36.9292C89.7928 37.6317 90.1898 38.3647 91.4727 38.3647C92.3432 38.3647 93.1679 38.1356 93.8551 37.8302L93.962 39.6628C93.3817 39.9836 92.4195 40.2432 91.1825 40.2432C88.1892 40.2432 87.4256 38.7465 87.4256 36.2266C87.4256 33.7831 88.3877 32.149 91.152 32.149C93.6108 32.149 94.3744 33.5999 94.3744 35.9365ZM92.1446 35.3103C92.1446 34.6078 92.0072 33.722 91.0451 33.722C90.1287 33.722 89.7469 34.5315 89.7469 35.3103H92.1446ZM100.66 32.1796L100.553 34.4398C100.553 34.4398 100.354 34.3787 99.9266 34.3787C98.9033 34.3787 98.2008 35.0965 98.2008 35.9823V40.0141H95.7878V32.3781H98.0786V33.4624H98.0939C98.3383 32.9737 98.9797 32.149 100.247 32.149C100.507 32.149 100.66 32.1796 100.66 32.1796ZM113.314 40.0141H110.885V35.463C110.885 34.8063 110.687 34.2566 109.954 34.2566C109.328 34.2566 108.763 34.7911 108.763 35.4172V40.0141H106.334V35.463C106.334 34.8063 106.136 34.2566 105.403 34.2566C104.761 34.2566 104.227 34.8063 104.227 35.4172V40.0141H101.799V32.3781H104.105V33.2333H104.135C104.135 33.2333 104.929 32.149 106.411 32.149C107.541 32.149 108.136 32.6377 108.457 33.3402C108.457 33.3402 109.373 32.149 110.824 32.149C112.596 32.149 113.314 33.1722 113.314 34.7147V40.0141ZM121.682 35.9365C121.682 36.1503 121.651 36.8375 121.651 36.8375H117.1V36.9292C117.1 37.6317 117.497 38.3647 118.78 38.3647C119.651 38.3647 120.475 38.1356 121.163 37.8302L121.27 39.6628C120.689 39.9836 119.727 40.2432 118.49 40.2432C115.497 40.2432 114.733 38.7465 114.733 36.2266C114.733 33.7831 115.695 32.149 118.46 32.149C120.918 32.149 121.682 33.5999 121.682 35.9365ZM119.452 35.3103C119.452 34.6078 119.315 33.722 118.353 33.722C117.436 33.722 117.055 34.5315 117.055 35.3103H119.452ZM130.06 40.0141H127.876L127.769 39.1589H127.753C127.341 39.7239 126.684 40.2432 125.57 40.2432C123.447 40.2432 122.698 38.6702 122.698 36.1961C122.698 33.8289 123.523 32.149 125.661 32.149C126.837 32.149 127.372 32.653 127.616 33.0501H127.631V29.2473H130.06V40.0141ZM127.631 36.7459V35.6616C127.631 34.6994 127.112 34.0733 126.44 34.0733C125.539 34.0733 125.172 34.7758 125.172 35.7227V36.6848C125.172 37.7691 125.661 38.3189 126.379 38.3189C127.158 38.3189 127.631 37.6317 127.631 36.7459ZM134.458 40.0141H132.045V32.3781H134.458V40.0141ZM134.687 30.3622C134.687 31.1563 134.046 31.7978 133.251 31.7978C132.457 31.7978 131.801 31.1563 131.801 30.3622C131.801 29.5528 132.457 28.9114 133.251 28.9114C134.046 28.9114 134.687 29.5528 134.687 30.3622ZM143.272 40.0141H141.104L140.981 39.1436C140.6 39.7239 139.958 40.2432 138.828 40.2432C136.736 40.2432 135.957 38.6702 135.957 36.1961C135.957 33.8289 136.812 32.149 138.935 32.149C140.111 32.149 140.691 32.6683 140.966 33.2333H140.981L141.088 32.3781H143.272V40.0141ZM140.859 36.7459V35.6616C140.859 34.6994 140.34 34.0733 139.668 34.0733C138.782 34.0733 138.431 34.7758 138.431 35.7227V36.6848C138.431 37.7691 138.874 38.3189 139.607 38.3189C140.416 38.3189 140.859 37.6317 140.859 36.7459ZM150.04 32.1796L149.933 34.4398C149.933 34.4398 149.735 34.3787 149.307 34.3787C148.284 34.3787 147.581 35.0965 147.581 35.9823V40.0141H145.168V32.3781H147.459V33.4624H147.474C147.719 32.9737 148.36 32.149 149.628 32.149C149.887 32.149 150.04 32.1796 150.04 32.1796ZM158.586 32.3781C158.586 32.3781 156.524 38.2731 154.508 43.1449H151.912C152.767 41.2664 153.21 40.0141 153.21 40.0141L150.37 32.3781H152.859L154.447 37.7386H154.462L156.188 32.3781H158.586ZM169.266 40.0141H163.142V29.8277H165.616V38.0593L169.266 38.0746V40.0141ZM175.378 39.9072C175.378 39.9072 174.523 40.2585 173.408 40.2585C171.865 40.2585 171.148 39.4643 171.163 37.9218L171.178 34.3024H169.636V32.3781H171.178L171.193 30.4996L173.606 30.24L173.591 32.3781H175.378V34.3024H173.591L173.576 37.4484C173.576 38.1356 173.82 38.3342 174.37 38.3342C174.782 38.3342 175.271 38.1815 175.271 38.1815L175.378 39.9072ZM183.78 40.0141H181.596L181.489 39.1589H181.474C181.062 39.7239 180.405 40.2432 179.29 40.2432C177.167 40.2432 176.419 38.6702 176.419 36.1961C176.419 33.8289 177.244 32.149 179.382 32.149C180.558 32.149 181.092 32.653 181.336 33.0501H181.352V29.2473H183.78V40.0141ZM181.352 36.7459V35.6616C181.352 34.6994 180.832 34.0733 180.16 34.0733C179.259 34.0733 178.893 34.7758 178.893 35.7227V36.6848C178.893 37.7691 179.382 38.3189 180.099 38.3189C180.878 38.3189 181.352 37.6317 181.352 36.7459Z" fill="#441F15"/>
</svg>
