<?xml version="1.0" encoding="UTF-8"?>
<!DOCTYPE svg PUBLIC "-//W3C//DTD SVG 1.1//EN" "http://www.w3.org/Graphics/SVG/1.1/DTD/svg11.dtd">
<svg xmlns="http://www.w3.org/2000/svg" version="1.1" width="225px" height="225px" style="shape-rendering:geometricPrecision; text-rendering:geometricPrecision; image-rendering:optimizeQuality; fill-rule:evenodd; clip-rule:evenodd" xmlns:xlink="http://www.w3.org/1999/xlink">
<g><path style="opacity:1" fill="#fefefe" d="M -0.5,-0.5 C 74.5,-0.5 149.5,-0.5 224.5,-0.5C 224.5,74.5 224.5,149.5 224.5,224.5C 149.5,224.5 74.5,224.5 -0.5,224.5C -0.5,149.5 -0.5,74.5 -0.5,-0.5 Z"/></g>
<g><path style="opacity:1" fill="#434858" d="M 153.5,4.5 C 193.465,1.96263 213.132,20.796 212.5,61C 210.165,111.344 194.332,156.844 165,197.5C 160.135,202.7 154.968,207.533 149.5,212C 137.325,217.046 124.659,218.712 111.5,217C 73.799,214.251 44.9656,197.084 25,165.5C 14.6813,149.526 7.68133,132.193 4,113.5C 3.33333,109.5 3.33333,105.5 4,101.5C 9.25575,89.9896 16.2557,79.6563 25,70.5C 61.5734,36.4625 104.407,14.4625 153.5,4.5 Z"/></g>
<g><path style="opacity:1" fill="#2cebbb" d="M 115.5,67.5 C 130.17,67.3334 144.837,67.5001 159.5,68C 166.667,69.8333 171.167,74.3333 173,81.5C 174.596,94.4467 171.762,106.28 164.5,117C 159.097,120.686 153.097,122.519 146.5,122.5C 138.154,121.88 129.821,121.213 121.5,120.5C 119.167,135.83 116.834,151.163 114.5,166.5C 110.5,166.5 106.5,166.5 102.5,166.5C 102.61,163.941 101.944,161.608 100.5,159.5C 91.1242,166.537 80.7909,168.704 69.5,166C 63.3182,162.817 60.3182,157.651 60.5,150.5C 63.0954,134.526 65.4287,118.526 67.5,102.5C 72.5,102.5 77.5,102.5 82.5,102.5C 80.6611,116.204 78.4945,129.87 76,143.5C 75.0715,147.244 75.5715,150.744 77.5,154C 86.1884,155.864 94.3551,154.364 102,149.5C 106.824,122.208 111.324,94.8748 115.5,67.5 Z"/></g>
<g><path style="opacity:1" fill="#434858" d="M 127.5,80.5 C 136.173,80.3336 144.84,80.5002 153.5,81C 155.286,81.7845 156.786,82.9512 158,84.5C 159.633,93.4744 157.467,101.308 151.5,108C 142.248,109.417 132.915,109.917 123.5,109.5C 124.994,99.8572 126.327,90.1906 127.5,80.5 Z"/></g>
</svg>
