<svg width="33" height="33" viewBox="0 0 33 33" fill="none" xmlns="http://www.w3.org/2000/svg">
<path fill-rule="evenodd" clip-rule="evenodd" d="M16.8652 31.2667C24.818 31.2667 31.2652 24.8195 31.2652 16.8667C31.2652 8.91387 24.818 2.46667 16.8652 2.46667C8.91243 2.46667 2.46523 8.91387 2.46523 16.8667C2.46523 24.8195 8.91243 31.2667 16.8652 31.2667ZM16.8652 32.8667C25.702 32.8667 32.8652 25.7035 32.8652 16.8667C32.8652 8.02987 25.702 0.866669 16.8652 0.866669C8.02843 0.866669 0.865234 8.02987 0.865234 16.8667C0.865234 25.7035 8.02843 32.8667 16.8652 32.8667Z" fill="#2A5A5E"/>
<path d="M7.26562 26.1707C7.26562 25.3443 7.88323 24.6459 8.70563 24.5547C14.8776 23.8715 18.8816 23.9331 25.04 24.5699C25.3476 24.6022 25.639 24.7233 25.8788 24.9185C26.1186 25.1138 26.2964 25.3746 26.3904 25.6692C26.4844 25.9638 26.4906 26.2793 26.4082 26.5774C26.3258 26.8754 26.1584 27.143 25.9264 27.3475C18.6584 33.6827 14.5048 33.5955 7.77763 27.3539C7.44963 27.0499 7.26562 26.6179 7.26562 26.1715V26.1707Z" fill="#2A5A5E"/>
<path fill-rule="evenodd" clip-rule="evenodd" d="M24.9569 25.365C18.8472 24.733 14.9008 24.6738 8.79205 25.3498C8.38085 25.3954 8.06485 25.7466 8.06485 26.1714C8.06485 26.4002 8.16005 26.617 8.32085 26.7674C11.6552 29.8602 14.1816 31.2578 16.6512 31.2666C19.1296 31.2754 21.792 29.889 25.4 26.745C25.5147 26.643 25.5972 26.5099 25.6376 26.3618C25.6779 26.2138 25.6745 26.0572 25.6275 25.9111C25.5806 25.765 25.4922 25.6357 25.3731 25.5389C25.2541 25.4421 25.1094 25.382 24.9569 25.3658V25.365ZM8.61685 23.7594C14.8536 23.069 18.916 23.1314 25.1224 23.7738C25.5851 23.8221 26.0236 24.0043 26.3843 24.2979C26.7451 24.5916 27.0123 24.9841 27.1534 25.4273C27.2945 25.8706 27.3033 26.3453 27.1787 26.7935C27.0542 27.2417 26.8016 27.6438 26.452 27.9506C22.792 31.141 19.744 32.8786 16.6464 32.8666C13.54 32.8554 10.6264 31.0882 7.23365 27.9402C6.99073 27.714 6.79708 27.44 6.6648 27.1356C6.53252 26.8311 6.46445 26.5026 6.46485 26.1706C6.46368 25.5742 6.68261 24.9983 7.0797 24.5532C7.47679 24.1081 8.02412 23.8252 8.61685 23.7586V23.7594Z" fill="#2A5A5E"/>
<path d="M23.2648 13.6666C23.2648 15.364 22.5906 16.9919 21.3903 18.1921C20.1901 19.3923 18.5622 20.0666 16.8648 20.0666C15.1675 20.0666 13.5396 19.3923 12.3394 18.1921C11.1391 16.9919 10.4648 15.364 10.4648 13.6666C10.4648 11.9692 11.1391 10.3414 12.3394 9.14115C13.5396 7.94092 15.1675 7.26663 16.8648 7.26663C18.5622 7.26663 20.1901 7.94092 21.3903 9.14115C22.5906 10.3414 23.2648 11.9692 23.2648 13.6666Z" fill="#2A5A5E"/>
<path fill-rule="evenodd" clip-rule="evenodd" d="M16.8648 18.4666C18.1379 18.4666 19.3588 17.9609 20.259 17.0607C21.1591 16.1606 21.6648 14.9397 21.6648 13.6666C21.6648 12.3936 21.1591 11.1727 20.259 10.2725C19.3588 9.37235 18.1379 8.86663 16.8648 8.86663C15.5918 8.86663 14.3709 9.37235 13.4707 10.2725C12.5706 11.1727 12.0648 12.3936 12.0648 13.6666C12.0648 14.9397 12.5706 16.1606 13.4707 17.0607C14.3709 17.9609 15.5918 18.4666 16.8648 18.4666ZM16.8648 20.0666C18.5622 20.0666 20.1901 19.3923 21.3903 18.1921C22.5906 16.9919 23.2648 15.364 23.2648 13.6666C23.2648 11.9692 22.5906 10.3414 21.3903 9.14115C20.1901 7.94092 18.5622 7.26663 16.8648 7.26663C15.1675 7.26663 13.5396 7.94092 12.3394 9.14115C11.1391 10.3414 10.4648 11.9692 10.4648 13.6666C10.4648 15.364 11.1391 16.9919 12.3394 18.1921C13.5396 19.3923 15.1675 20.0666 16.8648 20.0666Z" fill="#2A5A5E"/>
</svg>
