<svg width="264" height="76" viewBox="0 0 264 76" fill="none" xmlns="http://www.w3.org/2000/svg">
<path d="M68.1345 7.45903C68.134 6.60504 67.9637 5.75965 67.6336 4.97204C67.3035 4.18443 66.8201 3.47029 66.2116 2.87112C65.6093 2.27156 64.894 1.79746 64.1072 1.47631C63.3204 1.15516 62.4777 0.993337 61.6279 1.00021H24.9247C24.0707 1.00074 23.2254 1.17103 22.4378 1.50113C21.6502 1.83123 20.936 2.31457 20.3368 2.92309C19.7389 3.52442 19.2658 4.23807 18.9447 5.02294C18.6236 5.80782 18.4609 6.64843 18.4659 7.49643V48.22C18.4665 49.074 18.6367 49.9193 18.9668 50.7069C19.2969 51.4945 19.7803 52.2087 20.3888 52.8078C20.992 53.4067 21.7078 53.8804 22.4948 54.2015C23.2818 54.5226 24.1246 54.6847 24.9746 54.6787H61.6632C62.5172 54.6782 63.3626 54.508 64.1502 54.1779C64.9378 53.8478 65.6519 53.3644 66.2511 52.7559C66.85 52.1526 67.3236 51.4369 67.6447 50.6499C67.9658 49.8628 68.128 49.0201 68.122 48.1701L68.1345 7.45903Z" fill="white" stroke="#B78B1E" stroke-width="0.336375" stroke-miterlimit="10"/>
<path d="M65.6152 7.39492C65.5929 6.35456 65.1631 5.36456 64.4182 4.63794C63.6733 3.91131 62.6729 3.50616 61.6323 3.50967H46.4696H45.4011C44.3594 3.50564 43.3579 3.91113 42.6124 4.6387C41.867 5.36627 41.4373 6.35763 41.416 7.39908V15.1717H40.123V11.9142C40.123 10.773 39.2354 9.88531 38.3062 9.88531H29.2406C28.3072 9.88531 27.4258 10.773 27.4258 11.9142V21.8924C27.4258 23.0378 28.3072 23.9192 29.2406 23.9192H38.3145C39.2437 23.9192 40.1314 23.0378 40.1314 21.8924V18.6329H41.414V33.0285H45.2265V30.2845H61.6697C62.7211 30.2796 63.7276 29.8576 64.4681 29.1112C65.2086 28.3648 65.6227 27.355 65.6194 26.3036V26.2121L65.6152 7.39492ZM36.9841 20.0755C36.9841 20.5391 36.7762 20.7574 36.3438 20.7636H31.2113C30.7706 20.7636 30.5876 20.5412 30.5731 20.0755V13.7207C30.5731 13.2551 30.7706 13.0347 31.2113 13.0326H36.3438C36.7824 13.0326 36.9674 13.2551 36.9841 13.7207V15.1759H35.3647C35.073 15.1719 34.7912 15.2819 34.5796 15.4827C34.3679 15.6835 34.2431 15.9591 34.2317 16.2506V17.554C34.2415 17.8444 34.3648 18.1194 34.575 18.3199C34.7853 18.5205 35.0658 18.6306 35.3564 18.6266H36.9841V20.0755ZM61.8069 25.2226C61.7425 26.1477 61.1833 26.4699 60.5222 26.4699H45.2265V18.6121H46.5008V21.8717C46.5008 23.0171 47.3884 23.8985 48.3156 23.8985H57.3895C58.3208 23.8985 59.2022 23.0171 59.2022 21.8717V11.8935C59.2022 10.7522 58.3208 9.86455 57.3895 9.86455H48.3156C47.3884 9.86455 46.5008 10.7522 46.5008 11.8935V15.1509H45.2265V8.57571C45.2265 7.91881 45.5487 7.35959 46.4737 7.29931H60.5409C61.4743 7.35959 61.7882 7.92297 61.8007 8.57571V25.206L61.8069 25.2226ZM52.4025 16.2443C52.3901 15.9546 52.2661 15.6809 52.0565 15.4806C51.8468 15.2802 51.5678 15.1688 51.2778 15.1696H49.6481V13.7145C49.6481 13.2488 49.8559 13.0285 50.2842 13.0264H55.4209C55.8616 13.0264 56.0445 13.2488 56.0549 13.7145V20.0693C56.0549 20.5329 55.8616 20.7512 55.4209 20.7574H50.2842C49.8476 20.7574 49.6605 20.535 49.6481 20.0693V18.6142H51.2737C51.5645 18.6176 51.8451 18.5075 52.056 18.3072C52.2668 18.1068 52.3911 17.8321 52.4025 17.5415V16.2381V16.2443Z" fill="#095641"/>
<path d="M20.9862 26.3015C20.9838 26.8223 21.084 27.3386 21.2813 27.8206C21.4785 28.3027 21.7688 28.7412 22.1357 29.1109C22.5025 29.4807 22.9387 29.7744 23.4192 29.9754C23.8997 30.1764 24.4151 30.2808 24.9359 30.2824H40.1236V26.4761H26.073C25.412 26.4761 24.8569 26.1456 24.7925 25.2289V8.59853C24.7925 7.94163 25.1168 7.38246 26.0398 7.32217H40.1236V3.50965H24.9484C23.908 3.50727 22.9083 3.91356 22.1645 4.64101C21.4207 5.36846 20.9924 6.35889 20.9717 7.39906V26.2142L20.9862 26.3015Z" fill="#095641"/>
<path d="M20.9737 34.3088V48.0892V48.1806C20.9715 48.7015 21.0719 49.2177 21.2692 49.6998C21.4665 50.1818 21.7568 50.6203 22.1236 50.9901C22.4904 51.36 22.9264 51.654 23.4068 51.8553C23.8872 52.0567 24.4025 52.1614 24.9234 52.1636H61.6598C62.7115 52.1587 63.7183 51.7363 64.4589 50.9895C65.1995 50.2427 65.6133 49.2324 65.6095 48.1806V48.0892V34.3088H20.9737Z" fill="#B78B1E"/>
<path d="M30.8322 38.8497C29.059 38.8497 28.0716 40.1676 28.0716 43.2692C28.0716 46.5308 29.138 47.6346 30.8468 47.6346C31.715 47.6199 32.5683 47.4066 33.3413 47.011V48.4828C32.4021 48.8254 31.41 49.0006 30.4102 49.0004C27.0405 49.0004 25.1426 47.4953 25.1426 43.3585C25.1426 39.2987 27.1341 37.4797 30.4414 37.4797C31.3982 37.4623 32.3513 37.6028 33.2623 37.8955V39.4005C32.5073 39.0272 31.6744 38.8384 30.8322 38.8497Z" fill="white"/>
<path d="M41.2568 38.8499C39.4857 38.8499 38.4982 40.1678 38.4982 43.2694C38.4982 46.531 39.5647 47.6349 41.2734 47.6349C42.1416 47.6201 42.995 47.4068 43.768 47.0112V48.483C42.8294 48.8254 41.838 49.0006 40.839 49.0006C37.4672 49.0006 35.5713 47.4956 35.5713 43.3588C35.5713 39.2989 37.5628 37.48 40.8701 37.48C41.8269 37.4626 42.78 37.603 43.6911 37.8957V39.4008C42.9347 39.0271 42.1004 38.8383 41.2568 38.8499Z" fill="white"/>
<path d="M50.5131 37.7088C51.3471 37.6914 52.1811 37.7387 53.0077 37.8502C54.3069 38.0581 55.0865 38.9166 55.0865 40.4528C55.0865 41.7687 54.4753 42.569 53.0493 42.9287C54.5044 43.1636 55.417 44.0575 55.417 45.6103C55.417 46.895 54.7934 47.9926 53.4733 48.4624C52.8622 48.6807 51.7958 48.7763 50.5734 48.7763H46.7256V37.7088H50.5131ZM50.4965 47.4792C51.1389 47.4792 51.4694 47.4168 51.7667 47.2588C52.2219 47.0239 52.5025 46.4605 52.5025 45.5355C52.5025 44.7663 52.2531 44.1552 51.8145 43.8891C51.5463 43.7477 51.2345 43.6687 50.5672 43.6687H49.5153V47.4792H50.4965ZM50.5589 42.4464C50.9205 42.4669 51.2806 42.3855 51.5983 42.2115C51.9745 42.0036 52.2094 41.459 52.2094 40.7397C52.2094 39.9394 52.0016 39.4072 51.6461 39.2035C51.3946 39.0621 51.0807 39.0143 50.5797 39.0143H49.5611V42.4464H50.5589Z" fill="white"/>
<path d="M61.4518 48.777H58.5977V37.7095H61.4518V48.777Z" fill="white"/>
<path d="M13.2489 58.7842C12.3717 58.7842 11.852 59.3455 11.852 60.6821C11.852 61.9294 12.3238 62.5031 13.1907 62.5031C13.5732 62.5107 13.9506 62.4136 14.2821 62.2225V62.605C13.9239 62.7728 13.5321 62.8567 13.1366 62.8503C12.0619 62.8503 11.3447 62.2267 11.3447 60.7258C11.3447 59.2249 12.0744 58.462 13.2364 58.462C13.587 58.4579 13.9353 58.5192 14.2633 58.6428V59.0232C13.9497 58.8623 13.6015 58.7802 13.2489 58.7842Z" fill="#B78B1E"/>
<path d="M16.433 62.8505C15.2814 62.8505 14.7139 62.127 14.7139 60.6594C14.7139 59.1502 15.4186 58.4622 16.5162 58.4622C17.6865 58.4622 18.2166 59.1731 18.2166 60.5929C18.2166 62.1042 17.6387 62.8505 16.433 62.8505ZM16.4933 58.7615C15.6618 58.7615 15.2149 59.3581 15.2149 60.647C15.2149 62.0314 15.6805 62.5511 16.4455 62.5511C17.2978 62.5511 17.7156 61.9732 17.7156 60.6407C17.7156 59.3768 17.3643 58.7615 16.4933 58.7615Z" fill="#B78B1E"/>
<path d="M18.8105 61.3166V60.9009H20.3156V61.3166H18.8105Z" fill="#B78B1E"/>
<path d="M22.6274 62.8505C21.4757 62.8505 20.9082 62.127 20.9082 60.6594C20.9082 59.1502 21.6129 58.4622 22.7105 58.4622C23.8809 58.4622 24.413 59.1731 24.413 60.5929C24.413 62.1042 23.8331 62.8505 22.6274 62.8505ZM22.6876 58.7615C21.8561 58.7615 21.4092 59.3581 21.4092 60.647C21.4092 62.0314 21.8748 62.5511 22.6398 62.5511C23.4921 62.5511 23.91 61.9732 23.91 60.6407C23.91 59.3768 23.5587 58.7615 22.6876 58.7615Z" fill="#B78B1E"/>
<path d="M26.5649 60.9581H25.8082V62.7667H25.3301V58.5509H26.6106C26.9324 58.5352 27.2542 58.5782 27.5606 58.6776C27.966 58.8315 28.1697 59.2015 28.1697 59.6859C28.1697 60.2222 27.9494 60.7481 27.3943 60.8729C27.1217 60.931 26.8436 60.9596 26.5649 60.9581ZM26.5774 60.6525C26.839 60.6691 27.1004 60.6175 27.3361 60.5028C27.5565 60.3719 27.6646 60.0871 27.6646 59.7046C27.677 59.5638 27.6527 59.4221 27.5941 59.2935C27.5354 59.1649 27.4444 59.0537 27.3299 58.9708C27.1054 58.8684 26.8586 58.8247 26.6127 58.844H25.8082V60.6525H26.5774Z" fill="#B78B1E"/>
<path d="M32.1151 58.7842C31.2379 58.7842 30.7182 59.3455 30.7182 60.6821C30.7182 61.9294 31.19 62.5031 32.0548 62.5031C32.4381 62.511 32.8162 62.4139 33.1483 62.2225V62.605C32.79 62.7725 32.3983 62.8564 32.0029 62.8503C30.9281 62.8503 30.2109 62.2267 30.2109 60.7258C30.2109 59.2249 30.9385 58.462 32.1026 58.462C32.4532 58.4579 32.8015 58.5192 33.1296 58.6428V59.0232C32.8158 58.8626 32.4676 58.7805 32.1151 58.7842Z" fill="#B78B1E"/>
<path d="M35.2944 62.8508C34.1427 62.8508 33.5752 62.1274 33.5752 60.6598C33.5752 59.1506 34.2799 58.4625 35.3775 58.4625C36.5479 58.4625 37.078 59.1735 37.078 60.5933C37.078 62.1046 36.5001 62.8508 35.2944 62.8508ZM35.3546 58.7619C34.5231 58.7619 34.0762 59.3585 34.0762 60.6473C34.0762 62.0318 34.5418 62.5515 35.3068 62.5515C36.1591 62.5515 36.577 61.9736 36.577 60.6411C36.5832 59.3772 36.2257 58.7619 35.3546 58.7619Z" fill="#B78B1E"/>
<path d="M40.7135 62.7671C38.9237 59.9732 38.6909 59.6322 38.3687 59.1021C38.3874 59.9607 38.3874 60.9107 38.3874 62.7671H38.0049V58.5513H38.5537C40.1647 60.9938 40.5348 61.578 40.8216 62.0977C40.8029 61.2433 40.7988 60.6592 40.7988 58.5513H41.1854V62.7671H40.7135Z" fill="#B78B1E"/>
<path d="M43.3597 60.8842L42.9543 60.7116C42.3307 60.4414 42.0646 60.1254 42.0646 59.5704C42.0646 58.8844 42.5718 58.4541 43.3534 58.4541C43.6808 58.4495 44.0056 58.5124 44.3076 58.6391V59.0403C44.0208 58.8746 43.697 58.7839 43.3659 58.7763C42.8109 58.7763 42.499 59.0154 42.499 59.5288C42.499 59.7866 42.6487 60.036 43.1435 60.2522L43.5384 60.4248C44.266 60.7532 44.4988 61.0879 44.4988 61.6596C44.4988 62.3456 43.975 62.8424 43.0853 62.8424C42.7119 62.8414 42.3424 62.7666 41.998 62.6221V62.2063C42.3309 62.3997 42.7067 62.5069 43.0915 62.5181C43.7525 62.5181 44.0332 62.1709 44.0332 61.6513C44.0332 61.3332 43.8253 61.0921 43.3597 60.8842Z" fill="#B78B1E"/>
<path d="M48.4948 61.0583C48.4948 61.6819 48.447 61.9667 48.2869 62.2349C48.079 62.6298 47.578 62.8585 46.9086 62.8585C46.285 62.8585 45.7217 62.6673 45.4951 62.1538C45.3694 61.808 45.3163 61.44 45.3392 61.0728V58.5533H45.8173V61.0604C45.8035 61.3728 45.8414 61.6854 45.9295 61.9854C46.0501 62.3326 46.4264 62.53 46.9398 62.53C47.2277 62.552 47.5142 62.4734 47.7506 62.3077C47.9709 62.0998 48.0541 61.8129 48.0541 61.0915V58.5533H48.4844L48.4948 61.0583Z" fill="#B78B1E"/>
<path d="M50.0854 62.4739H51.8461V62.7671H49.6094V58.5513H50.0854V62.4739Z" fill="#B78B1E"/>
<path d="M54.8364 58.8444H53.481V62.7671H53.0091V58.8444H51.6953V58.5513H54.8405L54.8364 58.8444Z" fill="#B78B1E"/>
<path d="M57.0158 61.3004H55.5191L55.0057 62.7556H54.5566L56.1095 58.5398H56.5876L58.0303 62.7556H57.5127L57.0158 61.3004ZM56.9202 61.0011C56.4858 59.6894 56.4088 59.4212 56.2966 59.0574C56.1843 59.39 56.1053 59.6353 55.6293 61.0011H56.9202Z" fill="#B78B1E"/>
<path d="M61.3255 62.7671C59.5356 59.9732 59.3028 59.6322 58.9785 59.1021C58.9972 59.9607 58.9972 60.9107 58.9972 62.7671H58.623V58.5513H59.1739C60.785 60.9938 61.155 61.578 61.4398 62.0977C61.4232 61.2433 61.4169 60.6592 61.4169 58.5513H61.8057V62.7671H61.3255Z" fill="#B78B1E"/>
<path d="M64.5594 58.7838C63.6822 58.7838 63.1625 59.3451 63.1625 60.6817C63.1625 61.929 63.6344 62.5027 64.4992 62.5027C64.8817 62.5105 65.2591 62.4134 65.5905 62.2221V62.6046C65.2323 62.7724 64.8406 62.8563 64.4451 62.8499C63.3704 62.8499 62.6553 62.2263 62.6553 60.7254C62.6553 59.2245 63.3828 58.4616 64.547 58.4616C64.8975 58.4579 65.2457 58.5192 65.5739 58.6424V59.0228C65.2601 58.8622 64.912 58.7801 64.5594 58.7838Z" fill="#B78B1E"/>
<path d="M67.3135 62.7671V61.0354L65.8105 58.5513H66.4009C67.2324 59.996 67.4091 60.3016 67.6004 60.6529C67.8083 60.3016 67.9413 60.0501 68.8061 58.5513H69.3549L67.7916 61.0354V62.7671H67.3135Z" fill="#B78B1E"/>
<path d="M75.5171 59.9196C75.3445 60.1586 74.9787 60.4393 74.3176 60.7511C74.4594 60.9295 74.5429 61.1472 74.5567 61.3747C74.5567 62.5077 73.6836 62.8548 72.7648 62.8548C71.9 62.8548 71.1475 62.5139 71.1475 61.6304C71.1475 60.9195 71.5487 60.6513 72.0018 60.5141C71.81 60.4628 71.6418 60.3468 71.5256 60.1859C71.4093 60.0249 71.3521 59.8288 71.3637 59.6306C71.3637 58.849 71.9873 58.5205 72.7585 58.5205C73.0736 58.5111 73.3876 58.562 73.6836 58.6702V59.0465C73.4052 58.9027 73.0967 58.8272 72.7835 58.8261C72.1598 58.8261 71.8459 59.0943 71.8459 59.6306C71.8424 59.734 71.8603 59.837 71.8984 59.9332C71.9365 60.0294 71.994 60.1167 72.0673 60.1897C72.1407 60.2626 72.2283 60.3197 72.3247 60.3573C72.4211 60.3948 72.5242 60.4121 72.6276 60.4081H72.7585V60.6929H72.6047C72.0434 60.6929 71.6485 60.9673 71.6485 61.6117C71.6485 62.3538 72.2513 62.5555 72.771 62.5555C73.4632 62.5555 74.1264 62.3476 74.1264 61.3498C74.1242 61.1805 74.0918 61.0129 74.0307 60.855C73.7167 60.9762 73.3934 61.0721 73.0641 61.1419L72.981 60.8259C74.3779 60.4434 74.9142 60.0069 75.224 59.6368L75.5171 59.9196Z" fill="#B78B1E"/>
<path d="M1.08097 65.7167C1.28885 65.7167 1.49673 65.7271 1.64848 65.7396C2.24509 65.7874 2.58602 66.1283 2.58602 66.7665C2.59779 66.981 2.53452 67.1929 2.40707 67.3659C2.27962 67.5389 2.09593 67.6621 1.88754 67.7144C2.13322 67.7402 2.35912 67.8609 2.51714 68.0507C2.67517 68.2406 2.75284 68.4846 2.73361 68.7309C2.74743 68.9609 2.68783 69.1893 2.56341 69.3832C2.43899 69.5771 2.25619 69.7265 2.04137 69.8098C1.73057 69.905 1.40566 69.9458 1.08097 69.9304H0V65.7167H1.08097ZM1.11631 67.5876C1.33983 67.6057 1.5642 67.5649 1.76697 67.4691C1.87719 67.3933 1.96593 67.2903 2.02457 67.1701C2.08322 67.0499 2.10977 66.9166 2.10166 66.7831C2.11598 66.6359 2.08351 66.488 2.00886 66.3603C1.93422 66.2327 1.8212 66.1318 1.6859 66.0721C1.48189 66.0224 1.27217 66 1.06226 66.0056H0.465649V67.5876H1.11631ZM1.11631 69.6352C1.36036 69.651 1.60494 69.6141 1.83349 69.5271C1.97164 69.4517 2.08466 69.3376 2.15856 69.1986C2.23246 69.0597 2.26399 68.9021 2.24925 68.7455C2.25679 68.5915 2.22203 68.4384 2.14873 68.3029C2.07544 68.1673 1.96642 68.0543 1.83349 67.9763C1.61715 67.8931 1.38464 67.8604 1.15373 67.8807H0.465649V69.6352H1.11631Z" fill="#B78B1E"/>
<path d="M5.33323 68.4672H3.83443L3.32096 69.9223H2.87402L4.4248 65.7086H4.90292L6.35808 69.9223H5.82175L5.33323 68.4672ZM5.23761 68.1699C4.80106 66.8561 4.72415 66.5879 4.61397 66.2242C4.50172 66.5568 4.4248 66.8021 3.94668 68.1699H5.23761Z" fill="#B78B1E"/>
<path d="M9.64226 69.9304C7.85242 67.1365 7.61959 66.7955 7.29738 66.2655C7.31401 67.124 7.31401 68.074 7.31401 69.9304H6.93359V65.7167H7.48447C9.09554 68.1572 9.46556 68.7413 9.75244 69.2506C9.73373 68.3962 9.72749 67.8121 9.72749 65.7167H10.1162V69.9304H9.64226Z" fill="#B78B1E"/>
<path d="M12.87 65.9495C11.9927 65.9495 11.473 66.5087 11.473 67.8474C11.473 69.0947 11.9449 69.6664 12.8097 69.6664C13.193 69.6742 13.571 69.5772 13.9032 69.3857V69.7682C13.5441 69.9357 13.1518 70.0196 12.7557 70.0135C11.683 70.0135 10.9658 69.3899 10.9658 67.889C10.9658 66.3881 11.6934 65.6273 12.8575 65.6273C13.2079 65.6229 13.5561 65.6835 13.8844 65.806V66.1865C13.5701 66.0275 13.2222 65.9462 12.87 65.9495Z" fill="#B78B1E"/>
<path d="M16.4934 68.4672H14.9946L14.4811 69.9223H14.0342L15.587 65.7086H16.0631L17.5078 69.9223H16.9881L16.4934 68.4672ZM16.3978 68.1699C15.9633 66.8561 15.8843 66.5879 15.7741 66.2242C15.6598 66.5568 15.5829 66.8021 15.1048 68.1699H16.3978Z" fill="#B78B1E"/>
<path d="M19.1457 68.0547L18.7403 67.8822C18.1167 67.614 17.8506 67.2981 17.8506 66.7409C17.8506 66.0549 18.3578 65.6267 19.1394 65.6267C19.4676 65.6209 19.7933 65.6839 20.0957 65.8117V66.2108C19.808 66.0458 19.4835 65.9558 19.1519 65.9489C18.5969 65.9489 18.2871 66.1859 18.2871 66.6993C18.2871 66.9571 18.4368 67.2066 18.9315 67.4228L19.3244 67.5953C20.0541 67.9238 20.2869 68.2584 20.2869 68.8301C20.2869 69.5182 19.761 70.013 18.8713 70.013C18.4985 70.012 18.1297 69.9371 17.7861 69.7926V69.3768C18.1188 69.5686 18.4937 69.675 18.8775 69.6866C19.5406 69.6866 19.8213 69.3394 19.8213 68.8218C19.8213 68.4975 19.6113 68.2584 19.1457 68.0547Z" fill="#B78B1E"/>
<path d="M22.2605 68.0548L21.8448 67.8823C21.2212 67.6142 20.9551 67.2982 20.9551 66.7411C20.9551 66.0551 21.4623 65.6268 22.2439 65.6268C22.5721 65.621 22.8978 65.684 23.2002 65.8118V66.2109C22.9125 66.0459 22.588 65.9559 22.2564 65.9491C21.7014 65.9491 21.3916 66.186 21.3916 66.6995C21.3916 66.9572 21.5413 67.2067 22.036 67.4229L22.4289 67.5954C23.1586 67.9239 23.3914 68.2586 23.3914 68.8302C23.3914 69.5183 22.8655 70.0131 21.9758 70.0131C21.603 70.0121 21.2342 69.9372 20.8906 69.7927V69.377C21.2234 69.5684 21.5983 69.6748 21.982 69.6867C22.6451 69.6867 22.9258 69.3395 22.9258 68.8219C22.9362 68.4976 22.7262 68.2586 22.2605 68.0548Z" fill="#B78B1E"/>
<path d="M27.4051 68.2239C27.4051 68.8476 27.3573 69.1303 27.2077 69.3984C26.9998 69.7934 26.4967 70.0221 25.8294 70.0221C25.2058 70.0221 24.6403 69.8308 24.4138 69.3174C24.2899 68.9712 24.2375 68.6034 24.2599 68.2364V65.719H24.7401V68.226C24.726 68.5386 24.7647 68.8513 24.8545 69.1511C24.973 69.4962 25.3492 69.6936 25.8627 69.6936C26.1508 69.7151 26.4376 69.6373 26.6755 69.4733C26.8958 69.2654 26.979 68.9764 26.979 68.2551V65.719H27.4093L27.4051 68.2239Z" fill="#B78B1E"/>
<path d="M30.9731 69.9306L30.7216 68.8559C30.6322 68.4859 30.495 68.2114 30.3058 68.0971C30.1059 67.9924 29.8801 67.9469 29.6552 67.9661H28.9879V69.9306H28.5098V65.7169H29.7758C30.1029 65.6983 30.4307 65.7406 30.7424 65.8417C31.1124 65.9976 31.2912 66.301 31.2912 66.802C31.2912 67.3633 30.9981 67.698 30.4597 67.8165C30.8546 67.9246 31.0397 68.1345 31.1935 68.7894L31.47 69.9306H30.9731ZM29.7383 67.6689C29.9928 67.6889 30.248 67.6415 30.4784 67.5317C30.5887 67.4498 30.6759 67.3407 30.7313 67.2149C30.7867 67.0892 30.8084 66.9512 30.7944 66.8145C30.7944 66.4861 30.7216 66.2117 30.4721 66.1036C30.256 66.0254 30.0259 65.9928 29.7965 66.0079H28.992V67.671L29.7383 67.6689Z" fill="#B78B1E"/>
<path d="M34.1994 68.4672H32.7006L32.1872 69.9223H31.7402L33.291 65.7086H33.7691L35.2139 69.9223H34.6942L34.1994 68.4672ZM34.1038 68.1699C33.6673 66.8561 33.5904 66.5879 33.4802 66.2242C33.3679 66.5568 33.291 66.8021 32.8129 68.1699H34.1038Z" fill="#B78B1E"/>
<path d="M38.5104 69.9305C36.7206 67.1366 36.4878 66.7957 36.1655 66.2656C36.1822 67.1241 36.1822 68.0742 36.1822 69.9305H35.8018V65.7168H36.3506C37.9616 68.1573 38.3316 68.7414 38.6185 69.2507C38.5998 68.3964 38.5936 67.8122 38.5936 65.7168H38.9823V69.9305H38.5104Z" fill="#B78B1E"/>
<path d="M41.7391 65.9495C40.8619 65.9495 40.3422 66.5087 40.3422 67.8474C40.3422 69.0947 40.8141 69.6664 41.6788 69.6664C42.0621 69.6742 42.4402 69.5772 42.7723 69.3857V69.7682C42.4133 69.9357 42.0209 70.0196 41.6248 70.0135C40.5521 70.0135 39.835 69.3899 39.835 67.889C39.835 66.3881 40.5625 65.6273 41.7267 65.6273C42.0771 65.6229 42.4253 65.6835 42.7536 65.806V66.1865C42.4393 66.0275 42.0914 65.9462 41.7391 65.9495Z" fill="#B78B1E"/>
<path d="M44.0055 66.0078V67.5835H45.8182V67.8829H44.0055V69.6374H45.9803V69.9305H43.5273V65.7168H45.9138V66.0078H44.0055Z" fill="#B78B1E"/>
<path d="M48.6412 69.9304H48.1631V65.7167H48.6412V69.9304Z" fill="#B78B1E"/>
<path d="M52.4695 69.9305C50.6776 67.1366 50.4448 66.7957 50.1226 66.2656C50.1413 67.1241 50.1413 68.0742 50.1413 69.9305H49.7588V65.7168H50.3055C51.9166 68.1573 52.2866 68.7414 52.5735 69.2507C52.5568 68.3964 52.5506 67.8122 52.5506 65.7168H52.9373V69.9305H52.4695Z" fill="#B78B1E"/>
<path d="M56.7041 66.0078H55.3488V69.9305H54.8811V66.0078H53.5693V65.7168H56.7145L56.7041 66.0078Z" fill="#B78B1E"/>
<path d="M57.8141 66.0078V67.5835H59.6288V67.8829H57.8141V69.6374H59.7889V69.9305H57.3359V65.7168H59.7245V66.0078H57.8141Z" fill="#B78B1E"/>
<path d="M63.019 69.9306L62.7675 68.8559C62.6781 68.4859 62.5409 68.2114 62.3517 68.0971C62.1516 67.9927 61.926 67.9473 61.7011 67.9661H61.0338V69.9306H60.5557V65.7169H61.8217C62.1488 65.6983 62.4766 65.7406 62.7883 65.8417C63.1583 65.9976 63.3371 66.301 63.3371 66.802C63.3371 67.3633 63.044 67.698 62.4952 67.8165C62.8902 67.9246 63.0752 68.1345 63.229 68.7894L63.5034 69.9306H63.019ZM61.7842 67.6689C62.0387 67.6889 62.2939 67.6415 62.5243 67.5317C62.6346 67.4498 62.7218 67.3407 62.7772 67.2149C62.8326 67.0892 62.8543 66.9512 62.8403 66.8145C62.8403 66.4861 62.7675 66.2117 62.518 66.1036C62.3019 66.0254 62.0718 65.9928 61.8424 66.0079H61.0379V67.671L61.7842 67.6689Z" fill="#B78B1E"/>
<path d="M67.7355 69.9305C67.6814 67.5066 67.6814 66.9391 67.6814 66.0972C67.4736 66.8082 67.3343 67.2073 66.3988 69.9305H65.9976C65.0726 67.3341 64.9478 66.9994 64.6381 66.1035C64.6381 66.9932 64.6381 67.6147 64.5778 69.9305H64.1953C64.3034 65.7334 64.3034 65.7168 64.3034 65.7168H65.0019C65.8729 68.1635 66.0413 68.5689 66.2907 69.2923C66.482 68.652 66.6358 68.176 67.4777 65.7168H68.1409C68.1409 65.7168 68.1409 65.7168 68.2365 69.9305H67.7355Z" fill="#B78B1E"/>
<path d="M69.7583 66.0078V67.5835H71.5731V67.8829H69.7583V69.6374H71.7352V69.9305H69.2822V65.7168H71.6687V66.0078H69.7583Z" fill="#B78B1E"/>
<path d="M72.5043 65.7167H73.6019C73.9715 65.7051 74.3409 65.745 74.6995 65.8352C75.4104 66.0326 75.7389 66.6958 75.7389 67.7643C75.7389 68.5958 75.4998 69.4938 74.6704 69.7807C74.2958 69.9059 73.9003 69.9567 73.5063 69.9304H72.498L72.5043 65.7167ZM72.9803 69.6373H73.604C74.08 69.6373 74.4022 69.5707 74.6434 69.4107C75.0134 69.1529 75.242 68.5937 75.242 67.7643C75.242 67.0658 75.0924 66.438 74.5851 66.1761C74.2693 66.0461 73.9283 65.9886 73.5873 66.0077H72.9845L72.9803 69.6373Z" fill="#B78B1E"/>
<path d="M77.1432 69.9305H76.665V65.7168H77.1432V69.9305Z" fill="#B78B1E"/>
<path d="M80.1623 68.4672H78.6635L78.1501 69.9223H77.7031L79.2539 65.7086H79.732L81.1768 69.9223H80.655L80.1623 68.4672ZM80.0667 68.1699C79.6302 66.8561 79.5533 66.5879 79.4431 66.2242C79.3287 66.5568 79.2518 66.8021 78.7737 68.1699H80.0667Z" fill="#B78B1E"/>
<path d="M84.2231 69.9306L83.9716 68.8559C83.8822 68.4858 83.745 68.2114 83.5558 68.0971C83.3557 67.9927 83.1301 67.9473 82.9052 67.9661H82.2358V69.9306H81.7598V65.7169H83.0237C83.3515 65.6983 83.6799 65.7407 83.9924 65.8416C84.3603 65.9976 84.5412 66.301 84.5412 66.802C84.5412 67.3633 84.2481 67.698 83.7097 67.8165C84.1026 67.9246 84.2876 68.1345 84.4435 68.7894L84.7179 69.9306H84.2231ZM82.9759 67.6689C83.2303 67.6895 83.4857 67.6422 83.7159 67.5317C83.8266 67.4501 83.914 67.341 83.9694 67.2152C84.0248 67.0893 84.0464 66.9512 84.0319 66.8145C84.0319 66.4861 83.9612 66.2117 83.7097 66.1036C83.4942 66.0256 83.2648 65.993 83.0361 66.0079H82.2296V67.671L82.9759 67.6689Z" fill="#B78B1E"/>
<path d="M86.3379 69.9305V68.1989L84.835 65.7168H85.4253C86.2569 67.1595 86.4336 67.4651 86.6248 67.8164C86.8327 67.4651 86.9657 67.2135 87.8305 65.7168H88.3793L86.816 68.1989V69.9305H86.3379Z" fill="#B78B1E"/>
<path d="M18.1134 74.3957H17.2652L16.9763 75.2273H16.7227L17.5999 72.845H17.8785L18.6954 75.2273H18.4023L18.1134 74.3957ZM18.0593 74.2273C17.814 73.4852 17.7683 73.3335 17.7018 73.1277C17.6373 73.3169 17.5937 73.454 17.3234 74.2273H18.0593Z" fill="#483729"/>
<path d="M20.0821 75.0985C20.3586 75.0985 20.4605 74.9842 20.4605 74.8033C20.4605 74.6224 20.3565 74.5684 20.1632 74.4873L20.0177 74.4271C19.9167 74.3971 19.8279 74.3355 19.7647 74.2513C19.7014 74.167 19.6669 74.0647 19.6664 73.9593C19.6664 73.6641 19.8742 73.4812 20.2484 73.4812C20.383 73.4794 20.517 73.4991 20.6455 73.5394V73.7473C20.5181 73.6776 20.3748 73.6425 20.2297 73.6454C20.1885 73.6408 20.1468 73.6448 20.1072 73.6572C20.0676 73.6697 20.0311 73.6903 20 73.7177C19.9688 73.7451 19.9438 73.7787 19.9264 73.8164C19.9091 73.8541 19.8998 73.895 19.8992 73.9365C19.8992 74.0612 19.974 74.1443 20.1258 74.2088L20.3045 74.2878C20.5997 74.4187 20.7099 74.5372 20.7099 74.7742C20.7099 75.0881 20.4812 75.2689 20.0717 75.2689C19.9143 75.2663 19.7587 75.2353 19.6123 75.1775V74.9696C19.7558 75.051 19.9172 75.0953 20.0821 75.0985Z" fill="#483729"/>
<path d="M21.3625 74.4606C21.3563 74.6048 21.3668 74.7491 21.3937 74.8909C21.4122 74.9576 21.4541 75.0153 21.5118 75.0535C21.5695 75.0917 21.639 75.1078 21.7076 75.0988C21.7825 75.1002 21.8569 75.0859 21.926 75.0569C21.9951 75.0279 22.0573 74.9848 22.1088 74.9304C22.1837 74.8493 22.1878 74.7953 22.1878 74.5749V73.5355H22.4373V74.6622C22.4362 74.854 22.4473 75.0456 22.4705 75.236H22.2169C22.2039 75.1715 22.1948 75.1062 22.1899 75.0406C22.1191 75.1207 22.031 75.1838 21.9324 75.2252C21.8338 75.2666 21.7271 75.2852 21.6203 75.2796C21.5115 75.2955 21.4007 75.2686 21.3112 75.2047C21.2217 75.1408 21.1604 75.0447 21.1401 74.9366C21.1174 74.8063 21.1076 74.6739 21.111 74.5417V73.5355H21.3625V74.4606Z" fill="#483729"/>
<path d="M23.0039 75.2273C23.0143 75.1067 23.0185 74.9134 23.0185 74.772V72.7098H23.2679V73.7763C23.3296 73.6879 23.4117 73.6157 23.5073 73.5658C23.6028 73.5158 23.7089 73.4896 23.8167 73.4894C24.2325 73.4894 24.4736 73.77 24.4736 74.3334C24.4736 74.9778 24.1951 75.2605 23.771 75.2605C23.6728 75.2664 23.5746 75.2497 23.4838 75.2119C23.393 75.1741 23.3121 75.1161 23.2471 75.0422C23.2448 75.1042 23.2393 75.1659 23.2305 75.2273H23.0039ZM23.3386 74.8905C23.3774 74.9581 23.4344 75.0134 23.5031 75.0502C23.5719 75.0869 23.6496 75.1036 23.7273 75.0984C24.0308 75.0984 24.2054 74.8655 24.2054 74.3251C24.2054 73.849 24.0308 73.6474 23.744 73.6474C23.6619 73.6484 23.5816 73.6708 23.5109 73.7124C23.4402 73.7539 23.3815 73.8132 23.3407 73.8844C23.2804 74.0419 23.2562 74.211 23.27 74.3791C23.2556 74.5525 23.279 74.727 23.3386 74.8905Z" fill="#483729"/>
<path d="M25.2127 75.0985C25.4892 75.0985 25.591 74.9842 25.591 74.8033C25.591 74.6224 25.4871 74.5684 25.2938 74.4873L25.1482 74.4271C25.0472 74.3971 24.9585 74.3355 24.8953 74.2513C24.832 74.167 24.7975 74.0647 24.7969 73.9593C24.7969 73.6641 25.0048 73.4812 25.379 73.4812C25.5136 73.4794 25.6476 73.4991 25.776 73.5394V73.7473C25.6518 73.6794 25.5123 73.6443 25.3707 73.6454C25.3295 73.6408 25.2877 73.6448 25.2482 73.6572C25.2086 73.6697 25.1721 73.6903 25.1409 73.7177C25.1098 73.7451 25.0848 73.7787 25.0674 73.8164C25.05 73.8541 25.0408 73.895 25.0402 73.9365C25.0402 74.0612 25.115 74.1443 25.2667 74.2088L25.4455 74.2878C25.7386 74.4187 25.8613 74.5372 25.8613 74.7742C25.8613 75.0881 25.6326 75.2689 25.2231 75.2689C25.0657 75.2663 24.9101 75.2353 24.7637 75.1775V74.9696C24.9009 75.0477 25.0549 75.0919 25.2127 75.0985Z" fill="#483729"/>
<path d="M26.3687 73.167C26.2647 73.167 26.2148 73.1316 26.2148 72.9986C26.2148 72.8656 26.2689 72.8302 26.377 72.8302C26.4851 72.8302 26.5287 72.8718 26.5287 72.9986C26.5287 73.1254 26.4768 73.167 26.3687 73.167ZM26.2439 75.2271V73.5266H26.5017V75.2271H26.2439Z" fill="#483729"/>
<path d="M27.6246 75.2648C27.2088 75.2648 26.9531 74.9717 26.9531 74.4C26.9531 73.6641 27.3689 73.4895 27.6786 73.4895C27.8511 73.4786 28.0212 73.5336 28.1547 73.6433V72.71H28.4041V74.8303C28.4045 74.9633 28.415 75.096 28.4353 75.2274H28.1921C28.1817 75.1775 28.1671 75.059 28.1609 75.005C28.0987 75.0879 28.0175 75.1547 27.9242 75.1999C27.8309 75.2451 27.7282 75.2673 27.6246 75.2648ZM28.0632 73.7722C28.0149 73.7265 27.9576 73.6914 27.895 73.6692C27.8323 73.647 27.7657 73.6382 27.6994 73.6433C27.4312 73.6433 27.2088 73.8637 27.2088 74.3979C27.2088 74.8906 27.3959 75.1068 27.6682 75.1068C27.7314 75.1121 27.795 75.1029 27.8541 75.0798C27.9132 75.0568 27.9662 75.0205 28.0092 74.9738C28.111 74.8657 28.1505 74.7493 28.1505 74.3501C28.1505 73.951 28.1443 73.8575 28.0632 73.7722Z" fill="#483729"/>
<path d="M29.0855 73.167C28.9815 73.167 28.9316 73.1316 28.9316 72.9986C28.9316 72.8656 28.9857 72.8302 29.0938 72.8302C29.2019 72.8302 29.2455 72.8718 29.2455 72.9986C29.2455 73.1254 29.1936 73.167 29.0855 73.167ZM28.9607 75.2271V73.5266H29.2185V75.2271H28.9607Z" fill="#483729"/>
<path d="M30.7199 74.9908C30.6691 75.0817 30.5934 75.1562 30.5017 75.2055C30.41 75.2549 30.3061 75.277 30.2023 75.2693C30.1314 75.2756 30.06 75.2667 29.9928 75.2431C29.9257 75.2195 29.8644 75.1819 29.813 75.1327C29.7616 75.0834 29.7213 75.0238 29.6949 74.9577C29.6685 74.8916 29.6565 74.8207 29.6597 74.7496C29.6597 74.417 29.9092 74.232 30.4912 74.232H30.6991V74.0802C30.7078 73.9694 30.6808 73.8587 30.6222 73.7643C30.587 73.7257 30.5433 73.6959 30.4946 73.6771C30.4459 73.6584 30.3935 73.6512 30.3415 73.6562C30.1552 73.6548 29.9718 73.7021 29.8094 73.7934V73.598C29.9865 73.5181 30.1784 73.4763 30.3727 73.4753C30.5319 73.4613 30.6904 73.5089 30.8155 73.6084C30.868 73.6688 30.9072 73.7397 30.9305 73.8164C30.9538 73.893 30.9607 73.9737 30.9506 74.0532V74.8473C30.9454 74.9736 30.9601 75.0998 30.9943 75.2215H30.7635C30.7416 75.1462 30.727 75.0689 30.7199 74.9908ZM30.5473 74.3671C30.0609 74.3671 29.9237 74.5334 29.9237 74.7351C29.9184 74.7816 29.9234 74.8287 29.9384 74.8731C29.9533 74.9175 29.9778 74.9581 30.0101 74.992C30.0424 75.0259 30.0817 75.0523 30.1254 75.0693C30.169 75.0863 30.2158 75.0936 30.2625 75.0905C30.335 75.0906 30.4066 75.0741 30.4717 75.0424C30.5369 75.0107 30.5941 74.9646 30.6388 74.9076C30.6999 74.8211 30.7286 74.7159 30.7199 74.6103V74.3713C30.6658 74.3734 30.6014 74.3734 30.5557 74.3734L30.5473 74.3671Z" fill="#483729"/>
<path d="M31.5333 75.2268V74.0419C31.5339 73.8695 31.5228 73.6972 31.5 73.5263H31.7495C31.7652 73.6086 31.7742 73.692 31.7765 73.7758C31.8134 73.695 31.8715 73.6258 31.9448 73.5757C32.0181 73.5255 32.1036 73.4962 32.1922 73.491C32.2541 73.4904 32.3157 73.4988 32.3752 73.5159V73.7488C32.3054 73.7198 32.2304 73.7057 32.1548 73.7072C32.0996 73.7044 32.0445 73.7153 31.9945 73.7389C31.9445 73.7624 31.901 73.798 31.8679 73.8423C31.802 73.9509 31.7708 74.0771 31.7786 74.204V75.2268H31.5333Z" fill="#483729"/>
<path d="M33.4679 75.394C33.4275 75.5321 33.3717 75.6653 33.3016 75.791C33.2572 75.8597 33.1952 75.9152 33.1221 75.9517C33.049 75.9883 32.9674 76.0046 32.8858 75.9989C32.8297 75.9988 32.7739 75.9918 32.7195 75.9781V75.7972C32.7711 75.8112 32.8241 75.8189 32.8775 75.8201C32.9194 75.823 32.9613 75.8167 33.0005 75.8016C33.0396 75.7865 33.075 75.7631 33.1041 75.7328C33.1802 75.6321 33.2346 75.5167 33.2642 75.394L33.314 75.236H33.2184L32.5615 73.5355H32.8442C33.1831 74.446 33.3037 74.7828 33.3951 75.0613C33.47 74.8119 33.5739 74.4377 33.8608 73.5355H34.104L33.4679 75.394Z" fill="#483729"/>
<path d="M35.8386 75.2697C35.3563 75.2697 35.1006 74.962 35.1006 74.3779C35.1006 73.7938 35.3895 73.4819 35.8697 73.4819C36.3499 73.4819 36.5932 73.7522 36.5932 74.3737C36.5869 74.935 36.3666 75.2697 35.8386 75.2697ZM35.8635 73.6358C35.5496 73.6358 35.3625 73.8686 35.3625 74.3821C35.3625 74.8955 35.5247 75.12 35.8531 75.12C36.1816 75.12 36.3292 74.8228 36.3292 74.3717C36.3292 73.8644 36.194 73.6358 35.8635 73.6358Z" fill="#483729"/>
<path d="M37.1237 73.6787H36.8389V73.527H37.1237V73.371C37.1063 73.1949 37.148 73.0179 37.2422 72.868C37.2959 72.8064 37.3629 72.7579 37.4382 72.7262C37.5135 72.6945 37.5951 72.6804 37.6766 72.6851C37.7604 72.6842 37.8441 72.6926 37.9261 72.71V72.9054C37.8561 72.8796 37.7824 72.8656 37.7078 72.8638C37.6171 72.8615 37.5287 72.8934 37.4604 72.9532C37.3887 73.0647 37.3592 73.1982 37.3773 73.3295V73.5374H37.7577V73.6891H37.3773V75.2378H37.1237V73.6787Z" fill="#483729"/>
<path d="M39.4461 75.2527C39.3735 75.2633 39.2993 75.2527 39.2325 75.2221C39.1657 75.1914 39.1093 75.1421 39.0699 75.0801C39.0211 74.9662 39.0018 74.8418 39.0138 74.7184V73.679H38.7539V73.5273H39.0138C39.0138 73.5273 39.0138 73.3339 39.0366 73.0865H39.2674V73.5273H39.6478V73.679H39.2674V74.7184C39.2609 74.8091 39.2722 74.9002 39.3006 74.9866C39.3211 75.018 39.3497 75.0432 39.3834 75.0597C39.417 75.0762 39.4545 75.0832 39.4919 75.0801C39.5623 75.08 39.6324 75.0695 39.6998 75.0489V75.2194C39.6167 75.2398 39.5317 75.251 39.4461 75.2527Z" fill="#483729"/>
<path d="M41.0974 74.2793C41.1033 74.1399 41.0921 74.0003 41.0642 73.8636C41.0479 73.7977 41.008 73.7402 40.952 73.7018C40.8961 73.6635 40.828 73.6471 40.7607 73.6557C40.6836 73.653 40.6069 73.6664 40.5353 73.6951C40.4637 73.7237 40.3989 73.7669 40.3449 73.822C40.2784 73.9051 40.2722 73.9758 40.2722 74.165V75.2252H40.0186V72.7078H40.2742V73.7222C40.3495 73.6441 40.44 73.5822 40.5401 73.5403C40.6402 73.4985 40.7478 73.4776 40.8563 73.479C40.9655 73.4642 41.076 73.4933 41.1637 73.56C41.2514 73.6266 41.3091 73.7254 41.324 73.8345C41.3449 73.9629 41.3519 74.0933 41.3448 74.2232V75.2252H41.0954L41.0974 74.2793Z" fill="#483729"/>
<path d="M42.0518 74.3732C42.0518 74.8534 42.2473 75.0987 42.5965 75.0987C42.78 75.0981 42.9598 75.0471 43.1162 74.9511V75.1444C42.9428 75.2334 42.7497 75.2771 42.5549 75.2712C42.056 75.2712 41.792 74.9948 41.792 74.3711C41.792 73.7995 42.0581 73.4814 42.5237 73.4814C42.6428 73.4651 42.7639 73.4884 42.8683 73.5477C42.9728 73.6071 43.0548 73.6992 43.1016 73.8099C43.1633 73.9679 43.1909 74.1372 43.1827 74.3067V74.3732H42.0518ZM42.5154 73.6311C42.3075 73.6311 42.0726 73.7724 42.0581 74.2319H42.9104C42.9104 73.8681 42.848 73.6311 42.5154 73.6311Z" fill="#483729"/>
<path d="M45.3606 72.9758C44.8638 72.9758 44.5707 73.2938 44.5707 74.0484C44.5707 74.7573 44.8388 75.0878 45.3274 75.0878C45.5459 75.0924 45.7616 75.0371 45.951 74.9278V75.1357C45.7482 75.2308 45.5264 75.2784 45.3024 75.2749C44.6954 75.2749 44.29 74.9278 44.29 74.0734C44.29 73.219 44.7058 72.7929 45.3606 72.7929C45.5586 72.7904 45.7553 72.8249 45.9406 72.8947V73.1026C45.7606 73.0134 45.5614 72.9698 45.3606 72.9758Z" fill="#483729"/>
<path d="M46.8992 75.2694C46.4169 75.2694 46.1592 74.9618 46.1592 74.3777C46.1592 73.7935 46.4502 73.4817 46.9304 73.4817C47.4106 73.4817 47.6517 73.7519 47.6517 74.3735C47.6517 74.9348 47.4252 75.2694 46.8992 75.2694ZM46.9221 73.6355C46.6082 73.6355 46.4232 73.8684 46.4232 74.3818C46.4232 74.8953 46.5853 75.1198 46.9117 75.1198C47.2381 75.1198 47.3898 74.8225 47.3898 74.3714C47.3981 73.8642 47.2526 73.6355 46.9221 73.6355Z" fill="#483729"/>
<path d="M47.9658 74.4059V74.1669H48.816V74.4059H47.9658Z" fill="#483729"/>
<path d="M49.8748 75.2697C49.3925 75.2697 49.1348 74.962 49.1348 74.3779C49.1348 73.7938 49.4258 73.4819 49.906 73.4819C50.3862 73.4819 50.6273 73.7522 50.6273 74.3737C50.6273 74.935 50.4007 75.2697 49.8748 75.2697ZM49.8998 73.6358C49.5838 73.6358 49.3988 73.8686 49.3988 74.3821C49.3988 74.8955 49.5609 75.12 49.8894 75.12C50.2178 75.12 50.3654 74.8228 50.3654 74.3717C50.3654 73.8644 50.2303 73.6358 49.8998 73.6358Z" fill="#483729"/>
<path d="M51.8537 73.4903C52.257 73.4903 52.4939 73.7793 52.4939 74.3551C52.4939 75.0931 52.1052 75.2656 51.8059 75.2656C51.6376 75.2762 51.4717 75.2219 51.3423 75.1138V75.9682H51.0908V73.9227C51.0895 73.7905 51.079 73.6585 51.0596 73.5277H51.3049C51.3153 73.5776 51.3298 73.6712 51.3361 73.7356C51.3977 73.6577 51.4764 73.5951 51.5662 73.5525C51.656 73.51 51.7543 73.4887 51.8537 73.4903ZM51.4275 74.9891C51.4734 75.0343 51.5286 75.0689 51.5893 75.0905C51.65 75.112 51.7147 75.12 51.7788 75.1138C52.0491 75.1138 52.2299 74.8935 52.2299 74.3572C52.2299 73.8645 52.0761 73.6421 51.8017 73.6421C51.6875 73.645 51.577 73.6835 51.4857 73.7523C51.3631 73.852 51.3402 73.9393 51.3402 74.3946C51.3464 74.7688 51.3464 74.9039 51.4275 74.9891Z" fill="#483729"/>
<path d="M53.0938 74.3732C53.0938 74.8534 53.2892 75.0987 53.6364 75.0987C53.8206 75.0984 54.0011 75.0474 54.1582 74.9511V75.1444C53.9848 75.2334 53.7917 75.2771 53.5969 75.2712C53.098 75.2712 52.834 74.9948 52.834 74.3711C52.834 73.7995 53.1001 73.4814 53.5657 73.4814C53.6848 73.4651 53.8059 73.4884 53.9103 73.5477C54.0148 73.6071 54.0968 73.6992 54.1436 73.8099C54.2053 73.9679 54.2329 74.1372 54.2247 74.3067V74.3732H53.0938ZM53.5574 73.6311C53.3495 73.6311 53.1146 73.7724 53.1001 74.2319H53.9524C53.9524 73.8681 53.89 73.6311 53.5574 73.6311Z" fill="#483729"/>
<path d="M54.6407 75.2268V74.0419C54.6413 73.8695 54.6302 73.6972 54.6074 73.5263H54.8569C54.8726 73.6086 54.8816 73.692 54.8839 73.7758C54.922 73.6938 54.9819 73.6238 55.057 73.5736C55.1322 73.5234 55.2197 73.4948 55.3101 73.491C55.3719 73.4905 55.4335 73.4989 55.493 73.5159V73.7488C55.4231 73.7202 55.3481 73.706 55.2726 73.7072C55.2174 73.7042 55.1622 73.715 55.1122 73.7386C55.0621 73.7622 55.0187 73.7978 54.9858 73.8423C54.9191 73.9507 54.8872 74.0769 54.8943 74.204V75.2268H54.6407Z" fill="#483729"/>
<path d="M56.7071 74.9903C56.657 75.0814 56.5818 75.1561 56.4904 75.2055C56.3989 75.2549 56.2952 75.2769 56.1916 75.2689C56.1206 75.2751 56.0491 75.2662 55.9819 75.2427C55.9146 75.2191 55.8532 75.1815 55.8016 75.1323C55.7501 75.0831 55.7096 75.0235 55.6829 74.9574C55.6563 74.8914 55.644 74.8204 55.6469 74.7492C55.6469 74.4166 55.8984 74.2316 56.4888 74.2316H56.6967V74.0798C56.7044 73.9691 56.6775 73.8587 56.6198 73.7638C56.5846 73.7253 56.5409 73.6955 56.4922 73.6767C56.4435 73.658 56.3911 73.6508 56.3392 73.6557C56.1522 73.6546 55.9682 73.7019 55.8049 73.7929V73.5975C55.9828 73.5177 56.1754 73.4759 56.3703 73.4749C56.529 73.4599 56.6872 73.5076 56.811 73.6079C56.864 73.6681 56.9035 73.739 56.9268 73.8157C56.9501 73.8924 56.9567 73.9733 56.9462 74.0528V74.8469C56.942 74.9731 56.9567 75.0992 56.9898 75.2211H56.7528C56.7312 75.1456 56.7159 75.0684 56.7071 74.9903ZM56.5366 74.3667C56.0502 74.3667 55.913 74.533 55.913 74.7346C55.9074 74.7811 55.9121 74.8281 55.9268 74.8725C55.9414 74.9169 55.9657 74.9575 55.9979 74.9915C56.03 75.0254 56.0693 75.0519 56.1128 75.0689C56.1563 75.086 56.2031 75.0932 56.2498 75.0901C56.3226 75.0903 56.3945 75.0739 56.46 75.0422C56.5255 75.0105 56.583 74.9643 56.6281 74.9072C56.6892 74.8207 56.7179 74.7154 56.7092 74.6099V74.3708C56.653 74.3729 56.5907 74.3729 56.5449 74.3729L56.5366 74.3667Z" fill="#483729"/>
<path d="M57.9979 75.2527C57.9255 75.2631 57.8517 75.2524 57.7853 75.2218C57.7189 75.1912 57.6627 75.142 57.6237 75.0801C57.5731 74.9667 57.553 74.842 57.5655 74.7184V73.679H57.3057V73.5273H57.5655C57.5655 73.5273 57.5655 73.3339 57.5884 73.0865H57.8191V73.5273H58.1995V73.679H57.8108V74.7184C57.8044 74.8091 57.8157 74.9002 57.8441 74.9866C57.8647 75.0183 57.8936 75.0438 57.9277 75.0603C57.9618 75.0767 57.9997 75.0836 58.0374 75.0801C58.1078 75.0798 58.1778 75.0693 58.2453 75.0489V75.2194C58.1643 75.2394 58.0813 75.2505 57.9979 75.2527Z" fill="#483729"/>
<path d="M58.687 73.167C58.5831 73.167 58.5332 73.1316 58.5332 72.9986C58.5332 72.8656 58.5873 72.8302 58.6953 72.8302C58.8034 72.8302 58.8471 72.8718 58.8471 72.9986C58.8471 73.1254 58.7951 73.167 58.687 73.167ZM58.5623 75.2271V73.5266H58.8284V75.2271H58.5623Z" fill="#483729"/>
<path d="M60.0025 75.227H59.7634L59.1211 73.5265H59.4017C59.7281 74.4266 59.8009 74.6366 59.9152 74.9816C60.017 74.647 60.096 74.4245 60.412 73.5265H60.6615L60.0025 75.227Z" fill="#483729"/>
<path d="M61.1153 74.3732C61.1153 74.8534 61.3107 75.0987 61.6579 75.0987C61.8414 75.0987 62.0214 75.0476 62.1776 74.9511V75.1444C62.0051 75.2338 61.8126 75.2774 61.6184 75.2712C61.1174 75.2712 60.8555 74.9948 60.8555 74.3711C60.8555 73.7995 61.1216 73.4814 61.5872 73.4814C61.7062 73.4651 61.8273 73.4884 61.9318 73.5477C62.0363 73.6071 62.1183 73.6992 62.1651 73.8099C62.2268 73.9679 62.2544 74.1372 62.2462 74.3067V74.3732H61.1153ZM61.5768 73.6311C61.3689 73.6311 61.1361 73.7724 61.1216 74.2319H61.9718C61.9801 73.8681 61.9198 73.6311 61.5851 73.6311H61.5768Z" fill="#483729"/>
<path d="M64.0885 72.845C64.2007 72.845 64.3213 72.845 64.4086 72.8574C64.483 72.8558 64.5569 72.8701 64.6253 72.8993C64.6938 72.9286 64.7551 72.9721 64.8053 73.0271C64.8555 73.082 64.8934 73.147 64.9164 73.2178C64.9394 73.2886 64.947 73.3635 64.9387 73.4374C64.9454 73.559 64.9097 73.6792 64.8376 73.7774C64.7656 73.8755 64.6617 73.9457 64.5437 73.9758C64.6827 73.9901 64.8107 74.058 64.9004 74.1651C64.9901 74.2723 65.0344 74.4102 65.0239 74.5496C65.0305 74.6797 64.9962 74.8087 64.9257 74.9183C64.8552 75.0279 64.7522 75.1127 64.631 75.1607C64.4551 75.2127 64.2718 75.2352 64.0885 75.2273H63.4648V72.845H64.0885ZM64.1093 73.9031C64.2356 73.9133 64.3625 73.8904 64.4772 73.8366C64.5393 73.7933 64.5893 73.7349 64.6225 73.6668C64.6556 73.5988 64.6707 73.5234 64.6664 73.4478C64.6739 73.364 64.6546 73.28 64.6112 73.2079C64.5679 73.1358 64.5028 73.0793 64.4252 73.0466C64.3082 73.0184 64.188 73.0058 64.0677 73.0092H63.7413V73.9031H64.1093ZM64.1093 75.063C64.2473 75.0717 64.3856 75.0504 64.5146 75.0007C64.5913 74.9572 64.6537 74.8925 64.6943 74.8142C64.7349 74.736 64.7519 74.6477 64.7433 74.56C64.7482 74.4729 64.7291 74.3861 64.6881 74.3091C64.647 74.2321 64.5856 74.1678 64.5105 74.1234C64.3879 74.0772 64.2565 74.0587 64.1259 74.0694H63.7413V75.063H64.1093Z" fill="#483729"/>
<path d="M66.4131 74.9904C66.3631 75.0815 66.2878 75.1562 66.1964 75.2056C66.105 75.255 66.0012 75.277 65.8976 75.269C65.8266 75.2753 65.7551 75.2663 65.6879 75.2428C65.6207 75.2192 65.5592 75.1816 65.5077 75.1324C65.4561 75.0832 65.4157 75.0236 65.389 74.9575C65.3623 74.8915 65.35 74.8205 65.353 74.7493C65.353 74.4167 65.6024 74.2317 66.1949 74.2317H66.4028V74.0799C66.4104 73.9692 66.3836 73.8588 66.3258 73.7639C66.2906 73.7254 66.247 73.6956 66.1983 73.6768C66.1496 73.6581 66.0972 73.6509 66.0452 73.6558C65.8583 73.6547 65.6742 73.702 65.511 73.793V73.5977C65.6881 73.518 65.88 73.4762 66.0743 73.475C66.2336 73.4596 66.3926 73.5074 66.5171 73.608C66.5696 73.6685 66.6088 73.7394 66.6321 73.8161C66.6554 73.8927 66.6622 73.9734 66.6522 74.0529V74.847C66.648 74.9732 66.6627 75.0993 66.6959 75.2212H66.4506C66.4317 75.1454 66.4192 75.0683 66.4131 74.9904ZM66.2406 74.3668C65.7542 74.3668 65.617 74.5331 65.617 74.7347C65.6114 74.7812 65.6161 74.8282 65.6307 74.8726C65.6454 74.917 65.6697 74.9577 65.7018 74.9916C65.734 75.0255 65.7732 75.052 65.8168 75.069C65.8603 75.0861 65.9071 75.0933 65.9537 75.0902C66.0265 75.0902 66.0984 75.0738 66.1639 75.0421C66.2294 75.0104 66.2869 74.9643 66.3321 74.9073C66.3932 74.8208 66.4219 74.7156 66.4131 74.61V74.371C66.3591 74.373 66.2947 74.373 66.2406 74.373V74.3668Z" fill="#483729"/>
<path d="M68.3048 74.2734C68.3107 74.1341 68.3002 73.9945 68.2736 73.8577C68.2573 73.791 68.2167 73.7328 68.1599 73.6944C68.103 73.656 68.0339 73.6401 67.9659 73.6498C67.8851 73.6491 67.8053 73.6676 67.7331 73.7038C67.6608 73.7399 67.5981 73.7926 67.5502 73.8577C67.4853 73.9625 67.4588 74.0867 67.4753 74.209V75.2317H67.2217V74.1757C67.2242 73.9604 67.2131 73.7452 67.1885 73.5313H67.4379C67.4527 73.6123 67.4617 73.6943 67.465 73.7766C67.5353 73.6865 67.6252 73.6134 67.7278 73.563C67.8304 73.5126 67.9431 73.4861 68.0574 73.4855C68.1118 73.4776 68.1672 73.4806 68.2204 73.4942C68.2736 73.5078 68.3236 73.5318 68.3675 73.5649C68.4113 73.5979 68.4482 73.6394 68.476 73.6867C68.5038 73.7341 68.5219 73.7866 68.5293 73.841C68.5459 73.9699 68.5528 74.0998 68.5501 74.2297V75.2317H68.3006L68.3048 74.2734Z" fill="#483729"/>
<path d="M69.1123 75.2273V72.7098H69.3659V74.2856L70.1164 73.5268H70.3866C69.896 74.0049 69.7297 74.1504 69.6216 74.2544C69.7671 74.4144 69.9334 74.5953 70.476 75.2273H70.1455L69.3659 74.3292V75.2273H69.1123Z" fill="#483729"/>
<path d="M175.416 13.925C175.416 12.8519 175.798 11.9331 176.563 11.1687C177.342 10.3896 178.268 10 179.341 10C180.429 10 181.355 10.3896 182.119 11.1687C182.899 11.9331 183.288 12.8519 183.288 13.925C183.288 15.0129 182.899 15.939 182.119 16.7034C181.355 17.4679 180.429 17.8501 179.341 17.8501C178.268 17.8501 177.342 17.4679 176.563 16.7034C175.798 15.939 175.416 15.0129 175.416 13.925Z" fill="#EC1F26"/>
<path d="M128 10.7799H141.319C144.494 10.7799 146.986 11.5443 148.794 13.0732C150.617 14.602 151.528 16.4102 151.528 18.4977C151.528 21.1732 150.124 23.2239 147.316 24.6498C149.433 25.2085 151.05 26.1934 152.168 27.6046C153.3 29.0159 153.866 30.6623 153.866 32.544C153.866 35.2195 152.947 37.3952 151.109 39.071C149.272 40.7469 146.567 41.5848 142.995 41.5848H128V10.7799ZM135.674 16.4249V23.0181H139.687C140.922 23.0181 141.885 22.702 142.576 22.0699C143.266 21.4378 143.612 20.6439 143.612 19.6884C143.612 18.7476 143.266 17.9685 142.576 17.351C141.885 16.7336 140.922 16.4249 139.687 16.4249H135.674ZM135.674 28.6631V35.9398H139.996C142.039 35.9398 143.509 35.6605 144.406 35.1019C145.302 34.5286 145.751 33.5436 145.751 32.1471C145.751 31.0739 145.325 30.2287 144.472 29.6112C143.619 28.9791 142.48 28.6631 141.054 28.6631H135.674Z" fill="#037AC0"/>
<path d="M163.95 20.7689V26.7226H164.038C165.934 22.4742 168.147 20.3499 170.675 20.3499C171.881 20.3499 173.329 20.9821 175.019 22.2463L173.211 28.0456C171.594 27.0166 170.3 26.5021 169.33 26.5021C167.816 26.5021 166.537 27.4429 165.493 29.3246C164.464 31.1916 163.95 32.2794 163.95 32.5881V41.5848H157.401V20.7689H163.95Z" fill="#037AC0"/>
<path d="M182.568 20.7689V41.5848H176.019V20.7689H182.568Z" fill="#037AC0"/>
<path d="M201.516 20.7689V25.2452H193.931V33.8229C193.931 34.852 194.21 35.6679 194.769 36.2706C195.342 36.8586 196.129 37.1526 197.128 37.1526C198.481 37.1526 199.943 36.7483 201.516 35.9398V40.6807C199.429 41.5481 197.408 41.9817 195.452 41.9817C192.894 41.9817 190.91 41.3202 189.499 39.9972C188.087 38.6741 187.382 36.7336 187.382 34.1758V25.2452H184.405V23.9663L193.115 14.2198H193.931V20.7689H201.516Z" fill="#037AC0"/>
<path d="M224.588 36.447V40.0854C222.413 41.3496 220.369 41.9817 218.458 41.9817C216.4 41.9817 215.18 41.2026 214.798 39.6443C212.519 41.2026 210.233 41.9817 207.94 41.9817C206.323 41.9817 204.949 41.4746 203.817 40.4602C202.685 39.4312 202.119 38.2404 202.119 36.888C202.119 35.0798 202.699 33.6245 203.861 32.5219C205.037 31.4047 208.58 29.9714 214.489 28.2221C214.636 25.8994 213.431 24.738 210.873 24.738C208.095 24.738 205.537 25.8994 203.199 28.2221V22.8858C205.934 21.1952 208.94 20.3499 212.218 20.3499C218.098 20.3499 221.038 22.4595 221.038 26.6785V36.1603C221.038 37.1306 221.398 37.6157 222.119 37.6157C222.663 37.6157 223.486 37.2261 224.588 36.447ZM214.489 36.5352V31.5076C212.299 32.272 210.792 32.963 209.969 33.5804C209.16 34.1831 208.756 34.9549 208.756 35.8957C208.756 36.4984 208.962 37.0203 209.373 37.4613C209.785 37.8876 210.285 38.1008 210.873 38.1008C212.108 38.1008 213.313 37.5789 214.489 36.5352Z" fill="#037AC0"/>
<path d="M232.424 20.7689V23.437C234.643 21.379 237.054 20.3499 239.656 20.3499C243.228 20.3499 245.727 21.8273 247.153 24.7821C249.667 21.8273 252.402 20.3499 255.356 20.3499C257.753 20.3499 259.708 21.0776 261.222 22.533C262.736 23.9883 263.493 25.8847 263.493 28.2221V41.5848H256.944V29.3907C256.944 27.9207 256.606 26.7814 255.93 25.9729C255.253 25.1496 254.313 24.738 253.107 24.738C251.196 24.738 249.476 25.9141 247.947 28.2662V41.5848H241.42V29.2584C241.42 27.8031 241.053 26.6859 240.318 25.9067C239.597 25.1276 238.634 24.738 237.429 24.738C235.709 24.738 234.041 25.7009 232.424 27.6267V41.5848H225.874V20.7689H232.424Z" fill="#037AC0"/>
<path d="M130 58.2152L128.166 51.8049H129.646L130.707 56.2589H130.761L131.931 51.8049H133.199L134.366 56.2683H134.423L135.484 51.8049H136.964L135.13 58.2152H133.809L132.589 54.0241H132.539L131.321 58.2152H130ZM137.665 58.2152V53.4075H138.998V58.2152H137.665ZM138.335 52.7877C138.136 52.7877 137.966 52.722 137.824 52.5905C137.685 52.457 137.615 52.2974 137.615 52.1116C137.615 51.928 137.685 51.7705 137.824 51.639C137.966 51.5055 138.136 51.4387 138.335 51.4387C138.533 51.4387 138.702 51.5055 138.842 51.639C138.984 51.7705 139.055 51.928 139.055 52.1116C139.055 52.2974 138.984 52.457 138.842 52.5905C138.702 52.722 138.533 52.7877 138.335 52.7877ZM142.624 53.4075V54.4091H139.728V53.4075H142.624ZM140.386 52.2556H141.719V56.7378C141.719 56.8609 141.738 56.9569 141.775 57.0258C141.813 57.0926 141.865 57.1395 141.932 57.1666C142.001 57.1938 142.08 57.2073 142.17 57.2073C142.232 57.2073 142.295 57.2021 142.357 57.1917C142.42 57.1792 142.468 57.1698 142.501 57.1635L142.711 58.1557C142.644 58.1766 142.55 58.2006 142.429 58.2277C142.308 58.2569 142.161 58.2747 141.988 58.2809C141.667 58.2935 141.385 58.2507 141.143 58.1526C140.903 58.0545 140.716 57.9022 140.583 57.6956C140.449 57.489 140.383 57.2282 140.386 56.9131V52.2556ZM144.929 55.4357V58.2152H143.595V51.8049H144.891V54.2557H144.948C145.056 53.9719 145.231 53.7497 145.473 53.589C145.715 53.4263 146.019 53.3449 146.384 53.3449C146.718 53.3449 147.009 53.4179 147.258 53.564C147.508 53.708 147.702 53.9156 147.84 54.1869C147.98 54.456 148.048 54.7784 148.046 55.154V58.2152H146.713V55.3919C146.715 55.0956 146.64 54.865 146.488 54.7002C146.337 54.5353 146.127 54.4529 145.855 54.4529C145.674 54.4529 145.513 54.4915 145.373 54.5687C145.236 54.6459 145.127 54.7586 145.048 54.9068C144.971 55.0528 144.931 55.2292 144.929 55.4357ZM151.959 60.0181C151.79 60.0181 151.631 60.0045 151.483 59.9774C151.337 59.9524 151.216 59.92 151.12 59.8804L151.421 58.885C151.577 58.933 151.718 58.9591 151.843 58.9633C151.97 58.9675 152.08 58.9382 152.172 58.8756C152.266 58.813 152.342 58.7066 152.4 58.5564L152.478 58.3529L150.754 53.4075H152.156L153.151 56.9382H153.201L154.206 53.4075H155.618L153.749 58.7348C153.66 58.9935 153.537 59.2189 153.383 59.4109C153.231 59.6049 153.038 59.7541 152.804 59.8585C152.57 59.9649 152.289 60.0181 151.959 60.0181ZM158.318 58.3091C157.831 58.3091 157.411 58.2058 157.056 57.9992C156.703 57.7906 156.431 57.5005 156.239 57.1291C156.047 56.7556 155.951 56.3226 155.951 55.8301C155.951 55.3335 156.047 54.8995 156.239 54.528C156.431 54.1545 156.703 53.8645 157.056 53.6579C157.411 53.4492 157.831 53.3449 158.318 53.3449C158.804 53.3449 159.223 53.4492 159.576 53.6579C159.931 53.8645 160.204 54.1545 160.396 54.528C160.588 54.8995 160.684 55.3335 160.684 55.8301C160.684 56.3226 160.588 56.7556 160.396 57.1291C160.204 57.5005 159.931 57.7906 159.576 57.9992C159.223 58.2058 158.804 58.3091 158.318 58.3091ZM158.324 57.2762C158.545 57.2762 158.73 57.2136 158.878 57.0884C159.026 56.9611 159.138 56.7879 159.213 56.5688C159.29 56.3497 159.329 56.1003 159.329 55.8207C159.329 55.5411 159.29 55.2918 159.213 55.0727C159.138 54.8536 159.026 54.6804 158.878 54.5531C158.73 54.4258 158.545 54.3621 158.324 54.3621C158.101 54.3621 157.913 54.4258 157.76 54.5531C157.61 54.6804 157.496 54.8536 157.419 55.0727C157.344 55.2918 157.307 55.5411 157.307 55.8207C157.307 56.1003 157.344 56.3497 157.419 56.5688C157.496 56.7879 157.61 56.9611 157.76 57.0884C157.913 57.2136 158.101 57.2762 158.324 57.2762ZM164.634 56.1682V53.4075H165.967V58.2152H164.687V57.3419H164.637C164.529 57.6236 164.348 57.85 164.096 58.0211C163.845 58.1923 163.539 58.2778 163.178 58.2778C162.857 58.2778 162.574 58.2048 162.33 58.0587C162.086 57.9126 161.895 57.705 161.757 57.4358C161.622 57.1666 161.553 56.8443 161.551 56.4686V53.4075H162.884V56.2308C162.886 56.5146 162.963 56.7389 163.113 56.9037C163.263 57.0686 163.464 57.151 163.717 57.151C163.878 57.151 164.028 57.1145 164.168 57.0414C164.307 56.9663 164.42 56.8557 164.506 56.7097C164.593 56.5636 164.636 56.3831 164.634 56.1682ZM171.265 58.3091C170.77 58.3091 170.345 58.2089 169.988 58.0086C169.633 57.8062 169.36 57.5203 169.168 57.151C168.976 56.7796 168.88 56.3403 168.88 55.8333C168.88 55.3387 168.976 54.9047 169.168 54.5312C169.36 54.1576 169.63 53.8665 169.978 53.6579C170.329 53.4492 170.74 53.3449 171.212 53.3449C171.529 53.3449 171.824 53.396 172.098 53.4982C172.373 53.5984 172.613 53.7497 172.817 53.9521C173.024 54.1545 173.185 54.4091 173.299 54.7158C173.414 55.0205 173.472 55.3773 173.472 55.7863V56.1525H169.412V55.3262H172.216C172.216 55.1342 172.175 54.9641 172.091 54.816C172.008 54.6678 171.892 54.552 171.744 54.4686C171.598 54.383 171.428 54.3402 171.234 54.3402C171.031 54.3402 170.852 54.3872 170.695 54.4811C170.541 54.5729 170.42 54.697 170.332 54.8536C170.245 55.008 170.2 55.1801 170.198 55.37V56.1556C170.198 56.3935 170.241 56.5991 170.329 56.7723C170.419 56.9455 170.545 57.079 170.708 57.1729C170.871 57.2668 171.064 57.3138 171.287 57.3138C171.435 57.3138 171.571 57.2929 171.694 57.2512C171.817 57.2094 171.922 57.1468 172.01 57.0634C172.098 56.9799 172.164 56.8776 172.21 56.7566L173.443 56.838C173.381 57.1343 173.253 57.3931 173.058 57.6142C172.866 57.8333 172.618 58.0045 172.313 58.1276C172.011 58.2486 171.661 58.3091 171.265 58.3091ZM178.695 53.4075L177.014 58.2152H175.512L173.831 53.4075H175.239L176.238 56.8474H176.288L177.283 53.4075H178.695ZM181.413 58.3091C180.919 58.3091 180.493 58.2089 180.136 58.0086C179.782 57.8062 179.508 57.5203 179.316 57.151C179.124 56.7796 179.028 56.3403 179.028 55.8333C179.028 55.3387 179.124 54.9047 179.316 54.5312C179.508 54.1576 179.778 53.8665 180.127 53.6579C180.477 53.4492 180.888 53.3449 181.36 53.3449C181.677 53.3449 181.973 53.396 182.246 53.4982C182.521 53.5984 182.761 53.7497 182.966 53.9521C183.172 54.1545 183.333 54.4091 183.448 54.7158C183.563 55.0205 183.62 55.3773 183.62 55.7863V56.1525H179.56V55.3262H182.365C182.365 55.1342 182.323 54.9641 182.24 54.816C182.156 54.6678 182.04 54.552 181.892 54.4686C181.746 54.383 181.576 54.3402 181.382 54.3402C181.18 54.3402 181 54.3872 180.844 54.4811C180.689 54.5729 180.568 54.697 180.481 54.8536C180.393 55.008 180.348 55.1801 180.346 55.37V56.1556C180.346 56.3935 180.39 56.5991 180.477 56.7723C180.567 56.9455 180.693 57.079 180.856 57.1729C181.019 57.2668 181.212 57.3138 181.435 57.3138C181.583 57.3138 181.719 57.2929 181.842 57.2512C181.965 57.2094 182.071 57.1468 182.158 57.0634C182.246 56.9799 182.313 56.8776 182.359 56.7566L183.592 56.838C183.529 57.1343 183.401 57.3931 183.207 57.6142C183.015 57.8333 182.767 58.0045 182.462 58.1276C182.159 58.2486 181.81 58.3091 181.413 58.3091ZM184.49 58.2152V53.4075H185.783V54.2463H185.833C185.921 53.9479 186.068 53.7226 186.274 53.5702C186.481 53.4158 186.719 53.3386 186.988 53.3386C187.055 53.3386 187.127 53.3428 187.204 53.3511C187.281 53.3595 187.349 53.371 187.407 53.3856V54.5687C187.345 54.5499 187.258 54.5332 187.148 54.5186C187.037 54.504 186.936 54.4967 186.844 54.4967C186.648 54.4967 186.472 54.5395 186.318 54.6251C186.166 54.7085 186.045 54.8254 185.955 54.9756C185.867 55.1259 185.824 55.2991 185.824 55.4952V58.2152H184.49ZM189.066 60.0181C188.897 60.0181 188.739 60.0045 188.59 59.9774C188.444 59.9524 188.323 59.92 188.227 59.8804L188.528 58.885C188.684 58.933 188.825 58.9591 188.95 58.9633C189.078 58.9675 189.187 58.9382 189.279 58.8756C189.373 58.813 189.449 58.7066 189.508 58.5564L189.586 58.3529L187.861 53.4075H189.263L190.259 56.9382H190.309L191.314 53.4075H192.725L190.857 58.7348C190.767 58.9935 190.645 59.2189 190.49 59.4109C190.338 59.6049 190.145 59.7541 189.911 59.8585C189.678 59.9649 189.396 60.0181 189.066 60.0181ZM199.448 54.7784L198.227 54.8536C198.206 54.7492 198.161 54.6553 198.092 54.5718C198.024 54.4863 197.933 54.4185 197.82 54.3684C197.71 54.3162 197.577 54.2901 197.423 54.2901C197.216 54.2901 197.042 54.334 196.9 54.4216C196.758 54.5072 196.687 54.6219 196.687 54.7659C196.687 54.8807 196.733 54.9777 196.825 55.057C196.917 55.1363 197.074 55.1999 197.297 55.2479L198.168 55.4232C198.635 55.5192 198.984 55.6736 199.213 55.8865C199.443 56.0993 199.557 56.3789 199.557 56.7253C199.557 57.0404 199.464 57.3169 199.279 57.5548C199.095 57.7927 198.843 57.9784 198.521 58.1119C198.202 58.2434 197.834 58.3091 197.416 58.3091C196.78 58.3091 196.273 58.1766 195.895 57.9116C195.52 57.6445 195.299 57.2814 195.235 56.8223L196.546 56.7535C196.586 56.9475 196.682 57.0957 196.834 57.1979C196.987 57.2981 197.182 57.3482 197.42 57.3482C197.653 57.3482 197.841 57.3033 197.983 57.2136C198.127 57.1218 198.2 57.0039 198.202 56.8599C198.2 56.7389 198.149 56.6398 198.049 56.5626C197.949 56.4833 197.794 56.4227 197.585 56.381L196.753 56.2151C196.283 56.1212 195.934 55.9585 195.704 55.7268C195.477 55.4952 195.363 55.1999 195.363 54.841C195.363 54.5322 195.447 54.2661 195.613 54.0429C195.783 53.8196 196.019 53.6474 196.324 53.5264C196.631 53.4054 196.99 53.3449 197.401 53.3449C198.008 53.3449 198.486 53.4732 198.834 53.7299C199.185 53.9865 199.389 54.3361 199.448 54.7784ZM202.954 53.4075V54.4091H200.059V53.4075H202.954ZM200.716 52.2556H202.05V56.7378C202.05 56.8609 202.068 56.9569 202.106 57.0258C202.144 57.0926 202.196 57.1395 202.262 57.1666C202.331 57.1938 202.411 57.2073 202.5 57.2073C202.563 57.2073 202.626 57.2021 202.688 57.1917C202.751 57.1792 202.799 57.1698 202.832 57.1635L203.042 58.1557C202.975 58.1766 202.881 58.2006 202.76 58.2277C202.639 58.2569 202.492 58.2747 202.319 58.2809C201.997 58.2935 201.716 58.2507 201.474 58.1526C201.234 58.0545 201.047 57.9022 200.913 57.6956C200.78 57.489 200.714 57.2282 200.716 56.9131V52.2556ZM205.962 58.3091C205.468 58.3091 205.042 58.2089 204.685 58.0086C204.33 57.8062 204.057 57.5203 203.865 57.151C203.673 56.7796 203.577 56.3403 203.577 55.8333C203.577 55.3387 203.673 54.9047 203.865 54.5312C204.057 54.1576 204.327 53.8665 204.676 53.6579C205.026 53.4492 205.437 53.3449 205.909 53.3449C206.226 53.3449 206.521 53.396 206.795 53.4982C207.07 53.5984 207.31 53.7497 207.515 53.9521C207.721 54.1545 207.882 54.4091 207.997 54.7158C208.111 55.0205 208.169 55.3773 208.169 55.7863V56.1525H204.109V55.3262H206.914C206.914 55.1342 206.872 54.9641 206.789 54.816C206.705 54.6678 206.589 54.552 206.441 54.4686C206.295 54.383 206.125 54.3402 205.931 54.3402C205.728 54.3402 205.549 54.3872 205.393 54.4811C205.238 54.5729 205.117 54.697 205.029 54.8536C204.942 55.008 204.897 55.1801 204.895 55.37V56.1556C204.895 56.3935 204.939 56.5991 205.026 56.7723C205.116 56.9455 205.242 57.079 205.405 57.1729C205.568 57.2668 205.761 57.3138 205.984 57.3138C206.132 57.3138 206.268 57.2929 206.391 57.2512C206.514 57.2094 206.619 57.1468 206.707 57.0634C206.795 56.9799 206.862 56.8776 206.907 56.7566L208.141 56.838C208.078 57.1343 207.95 57.3931 207.756 57.6142C207.564 57.8333 207.315 58.0045 207.011 58.1276C206.708 58.2486 206.359 58.3091 205.962 58.3091ZM209.039 60.0181V53.4075H210.354V54.215H210.413C210.472 54.0856 210.556 53.9542 210.667 53.8206C210.779 53.685 210.925 53.5723 211.105 53.4826C211.286 53.3908 211.512 53.3449 211.781 53.3449C212.131 53.3449 212.455 53.4367 212.751 53.6203C213.048 53.8019 213.284 54.0763 213.462 54.4435C213.639 54.8087 213.728 55.2667 213.728 55.8176C213.728 56.3539 213.641 56.8067 213.468 57.176C213.297 57.5433 213.063 57.8219 212.767 58.0118C212.473 58.1996 212.143 58.2935 211.778 58.2935C211.519 58.2935 211.299 58.2507 211.117 58.1651C210.938 58.0796 210.791 57.9721 210.676 57.8427C210.561 57.7113 210.474 57.5788 210.413 57.4452H210.372V60.0181H209.039ZM210.344 55.8113C210.344 56.0972 210.384 56.3466 210.463 56.5594C210.542 56.7723 210.657 56.9382 210.807 57.0571C210.958 57.174 211.14 57.2324 211.355 57.2324C211.572 57.2324 211.756 57.1729 211.906 57.054C212.056 56.9329 212.17 56.766 212.247 56.5532C212.327 56.3382 212.366 56.091 212.366 55.8113C212.366 55.5338 212.328 55.2897 212.25 55.0789C212.173 54.8682 212.059 54.7033 211.909 54.5844C211.759 54.4654 211.574 54.406 211.355 54.406C211.138 54.406 210.955 54.4633 210.804 54.5781C210.656 54.6929 210.542 54.8556 210.463 55.0664C210.384 55.2771 210.344 55.5255 210.344 55.8113ZM218.829 58.3091C218.343 58.3091 217.922 58.2058 217.568 57.9992C217.215 57.7906 216.943 57.5005 216.751 57.1291C216.559 56.7556 216.463 56.3226 216.463 55.8301C216.463 55.3335 216.559 54.8995 216.751 54.528C216.943 54.1545 217.215 53.8645 217.568 53.6579C217.922 53.4492 218.343 53.3449 218.829 53.3449C219.315 53.3449 219.735 53.4492 220.087 53.6579C220.442 53.8645 220.715 54.1545 220.907 54.528C221.099 54.8995 221.195 55.3335 221.195 55.8301C221.195 56.3226 221.099 56.7556 220.907 57.1291C220.715 57.5005 220.442 57.7906 220.087 57.9992C219.735 58.2058 219.315 58.3091 218.829 58.3091ZM218.835 57.2762C219.056 57.2762 219.241 57.2136 219.389 57.0884C219.537 56.9611 219.649 56.7879 219.724 56.5688C219.801 56.3497 219.84 56.1003 219.84 55.8207C219.84 55.5411 219.801 55.2918 219.724 55.0727C219.649 54.8536 219.537 54.6804 219.389 54.5531C219.241 54.4258 219.056 54.3621 218.835 54.3621C218.612 54.3621 218.424 54.4258 218.272 54.5531C218.122 54.6804 218.008 54.8536 217.931 55.0727C217.856 55.2918 217.818 55.5411 217.818 55.8207C217.818 56.1003 217.856 56.3497 217.931 56.5688C218.008 56.7879 218.122 56.9611 218.272 57.0884C218.424 57.2136 218.612 57.2762 218.835 57.2762ZM224.648 53.4075V54.4091H221.68V53.4075H224.648ZM222.36 58.2152V53.06C222.36 52.7116 222.427 52.4226 222.563 52.193C222.701 51.9635 222.889 51.7913 223.127 51.6766C223.364 51.5618 223.635 51.5044 223.937 51.5044C224.142 51.5044 224.328 51.5201 224.497 51.5514C224.669 51.5827 224.796 51.6108 224.879 51.6359L224.641 52.6375C224.589 52.6208 224.525 52.6051 224.447 52.5905C224.372 52.5759 224.295 52.5686 224.216 52.5686C224.02 52.5686 223.883 52.6145 223.806 52.7063C223.729 52.7961 223.69 52.9223 223.69 53.0851V58.2152H222.36ZM230.06 53.4075V54.4091H227.164V53.4075H230.06ZM227.822 52.2556H229.155V56.7378C229.155 56.8609 229.174 56.9569 229.211 57.0258C229.249 57.0926 229.301 57.1395 229.368 57.1666C229.437 57.1938 229.516 57.2073 229.606 57.2073C229.668 57.2073 229.731 57.2021 229.794 57.1917C229.856 57.1792 229.904 57.1698 229.937 57.1635L230.147 58.1557C230.08 58.1766 229.987 58.2006 229.865 58.2277C229.744 58.2569 229.597 58.2747 229.424 58.2809C229.103 58.2935 228.821 58.2507 228.579 58.1526C228.339 58.0545 228.152 57.9022 228.019 57.6956C227.885 57.489 227.819 57.2282 227.822 56.9131V52.2556ZM232.365 55.4357V58.2152H231.031V51.8049H232.327V54.2557H232.384C232.492 53.9719 232.667 53.7497 232.909 53.589C233.152 53.4263 233.455 53.3449 233.82 53.3449C234.154 53.3449 234.445 53.4179 234.694 53.564C234.944 53.708 235.138 53.9156 235.276 54.1869C235.416 54.456 235.484 54.7784 235.482 55.154V58.2152H234.149V55.3919C234.151 55.0956 234.076 54.865 233.924 54.7002C233.773 54.5353 233.563 54.4529 233.291 54.4529C233.11 54.4529 232.949 54.4915 232.809 54.5687C232.672 54.6459 232.563 54.7586 232.484 54.9068C232.407 55.0528 232.367 55.2292 232.365 55.4357ZM238.723 58.3091C238.228 58.3091 237.802 58.2089 237.446 58.0086C237.091 57.8062 236.818 57.5203 236.626 57.151C236.434 56.7796 236.338 56.3403 236.338 55.8333C236.338 55.3387 236.434 54.9047 236.626 54.5312C236.818 54.1576 237.088 53.8665 237.436 53.6579C237.787 53.4492 238.198 53.3449 238.67 53.3449C238.987 53.3449 239.282 53.396 239.555 53.4982C239.831 53.5984 240.071 53.7497 240.275 53.9521C240.482 54.1545 240.642 54.4091 240.757 54.7158C240.872 55.0205 240.929 55.3773 240.929 55.7863V56.1525H236.87V55.3262H239.674C239.674 55.1342 239.633 54.9641 239.549 54.816C239.466 54.6678 239.35 54.552 239.202 54.4686C239.056 54.383 238.885 54.3402 238.691 54.3402C238.489 54.3402 238.31 54.3872 238.153 54.4811C237.999 54.5729 237.878 54.697 237.79 54.8536C237.702 55.008 237.657 55.1801 237.655 55.37V56.1556C237.655 56.3935 237.699 56.5991 237.787 56.7723C237.877 56.9455 238.003 57.079 238.166 57.1729C238.328 57.2668 238.521 57.3138 238.745 57.3138C238.893 57.3138 239.028 57.2929 239.152 57.2512C239.275 57.2094 239.38 57.1468 239.468 57.0634C239.555 56.9799 239.622 56.8776 239.668 56.7566L240.901 56.838C240.839 57.1343 240.71 57.3931 240.516 57.6142C240.324 57.8333 240.076 58.0045 239.771 58.1276C239.469 58.2486 239.119 58.3091 238.723 58.3091ZM244.788 58.2152L243.48 53.4075H244.829L245.574 56.6377H245.617L246.394 53.4075H247.718L248.506 56.6189H248.547L249.28 53.4075H250.625L249.32 58.2152H247.909L247.082 55.1916H247.023L246.196 58.2152H244.788ZM252.708 58.306C252.401 58.306 252.128 58.2528 251.888 58.1463C251.648 58.0378 251.458 57.8782 251.318 57.6675C251.18 57.4546 251.111 57.1896 251.111 56.8724C251.111 56.6053 251.16 56.381 251.259 56.1995C251.357 56.0179 251.49 55.8719 251.659 55.7613C251.828 55.6507 252.02 55.5672 252.235 55.5109C252.452 55.4545 252.68 55.4149 252.917 55.3919C253.197 55.3627 253.422 55.3356 253.594 55.3105C253.765 55.2834 253.889 55.2438 253.966 55.1916C254.043 55.1394 254.082 55.0622 254.082 54.96V54.9412C254.082 54.743 254.019 54.5896 253.894 54.4811C253.771 54.3726 253.596 54.3183 253.368 54.3183C253.128 54.3183 252.937 54.3715 252.795 54.4779C252.653 54.5823 252.56 54.7137 252.514 54.8723L251.28 54.7722C251.343 54.48 251.466 54.2275 251.65 54.0147C251.833 53.7998 252.07 53.6349 252.36 53.5202C252.652 53.4033 252.99 53.3449 253.374 53.3449C253.642 53.3449 253.897 53.3762 254.141 53.4388C254.388 53.5014 254.606 53.5984 254.795 53.7299C254.987 53.8613 255.139 54.0304 255.249 54.2369C255.36 54.4414 255.415 54.6866 255.415 54.9725V58.2152H254.151V57.5485H254.113C254.036 57.6988 253.933 57.8313 253.803 57.946C253.674 58.0587 253.518 58.1474 253.337 58.2121C253.155 58.2747 252.946 58.306 252.708 58.306ZM253.09 57.3858C253.286 57.3858 253.459 57.3471 253.609 57.2699C253.759 57.1906 253.877 57.0842 253.963 56.9507C254.048 56.8171 254.091 56.6658 254.091 56.4968V55.9866C254.049 56.0138 253.992 56.0388 253.919 56.0617C253.848 56.0826 253.768 56.1024 253.678 56.1212C253.588 56.1379 253.499 56.1536 253.409 56.1682C253.319 56.1807 253.238 56.1922 253.165 56.2026C253.008 56.2255 252.872 56.2621 252.755 56.3121C252.638 56.3622 252.547 56.43 252.482 56.5156C252.418 56.5991 252.385 56.7034 252.385 56.8286C252.385 57.0101 252.451 57.1489 252.583 57.2449C252.716 57.3388 252.885 57.3858 253.09 57.3858ZM257.101 60.0181C256.932 60.0181 256.773 60.0045 256.625 59.9774C256.479 59.9524 256.358 59.92 256.262 59.8804L256.562 58.885C256.719 58.933 256.86 58.9591 256.985 58.9633C257.112 58.9675 257.222 58.9382 257.314 58.8756C257.407 58.813 257.484 58.7066 257.542 58.5564L257.62 58.3529L255.896 53.4075H257.298L258.293 56.9382H258.343L259.348 53.4075H260.76L258.891 58.7348C258.801 58.9935 258.679 59.2189 258.525 59.4109C258.373 59.6049 258.18 59.7541 257.946 59.8585C257.712 59.9649 257.43 60.0181 257.101 60.0181Z" fill="#EC1F26"/>
<line x1="108.5" y1="7" x2="108.5" y2="63" stroke="#DBD3D3"/>
</svg>
