<svg width="27" height="27" viewBox="0 0 27 27" fill="none" xmlns="http://www.w3.org/2000/svg">
<path fill-rule="evenodd" clip-rule="evenodd" d="M13.1943 24.8289C19.5817 24.8289 24.7598 19.6508 24.7598 13.2634C24.7598 6.87604 19.5817 1.6979 13.1943 1.6979C6.80695 1.6979 1.62881 6.87604 1.62881 13.2634C1.62881 19.6508 6.80695 24.8289 13.1943 24.8289ZM13.1943 26.114C20.2917 26.114 26.0449 20.3608 26.0449 13.2634C26.0449 6.16604 20.2917 0.412842 13.1943 0.412842C6.09695 0.412842 0.34375 6.16604 0.34375 13.2634C0.34375 20.3608 6.09695 26.114 13.1943 26.114Z" fill="#095641"/>
<path d="M5.48438 20.7361C5.48438 20.0724 5.98041 19.5114 6.64093 19.4382C11.598 18.8895 14.8139 18.9389 19.7601 19.4504C20.0071 19.4763 20.2412 19.5736 20.4338 19.7304C20.6264 19.8872 20.7691 20.0967 20.8447 20.3333C20.9202 20.5699 20.9251 20.8234 20.8589 21.0627C20.7928 21.3021 20.6583 21.517 20.472 21.6813C14.6346 26.7694 11.2986 26.6994 5.89559 21.6864C5.63216 21.4422 5.48438 21.0953 5.48438 20.7367V20.7361Z" fill="#095641"/>
<path fill-rule="evenodd" clip-rule="evenodd" d="M19.6939 20.0891C14.7869 19.5815 11.6173 19.5339 6.71092 20.0769C6.38066 20.1135 6.12686 20.3956 6.12686 20.7368C6.12686 20.9205 6.20332 21.0946 6.33247 21.2154C9.01053 23.6995 11.0396 24.822 13.0231 24.829C15.0137 24.8361 17.152 23.7226 20.0498 21.1975C20.1419 21.1155 20.2081 21.0086 20.2406 20.8897C20.273 20.7708 20.2702 20.645 20.2325 20.5277C20.1948 20.4104 20.1238 20.3065 20.0282 20.2288C19.9326 20.151 19.8164 20.1027 19.6939 20.0897V20.0891ZM6.5702 18.7995C11.5794 18.245 14.8421 18.2951 19.8269 18.8111C20.1984 18.8499 20.5506 18.9962 20.8404 19.232C21.1301 19.4679 21.3447 19.7831 21.4581 20.1391C21.5714 20.4951 21.5784 20.8764 21.4784 21.2364C21.3783 21.5963 21.1755 21.9193 20.8947 22.1657C17.9552 24.7281 15.5071 26.1237 13.0193 26.1141C10.5243 26.1051 8.18424 24.6857 5.45927 22.1574C5.26417 21.9757 5.10864 21.7557 5.0024 21.5111C4.89615 21.2666 4.84148 21.0027 4.8418 20.7361C4.84086 20.2571 5.0167 19.7945 5.33563 19.4371C5.65455 19.0796 6.09415 18.8524 6.5702 18.7989V18.7995Z" fill="#095641"/>
<path d="M18.3332 10.6932C18.3332 12.0565 17.7916 13.3639 16.8277 14.3279C15.8637 15.2919 14.5562 15.8334 13.193 15.8334C11.8297 15.8334 10.5223 15.2919 9.55827 14.3279C8.59429 13.3639 8.05273 12.0565 8.05273 10.6932C8.05273 9.32993 8.59429 8.0225 9.55827 7.05852C10.5223 6.09454 11.8297 5.55298 13.193 5.55298C14.5562 5.55298 15.8637 6.09454 16.8277 7.05852C17.7916 8.0225 18.3332 9.32993 18.3332 10.6932Z" fill="#095641"/>
<path fill-rule="evenodd" clip-rule="evenodd" d="M13.193 14.5484C14.2154 14.5484 15.196 14.1422 15.919 13.4192C16.642 12.6962 17.0481 11.7157 17.0481 10.6932C17.0481 9.67075 16.642 8.69018 15.919 7.96719C15.196 7.2442 14.2154 6.83804 13.193 6.83804C12.1705 6.83804 11.1899 7.2442 10.4669 7.96719C9.74396 8.69018 9.33779 9.67075 9.33779 10.6932C9.33779 11.7157 9.74396 12.6962 10.4669 13.4192C11.1899 14.1422 12.1705 14.5484 13.193 14.5484ZM13.193 15.8334C14.5562 15.8334 15.8637 15.2919 16.8277 14.3279C17.7916 13.3639 18.3332 12.0565 18.3332 10.6932C18.3332 9.32993 17.7916 8.0225 16.8277 7.05852C15.8637 6.09454 14.5562 5.55298 13.193 5.55298C11.8297 5.55298 10.5223 6.09454 9.55827 7.05852C8.59429 8.0225 8.05273 9.32993 8.05273 10.6932C8.05273 12.0565 8.59429 13.3639 9.55827 14.3279C10.5223 15.2919 11.8297 15.8334 13.193 15.8334Z" fill="#095641"/>
</svg>
