<svg width="22" height="22" viewBox="0 0 22 22" fill="none" xmlns="http://www.w3.org/2000/svg">
<path fill-rule="evenodd" clip-rule="evenodd" d="M11 20.9C16.4676 20.9 20.9 16.4676 20.9 11C20.9 5.53245 16.4676 1.1 11 1.1C5.53245 1.1 1.1 5.53245 1.1 11C1.1 16.4676 5.53245 20.9 11 20.9ZM11 22C17.0753 22 22 17.0753 22 11C22 4.9247 17.0753 0 11 0C4.9247 0 0 4.9247 0 11C0 17.0753 4.9247 22 11 22Z" fill="#004F9F"/>
<path d="M4.40039 17.3966C4.40039 16.8284 4.82499 16.3483 5.39039 16.2856C9.63364 15.8159 12.3864 15.8582 16.6203 16.296C16.8317 16.3182 17.0321 16.4015 17.197 16.5357C17.3618 16.6699 17.484 16.8493 17.5487 17.0518C17.6133 17.2543 17.6176 17.4713 17.5609 17.6762C17.5043 17.8811 17.3892 18.0651 17.2297 18.2056C12.2329 22.5611 9.37734 22.5011 4.75239 18.21C4.52689 18.001 4.40039 17.704 4.40039 17.3971V17.3966Z" fill="#004F9F"/>
<path fill-rule="evenodd" clip-rule="evenodd" d="M16.5629 16.8427C12.3625 16.4082 9.64936 16.3675 5.44956 16.8322C5.16686 16.8636 4.94961 17.1051 4.94961 17.3971C4.94961 17.5544 5.01506 17.7034 5.12561 17.8068C7.41801 19.9331 9.15491 20.894 10.8528 20.9C12.5567 20.9061 14.3871 19.9529 16.8676 17.7914C16.9464 17.7213 17.0031 17.6298 17.0309 17.528C17.0586 17.4262 17.0562 17.3186 17.0239 17.2181C16.9917 17.1177 16.9309 17.0288 16.8491 16.9623C16.7672 16.8957 16.6678 16.8544 16.5629 16.8433V16.8427ZM5.32911 15.7389C9.61691 15.2642 12.4098 15.3071 16.6767 15.7487C16.9948 15.7819 17.2963 15.9072 17.5443 16.1091C17.7923 16.311 17.976 16.5808 18.073 16.8855C18.17 17.1903 18.1761 17.5167 18.0904 17.8248C18.0048 18.1329 17.8312 18.4093 17.5908 18.6203C15.0746 20.8137 12.9791 22.0083 10.8495 22.0001C8.71381 21.9924 6.71071 20.7774 4.37816 18.6131C4.21116 18.4576 4.07802 18.2693 3.98708 18.0599C3.89614 17.8506 3.84934 17.6248 3.84961 17.3966C3.84881 16.9865 3.99932 16.5905 4.27232 16.2846C4.54532 15.9786 4.92161 15.7841 5.32911 15.7383V15.7389Z" fill="#004F9F"/>
<path d="M15.3996 8.7999C15.3996 9.96686 14.936 11.086 14.1109 11.9112C13.2857 12.7363 12.1666 13.1999 10.9996 13.1999C9.83266 13.1999 8.7135 12.7363 7.88834 11.9112C7.06318 11.086 6.59961 9.96686 6.59961 8.7999C6.59961 7.63295 7.06318 6.51379 7.88834 5.68863C8.7135 4.86347 9.83266 4.3999 10.9996 4.3999C12.1666 4.3999 13.2857 4.86347 14.1109 5.68863C14.936 6.51379 15.3996 7.63295 15.3996 8.7999Z" fill="#004F9F"/>
<path fill-rule="evenodd" clip-rule="evenodd" d="M10.9996 12.0999C11.8748 12.0999 12.7142 11.7522 13.3331 11.1334C13.9519 10.5145 14.2996 9.67512 14.2996 8.7999C14.2996 7.92469 13.9519 7.08532 13.3331 6.46645C12.7142 5.84758 11.8748 5.4999 10.9996 5.4999C10.1244 5.4999 9.28503 5.84758 8.66616 6.46645C8.04729 7.08532 7.69961 7.92469 7.69961 8.7999C7.69961 9.67512 8.04729 10.5145 8.66616 11.1334C9.28503 11.7522 10.1244 12.0999 10.9996 12.0999ZM10.9996 13.1999C12.1666 13.1999 13.2857 12.7363 14.1109 11.9112C14.936 11.086 15.3996 9.96686 15.3996 8.7999C15.3996 7.63295 14.936 6.51379 14.1109 5.68863C13.2857 4.86347 12.1666 4.3999 10.9996 4.3999C9.83266 4.3999 8.7135 4.86347 7.88834 5.68863C7.06318 6.51379 6.59961 7.63295 6.59961 8.7999C6.59961 9.96686 7.06318 11.086 7.88834 11.9112C8.7135 12.7363 9.83266 13.1999 10.9996 13.1999Z" fill="#004F9F"/>
</svg>
